<?xml version="1.0" encoding="UTF-8" standalone="no"?>
<!-- Created with Inkscape (http://www.inkscape.org/) -->
<svg
   xmlns:dc="http://purl.org/dc/elements/1.1/"
   xmlns:cc="http://web.resource.org/cc/"
   xmlns:rdf="http://www.w3.org/1999/02/22-rdf-syntax-ns#"
   xmlns:svg="http://www.w3.org/2000/svg"
   xmlns="http://www.w3.org/2000/svg"
   xmlns:xlink="http://www.w3.org/1999/xlink"
   xmlns:sodipodi="http://sodipodi.sourceforge.net/DTD/sodipodi-0.dtd"
   xmlns:inkscape="http://www.inkscape.org/namespaces/inkscape"
   id="svg2"
   sodipodi:version="0.32"
   inkscape:version="0.45.1"
   width="1280"
   height="1024"
   version="1.0"
   sodipodi:docbase="/home/fabio/Imagens/Wallpapers/Elegant Brit"
   sodipodi:docname="1.svg"
   inkscape:output_extension="org.inkscape.output.svg.inkscape">
  <metadata
     id="metadata7">
    <rdf:RDF>
      <cc:Work
         rdf:about="">
        <dc:format>image/svg+xml</dc:format>
        <dc:type
           rdf:resource="http://purl.org/dc/dcmitype/StillImage" />
      </cc:Work>
    </rdf:RDF>
  </metadata>
  <defs
     id="defs5">
    <linearGradient
       y2="803.17938"
       x2="959.54059"
       y1="771.59735"
       x1="959.54059"
       gradientUnits="userSpaceOnUse"
       id="linearGradient13429"
       xlink:href="#linearGradient5254"
       inkscape:collect="always" />
    <linearGradient
       y2="803.17938"
       x2="959.54059"
       y1="771.59735"
       x1="959.54059"
       gradientUnits="userSpaceOnUse"
       id="linearGradient5981"
       xlink:href="#linearGradient5254"
       inkscape:collect="always" />
    <linearGradient
       y2="810.34253"
       x2="959.54059"
       y1="771.60901"
       x1="959.54059"
       gradientUnits="userSpaceOnUse"
       id="linearGradient5885"
       xlink:href="#linearGradient5314"
       inkscape:collect="always" />
    <linearGradient
       y2="810.34253"
       x2="959.54059"
       y1="771.60901"
       x1="959.54059"
       gradientUnits="userSpaceOnUse"
       id="linearGradient5883"
       xlink:href="#linearGradient5320"
       inkscape:collect="always" />
    <linearGradient
       y2="803.17938"
       x2="959.54059"
       y1="771.59735"
       x1="959.54059"
       gradientUnits="userSpaceOnUse"
       id="linearGradient5881"
       xlink:href="#linearGradient5254"
       inkscape:collect="always" />
    <linearGradient
       y2="803.17938"
       x2="959.54059"
       y1="771.59735"
       x1="959.54059"
       gradientUnits="userSpaceOnUse"
       id="linearGradient4788"
       xlink:href="#linearGradient5254"
       inkscape:collect="always" />
    <linearGradient
       y2="803.17938"
       x2="959.54059"
       y1="771.59735"
       x1="959.54059"
       gradientUnits="userSpaceOnUse"
       id="linearGradient2689"
       xlink:href="#linearGradient5254"
       inkscape:collect="always" />
    <linearGradient
       y2="803.17938"
       x2="959.54059"
       y1="771.59735"
       x1="959.54059"
       gradientUnits="userSpaceOnUse"
       id="linearGradient2536"
       xlink:href="#linearGradient5254"
       inkscape:collect="always" />
    <linearGradient
       gradientUnits="userSpaceOnUse"
       y2="803.17938"
       x2="959.54059"
       y1="771.59735"
       x1="959.54059"
       id="linearGradient5260"
       xlink:href="#linearGradient5254"
       inkscape:collect="always" />
    <linearGradient
       id="linearGradient5254">
      <stop
         id="stop5256"
         offset="0"
         style="stop-color:#c0c0c0;stop-opacity:0.38403043" />
      <stop
         id="stop5258"
         offset="1"
         style="stop-color:#000000;stop-opacity:0" />
    </linearGradient>
    <linearGradient
       id="linearGradient5320">
      <stop
         style="stop-color:#c0c0c0;stop-opacity:0.30038023"
         offset="0"
         id="stop5322" />
      <stop
         style="stop-color:#000000;stop-opacity:0"
         offset="1"
         id="stop5324" />
    </linearGradient>
    <linearGradient
       id="linearGradient5314">
      <stop
         style="stop-color:#c0c0c0;stop-opacity:0.30038023"
         offset="0"
         id="stop5316" />
      <stop
         style="stop-color:#000000;stop-opacity:0"
         offset="1"
         id="stop5318" />
    </linearGradient>
    <linearGradient
       id="linearGradient3811">
      <stop
         id="stop3813"
         offset="0"
         style="stop-color:#5b5e63;stop-opacity:1;" />
      <stop
         style="stop-color:#404246;stop-opacity:0.49803922;"
         offset="0.5"
         id="stop8487" />
      <stop
         id="stop3815"
         offset="1"
         style="stop-color:#262729;stop-opacity:0;" />
    </linearGradient>
    <linearGradient
       id="linearGradient8490">
      <stop
         id="stop8492"
         offset="0"
         style="stop-color:#8e8e8e;stop-opacity:1;" />
      <stop
         id="stop8494"
         offset="1"
         style="stop-color:#262729;stop-opacity:0;" />
    </linearGradient>
    <linearGradient
       id="linearGradient13375">
      <stop
         id="stop13377"
         offset="0"
         style="stop-color:#5b5f62;stop-opacity:1;" />
      <stop
         id="stop13379"
         offset="1"
         style="stop-color:#666a6e;stop-opacity:0;" />
    </linearGradient>
    <linearGradient
       id="linearGradient13393">
      <stop
         id="stop13395"
         offset="0"
         style="stop-color:#95999d;stop-opacity:1;" />
      <stop
         id="stop13397"
         offset="1"
         style="stop-color:#676b70;stop-opacity:1;" />
    </linearGradient>
  </defs>
  <sodipodi:namedview
     inkscape:window-height="684"
     inkscape:window-width="995"
     inkscape:pageshadow="2"
     inkscape:pageopacity="0.0"
     guidetolerance="10.0"
     gridtolerance="10.0"
     objecttolerance="10.0"
     borderopacity="1.0"
     bordercolor="#666666"
     pagecolor="#ffffff"
     id="base"
     width="1280px"
     height="1024px"
     showgrid="true"
     inkscape:zoom="1"
     inkscape:cx="647.40625"
     inkscape:cy="512"
     inkscape:window-x="139"
     inkscape:window-y="43"
     inkscape:current-layer="svg2"
     showguides="true"
     inkscape:guide-bbox="true" />
  <rect
     style="opacity:1;fill:#262729;fill-opacity:1;stroke:none;stroke-opacity:1"
     id="rect2159"
     width="1279.8892"
     height="1024"
     x="0.11081791"
     y="0"
     inkscape:export-filename="/home/fabio/Imagens/Wallpapers/Elegant Brit/FreeAsInBeauty.png"
     inkscape:export-xdpi="90"
     inkscape:export-ydpi="90" />
  <rect
     style="opacity:1;fill:#ffffff;fill-opacity:1;stroke:none;stroke-opacity:1"
     id="rect44296"
     width="840"
     height="220"
     x="0"
     y="403.99997" />
  <path
     style="font-size:58.60190201px;font-style:normal;font-weight:normal;fill:#262729;fill-opacity:1;stroke:none;stroke-width:1px;stroke-linecap:butt;stroke-linejoin:miter;stroke-opacity:1;font-family:FilosofiaUnicase"
     d="M 352.88804,569.35454 L 352.88804,594.87842 L 344.87606,594.87842 L 344.87606,569.35454 L 340.35501,569.35454 L 340.35501,563.91784 L 344.87606,563.91784 L 344.87606,560.68444 C 344.87605,559.50175 345.01912,558.41441 345.30527,557.42242 C 345.59141,556.41142 346.07785,555.53392 346.7646,554.78991 C 347.45133,554.04598 348.37652,553.46416 349.54017,553.04444 C 350.70381,552.62481 352.15359,552.41497 353.88953,552.41493 C 354.80517,552.41497 355.70175,552.46266 356.57927,552.558 C 357.47583,552.65342 358.27703,552.75834 358.98286,552.87276 L 358.98286,558.05193 C 358.63947,557.97566 358.24841,557.91843 357.80968,557.88024 C 357.38999,557.82305 356.99893,557.79444 356.6365,557.7944 C 355.89251,557.79444 355.27254,557.87074 354.77657,558.02332 C 354.29966,558.17596 353.91813,558.40487 353.63201,558.71006 C 353.36493,559.01531 353.17417,559.40637 353.05972,559.88324 C 352.94525,560.3411 352.88802,560.87523 352.88804,561.48563 L 352.88804,563.91784 L 358.98286,563.91784 L 358.98286,569.35454 L 352.88804,569.35454 M 363.01747,594.87842 L 363.01747,571.18585 C 363.01746,570.51821 363.00792,569.8124 362.98885,569.0684 C 362.98885,568.32446 362.96977,567.61864 362.93162,566.95095 C 362.91254,566.26424 362.89347,565.6538 362.8744,565.11964 C 362.85532,564.56646 362.8267,564.16586 362.78855,563.91784 L 370.45716,563.91784 C 370.4953,564.14679 370.53345,564.54739 370.57162,565.11964 C 370.60976,565.67288 370.64791,566.28331 370.68607,566.95095 C 370.72422,567.61864 370.75283,568.28631 370.77192,568.95394 C 370.81006,569.60256 370.82913,570.12715 370.82915,570.52773 L 370.9436,570.52773 C 371.34419,569.40226 371.74479,568.40076 372.1454,567.52323 C 372.54598,566.62668 373.01335,565.87318 373.5475,565.26271 C 374.10069,564.63323 374.75881,564.15633 375.52188,563.832 C 376.2849,563.48866 377.22917,563.31698 378.35468,563.31694 C 378.83157,563.31698 379.29893,563.36467 379.75678,563.46002 C 380.23366,563.53635 380.59611,563.63173 380.84412,563.74616 L 380.84412,570.4705 C 380.32904,570.35606 379.80445,570.26068 379.27034,570.18435 C 378.75526,570.089 378.13529,570.04131 377.41041,570.04128 C 375.4074,570.04131 373.84316,570.85204 372.71768,572.47349 C 371.61125,574.09498 371.05805,576.49858 371.05806,579.68427 L 371.05806,594.87842 L 363.01747,594.87842 M 398.47047,595.4507 C 396.23855,595.4507 394.22602,595.12641 392.43287,594.47782 C 390.65878,593.81016 389.14223,592.80866 387.88321,591.47333 C 386.62418,590.11893 385.66084,588.43069 384.99318,586.40861 C 384.32551,584.36748 383.99168,581.98296 383.99168,579.25506 C 383.99168,576.29828 384.38274,573.80884 385.16486,571.78675 C 385.96606,569.7647 387.03432,568.1337 388.36966,566.89372 C 389.72405,565.63472 391.27876,564.72861 393.03377,564.17537 C 394.78876,563.62219 396.63915,563.34559 398.58493,563.34556 C 401.02666,563.34559 403.10595,563.7748 404.82283,564.6332 C 406.55873,565.47258 407.9799,566.6553 409.08634,568.18136 C 410.19273,569.70748 411.00347,571.53878 411.51855,573.67529 C 412.03358,575.79276 412.29111,578.13912 412.29114,580.71438 L 412.29114,580.9433 L 392.43287,580.9433 C 392.43286,582.24049 392.54732,583.45182 392.77624,584.5773 C 393.00515,585.68373 393.37713,586.64707 393.8922,587.46734 C 394.40724,588.26854 395.07491,588.90759 395.89519,589.38449 C 396.71545,589.84232 397.70741,590.07124 398.87107,590.07123 C 400.28269,590.07124 401.43679,589.77556 402.33339,589.18419 C 403.22995,588.57376 403.869,587.63903 404.25054,586.38 L 411.83331,587.03812 C 411.48991,587.91563 411.00347,588.85036 410.37398,589.84232 C 409.76352,590.83428 408.94325,591.74993 407.91316,592.58928 C 406.88302,593.40956 405.59539,594.0963 404.05024,594.6495 C 402.52413,595.18364 400.66421,595.4507 398.47047,595.4507 M 398.47047,568.41027 C 397.65018,568.4103 396.8776,568.55337 396.15272,568.83949 C 395.44689,569.10658 394.82692,569.54533 394.2928,570.15574 C 393.77773,570.74713 393.35806,571.51971 393.03377,572.47349 C 392.70947,573.42732 392.52824,574.57189 392.4901,575.9072 L 404.50807,575.9072 C 404.35544,573.40824 403.75454,571.53878 402.70538,570.29881 C 401.65617,569.03981 400.24453,568.4103 398.47047,568.41027 M 431.09067,595.4507 C 428.85875,595.4507 426.84622,595.12641 425.05308,594.47782 C 423.27899,593.81016 421.76243,592.80866 420.50342,591.47333 C 419.24439,590.11893 418.28104,588.43069 417.61338,586.40861 C 416.94571,584.36748 416.61188,581.98296 416.61188,579.25506 C 416.61188,576.29828 417.00294,573.80884 417.78507,571.78675 C 418.58626,569.7647 419.65452,568.1337 420.98986,566.89372 C 422.34426,565.63472 423.89896,564.72861 425.65397,564.17537 C 427.40897,563.62219 429.25935,563.34559 431.20513,563.34556 C 433.64686,563.34559 435.72615,563.7748 437.44303,564.6332 C 439.17893,565.47258 440.6001,566.6553 441.70655,568.18136 C 442.81293,569.70748 443.62367,571.53878 444.13875,573.67529 C 444.65378,575.79276 444.91131,578.13912 444.91134,580.71438 L 444.91134,580.9433 L 425.05308,580.9433 C 425.05306,582.24049 425.16752,583.45182 425.39645,584.5773 C 425.62535,585.68373 425.99733,586.64707 426.5124,587.46734 C 427.02744,588.26854 427.69511,588.90759 428.51539,589.38449 C 429.33565,589.84232 430.32761,590.07124 431.49127,590.07123 C 432.90289,590.07124 434.05699,589.77556 434.95359,589.18419 C 435.85015,588.57376 436.4892,587.63903 436.87074,586.38 L 444.45351,587.03812 C 444.11011,587.91563 443.62367,588.85036 442.99418,589.84232 C 442.38372,590.83428 441.56345,591.74993 440.53336,592.58928 C 439.50323,593.40956 438.21559,594.0963 436.67044,594.6495 C 435.14433,595.18364 433.28441,595.4507 431.09067,595.4507 M 431.09067,568.41027 C 430.27038,568.4103 429.4978,568.55337 428.77292,568.83949 C 428.06709,569.10658 427.44712,569.54533 426.913,570.15574 C 426.39793,570.74713 425.97826,571.51971 425.65397,572.47349 C 425.32967,573.42732 425.14844,574.57189 425.1103,575.9072 L 437.12827,575.9072 C 436.97564,573.40824 436.37474,571.53878 435.32558,570.29881 C 434.27637,569.03981 432.86474,568.4103 431.09067,568.41027 M 474.4412,595.4507 C 472.95325,595.4507 471.61792,595.2504 470.43521,594.8498 C 469.27156,594.43013 468.2796,593.82923 467.45933,593.04711 C 466.63906,592.24591 466.00954,591.26349 465.5708,590.09984 C 465.13204,588.93621 464.91267,587.61042 464.91267,586.12247 C 464.91267,584.29117 465.22742,582.75554 465.85694,581.51558 C 466.50552,580.25657 467.38302,579.24554 468.48944,578.48248 C 469.59585,577.70037 470.89303,577.13763 472.38098,576.79424 C 473.86891,576.43181 475.45222,576.24105 477.13094,576.22195 L 483.79805,576.1075 L 483.79805,574.53371 C 483.79803,573.40824 483.69311,572.47351 483.48329,571.72952 C 483.29251,570.9665 483.00637,570.34653 482.62486,569.8696 C 482.24332,569.39272 481.76642,569.05889 481.19415,568.8681 C 480.64093,568.65829 480.00188,568.55337 479.277,568.55334 C 478.60932,568.55337 478.00842,568.62014 477.47431,568.75364 C 476.95924,568.8872 476.51095,569.12565 476.12944,569.469 C 475.7479,569.79332 475.43315,570.24161 475.18517,570.81387 C 474.95624,571.3671 474.7941,572.07292 474.69873,572.93132 L 466.31476,572.53072 C 466.54368,571.17634 466.96335,569.94593 467.57379,568.83949 C 468.18422,567.71402 469.02357,566.74114 470.09184,565.92084 C 471.17917,565.10059 472.50496,564.47108 474.06922,564.0323 C 475.65252,563.5745 477.50291,563.34559 479.62037,563.34556 C 481.54704,563.34559 483.2639,563.58404 484.77093,564.06091 C 486.27792,564.53785 487.55602,565.2532 488.60523,566.20698 C 489.6544,567.14174 490.45559,568.29584 491.00883,569.6693 C 491.56201,571.0428 491.83861,572.63566 491.83864,574.44787 L 491.83864,585.72187 C 491.83861,586.44677 491.86723,587.09536 491.92448,587.66764 C 492.00076,588.23993 492.12475,588.72637 492.29647,589.12696 C 492.4872,589.50849 492.74473,589.80417 493.06905,590.014 C 493.41239,590.20477 493.85114,590.30015 494.3853,590.30014 C 494.99571,590.30015 495.58707,590.24292 496.15939,590.12846 L 496.15939,594.47782 C 495.68245,594.59228 495.25324,594.69719 494.87175,594.79258 C 494.49019,594.88796 494.10867,594.96426 493.72718,595.02149 C 493.34563,595.07872 492.93549,595.12641 492.49677,595.16456 C 492.07706,595.20271 491.58108,595.22179 491.00883,595.22179 C 488.98673,595.22179 487.48926,594.72581 486.5164,593.73385 C 485.56257,592.74189 484.99028,591.28257 484.79954,589.35588 L 484.62786,589.35588 C 483.55958,591.28257 482.18609,592.78004 480.50741,593.84831 C 478.84777,594.91657 476.8257,595.4507 474.4412,595.4507 M 483.79805,580.5427 L 479.6776,580.59993 C 478.81916,580.63809 477.99889,580.7144 477.21678,580.82884 C 476.45372,580.92424 475.77652,581.14361 475.18517,581.48697 C 474.61287,581.81128 474.15505,582.28818 473.81169,582.91768 C 473.46831,583.5472 473.29662,584.40563 473.29663,585.49296 C 473.29662,586.96183 473.63045,588.0587 474.29813,588.78359 C 474.98486,589.48941 475.89097,589.84232 477.01648,589.84232 C 478.04658,589.84232 478.98131,589.62295 479.82067,589.18419 C 480.66,588.74545 481.36582,588.17316 481.93812,587.46734 C 482.52946,586.74245 482.98729,585.91264 483.31161,584.9779 C 483.63588,584.04318 483.79803,583.08938 483.79805,582.11648 L 483.79805,580.5427 M 526.00402,585.83633 C 526.00399,587.32427 525.68923,588.6596 525.05975,589.84232 C 524.44928,591.02504 523.5527,592.03608 522.37001,592.87542 C 521.18727,593.6957 519.73748,594.33475 518.02065,594.79258 C 516.30378,595.23133 514.34848,595.4507 512.15474,595.4507 C 510.18988,595.4507 508.4158,595.30763 506.8325,595.02149 C 505.24917,594.73535 503.85661,594.26798 502.65482,593.61939 C 501.47209,592.95173 500.48014,592.0933 499.67894,591.04411 C 498.87774,589.99493 498.27684,588.69775 497.87625,587.15258 L 504.94396,586.09386 C 505.17286,586.95229 505.48762,587.64857 505.88823,588.18269 C 506.28882,588.71683 506.78479,589.12697 507.37617,589.4131 C 507.96751,589.69925 508.65425,589.89001 509.43639,589.98539 C 510.23757,590.08077 511.14369,590.12846 512.15474,590.12846 C 513.07038,590.12846 513.91926,590.08077 514.7014,589.98539 C 515.50258,589.87094 516.18932,589.68971 516.76163,589.44172 C 517.35297,589.17466 517.81079,588.81221 518.13511,588.35438 C 518.45938,587.87748 518.62153,587.28612 518.62155,586.5803 C 518.62153,585.77911 518.38308,585.1496 517.90619,584.69176 C 517.44835,584.21487 516.8093,583.83334 515.98904,583.54719 C 515.18783,583.24198 514.23402,582.98446 513.12762,582.77461 C 512.04027,582.54571 510.87662,582.28818 509.63669,582.00202 C 508.3395,581.71589 507.0614,581.37252 505.80238,580.97191 C 504.54335,580.57133 503.41786,580.02766 502.42591,579.3409 C 501.43394,578.65418 500.63275,577.78621 500.02231,576.73701 C 499.41187,575.66876 499.10666,574.3239 499.10666,572.70241 C 499.10666,571.23357 499.3928,569.92685 499.96509,568.78226 C 500.53736,567.61864 501.37671,566.63622 502.48314,565.83499 C 503.58954,565.01475 504.95349,564.39478 506.57497,563.97507 C 508.2155,563.53635 510.0945,563.31698 512.21197,563.31694 C 513.89065,563.31698 515.45489,563.47912 516.9047,563.80339 C 518.35446,564.10863 519.65164,564.60461 520.79623,565.29132 C 521.94077,565.95902 522.89458,566.81744 523.65765,567.8666 C 524.43974,568.91582 524.98341,570.18438 525.28866,571.67229 L 518.16372,572.41626 C 518.03017,571.67232 517.79172,571.06188 517.44837,570.58495 C 517.10498,570.089 516.67576,569.69794 516.16073,569.41177 C 515.66473,569.12565 515.08291,568.93489 514.41526,568.83949 C 513.74758,568.72506 513.01315,568.66783 512.21197,568.6678 C 510.30434,568.66783 508.87363,568.91582 507.91984,569.41177 C 506.96602,569.8887 506.48911,570.69943 506.48913,571.84398 C 506.48911,572.54982 506.67988,573.11256 507.06141,573.53222 C 507.462,573.95191 508.0152,574.30482 508.72103,574.59094 C 509.44591,574.85803 510.2948,575.09648 511.2677,575.3063 C 512.25964,575.49708 513.33744,575.73553 514.5011,576.02165 C 515.93179,576.32689 517.33389,576.68934 518.70739,577.10899 C 520.09993,577.50961 521.33034,578.07236 522.39863,578.79723 C 523.48594,579.50306 524.3539,580.41872 525.00252,581.5442 C 525.67015,582.6697 526.00399,584.10041 526.00402,585.83633 M 548.78092,558.33807 L 548.78092,552.41493 L 556.82151,552.41493 L 556.82151,558.33807 L 548.78092,558.33807 M 548.78092,594.87842 L 548.78092,563.91784 L 556.82151,563.91784 L 556.82151,594.87842 L 548.78092,594.87842 M 585.09235,594.87842 L 585.09235,577.50959 C 585.09232,576.30781 584.99694,575.21094 584.80621,574.21896 C 584.61542,573.20794 584.30067,572.34952 583.86194,571.64368 C 583.42316,570.91881 582.85088,570.35606 582.14509,569.95544 C 581.43925,569.55487 580.58082,569.35457 579.56981,569.35454 C 578.59691,569.35457 577.70987,569.57394 576.90868,570.01267 C 576.12655,570.43237 575.44935,571.0428 574.87708,571.84398 C 574.30478,572.62612 573.85649,573.57039 573.53221,574.67679 C 573.22698,575.76414 573.07437,576.96594 573.07438,578.28218 L 573.07438,594.87842 L 565.03379,594.87842 L 565.03379,570.84248 C 565.03378,570.17484 565.02425,569.4881 565.00517,568.78226 C 565.00517,568.07647 564.98609,567.4088 564.94794,566.77926 C 564.92886,566.1307 564.90979,565.55842 564.89072,565.06241 C 564.87164,564.54739 564.84302,564.16586 564.80487,563.91784 L 572.47348,563.91784 C 572.51162,564.14679 572.54978,564.51877 572.58794,565.0338 C 572.62608,565.52981 572.66423,566.08301 572.7024,566.69342 C 572.74054,567.30389 572.76915,567.91432 572.78824,568.52473 C 572.82638,569.13519 572.84546,569.65025 572.84547,570.0699 L 572.95992,570.0699 C 574.04725,567.70448 575.41119,565.98763 577.05176,564.91934 C 578.69229,563.85111 580.64759,563.31698 582.91767,563.31694 C 584.78711,563.31698 586.36089,563.62219 587.63901,564.2326 C 588.93616,564.84307 589.98535,565.68241 590.78658,566.75065 C 591.60682,567.81894 592.19818,569.07796 592.56066,570.52773 C 592.92307,571.97753 593.1043,573.54178 593.10433,575.22046 L 593.10433,594.87842 L 585.09235,594.87842"
     id="text9949"
     inkscape:export-filename="/home/fabio/Imagens/Wallpapers/Elegant Brit/slogan.svg"
     inkscape:export-xdpi="90"
     inkscape:export-ydpi="90" />
  <rect
     style="opacity:1;fill:#ffffff;fill-opacity:1;stroke:none;stroke-opacity:1"
     id="rect5224"
     width="219.99994"
     height="220.00003"
     x="840.00012"
     y="624" />
  <g
     id="g5219"
     transform="translate(-167.99982,282.67347)">
    <path
       id="path14153"
       d="M 1210,457.97176 L 1210,541.1296 L 1128,541.1296 L 1210,457.97176 z "
       style="fill:#e04613;fill-opacity:1;fill-rule:evenodd;stroke:none;stroke-width:1px;stroke-linecap:butt;stroke-linejoin:miter;stroke-opacity:1" />
    <path
       id="path13182"
       d="M 1210,470 L 1210,541.32647 L 1140,541.32647 L 1210,470 z "
       style="fill:#ffffff;fill-opacity:1;fill-rule:evenodd;stroke:none;stroke-width:1px;stroke-linecap:butt;stroke-linejoin:miter;stroke-opacity:1" />
    <path
       id="path15124"
       d="M 1210,480 L 1210,541.28039 L 1150,541.28039 L 1210,480 z "
       style="fill:#262729;fill-opacity:1;fill-rule:evenodd;stroke:none;stroke-width:1px;stroke-linecap:butt;stroke-linejoin:miter;stroke-opacity:1" />
  </g>
  <rect
     style="opacity:1;fill:#e04613;fill-opacity:1;stroke:none;stroke-opacity:1"
     id="rect5226"
     width="219.99994"
     height="220.00003"
     x="840.00006"
     y="403.99994" />
  <rect
     style="opacity:1;fill:#e06f13;fill-opacity:1;stroke:none;stroke-opacity:1"
     id="rect6197"
     width="219.99994"
     height="220.00003"
     x="1060"
     y="403.99994" />
  <rect
     style="opacity:1;fill:#277699;fill-opacity:1;stroke:none;stroke-opacity:1"
     id="rect6199"
     width="219.99994"
     height="220.00003"
     x="620.00006"
     y="624" />
  <rect
     style="opacity:1;fill:#e04613;fill-opacity:1;stroke:none;stroke-opacity:1"
     id="rect8151"
     width="839.99994"
     height="40"
     x="0.00012207031"
     y="364" />
  <rect
     style="opacity:1;fill:#6c9eab;fill-opacity:1;stroke:none;stroke-opacity:1"
     id="rect8153"
     width="219.99994"
     height="404"
     x="840.00006"
     y="6.9382002e-15" />
  <path
     style="font-size:58.60190201px;font-style:normal;font-weight:normal;fill:#e04613;fill-opacity:1;stroke:none;stroke-width:1px;stroke-linecap:butt;stroke-linejoin:miter;stroke-opacity:1;font-family:FilosofiaUnicase"
     d="M 646.41256,578.86876 C 646.41253,581.21514 646.17407,583.38027 645.6972,585.36418 C 645.23934,587.32903 644.52399,589.03634 643.55114,590.48613 C 642.57822,591.91684 641.33828,593.03279 639.83129,593.83399 C 638.34333,594.63519 636.57878,595.03578 634.53766,595.03579 C 633.62199,595.03578 632.70633,594.9404 631.7907,594.74964 C 630.87502,594.55888 630.00706,594.24413 629.1868,593.80537 C 628.36651,593.36662 627.61301,592.79434 626.92628,592.08852 C 626.23953,591.38271 625.64817,590.51474 625.1522,589.48463 L 625.09497,589.48463 C 625.09496,589.88523 625.07588,590.34306 625.03774,590.85811 C 625.01866,591.37317 624.99004,591.87869 624.9519,592.37466 C 624.91374,592.85157 624.86605,593.28078 624.80883,593.6623 C 624.77067,594.04383 624.73251,594.31089 624.69437,594.4635 L 616.88269,594.4635 C 616.93992,593.79584 616.98761,592.85157 617.02576,591.63069 C 617.08299,590.39075 617.1116,588.97912 617.11161,587.39579 L 617.11161,552.00001 L 625.1522,552.00001 L 625.1522,563.8463 C 625.15219,564.45676 625.14265,565.05766 625.12359,565.64899 C 625.12357,566.2213 625.11404,566.75544 625.09497,567.25139 C 625.07588,567.8237 625.05681,568.36737 625.03774,568.8824 L 625.1522,568.8824 C 626.12507,566.7459 627.4604,565.21981 629.15819,564.30412 C 630.85595,563.3885 632.82079,562.93067 635.05272,562.93064 C 637.03661,562.93067 638.74392,563.33127 640.17466,564.13244 C 641.60534,564.91459 642.77852,566.021 643.69421,567.45169 C 644.62891,568.86335 645.31565,570.54205 645.75443,572.48779 C 646.19315,574.43357 646.41253,576.56056 646.41256,578.86876 M 638.02859,578.86876 C 638.02857,575.35877 637.51351,572.75488 636.48343,571.05708 C 635.45329,569.35933 633.86044,568.51044 631.70485,568.51041 C 630.88456,568.51044 630.07383,568.67259 629.27265,568.99685 C 628.47143,569.32117 627.75608,569.89346 627.12658,570.71371 C 626.49705,571.51493 625.99154,572.60227 625.61003,573.97573 C 625.22849,575.33015 625.03773,577.047 625.03774,579.12628 C 625.03773,581.14837 625.22849,582.82707 625.61003,584.16239 C 625.99154,585.49772 626.48752,586.56599 627.09797,587.36718 C 627.70839,588.16838 628.4142,588.73113 629.21542,589.05542 C 630.0166,589.37971 630.82733,589.54186 631.64763,589.54186 C 633.68875,589.54186 635.26253,588.70251 636.36897,587.02381 C 637.47536,585.32604 638.02857,582.60769 638.02859,578.86876 M 665.61269,595.03579 C 663.38077,595.03578 661.36824,594.71149 659.57509,594.0629 C 657.801,593.39524 656.28445,592.39374 655.02543,591.05841 C 653.7664,589.70401 652.80306,588.01577 652.1354,585.99369 C 651.46773,583.95256 651.1339,581.56804 651.1339,578.84014 C 651.1339,575.88336 651.52496,573.39393 652.30708,571.37183 C 653.10828,569.34979 654.17654,567.71878 655.51188,566.4788 C 656.86627,565.21981 658.42098,564.31369 660.17599,563.76045 C 661.93098,563.20728 663.78137,562.93067 665.72715,562.93064 C 668.16888,562.93067 670.24817,563.35989 671.96505,564.21828 C 673.70095,565.05766 675.12212,566.24038 676.22856,567.76644 C 677.33495,569.29256 678.14569,571.12387 678.66077,573.26037 C 679.1758,575.37784 679.43332,577.7242 679.43336,580.29947 L 679.43336,580.52838 L 659.57509,580.52838 C 659.57508,581.82557 659.68954,583.0369 659.91846,584.16239 C 660.14737,585.26881 660.51935,586.23215 661.03442,587.05242 C 661.54946,587.85363 662.21713,588.49268 663.03741,588.96957 C 663.85767,589.42741 664.84963,589.65632 666.01329,589.65631 C 667.42491,589.65632 668.57901,589.36064 669.47561,588.76927 C 670.37217,588.15884 671.01122,587.22411 671.39276,585.96508 L 678.97553,586.62321 C 678.63213,587.50072 678.14569,588.43545 677.5162,589.4274 C 676.90574,590.41936 676.08547,591.33502 675.05538,592.17436 C 674.02524,592.99464 672.73761,593.68138 671.19246,594.23459 C 669.66635,594.76872 667.80643,595.03578 665.61269,595.03579 M 665.61269,567.99536 C 664.7924,567.99538 664.01982,568.13845 663.29494,568.42457 C 662.58911,568.69166 661.96914,569.13041 661.43502,569.74082 C 660.91995,570.33221 660.50027,571.10479 660.17599,572.05857 C 659.85169,573.0124 659.67046,574.15697 659.63232,575.49228 L 671.65029,575.49228 C 671.49766,572.99333 670.89676,571.12387 669.84759,569.88389 C 668.79839,568.6249 667.38675,567.99538 665.61269,567.99536 M 692.71035,595.03579 C 691.2224,595.03578 689.88707,594.83549 688.70436,594.43489 C 687.54071,594.01521 686.54875,593.41431 685.72848,592.63219 C 684.90821,591.831 684.27869,590.84858 683.83995,589.68493 C 683.40119,588.52129 683.18182,587.1955 683.18182,585.70755 C 683.18182,583.87625 683.49657,582.34063 684.12609,581.10066 C 684.77467,579.84165 685.65217,578.83062 686.75859,578.06756 C 687.865,577.28545 689.16218,576.72271 690.65013,576.37932 C 692.13806,576.01689 693.72137,575.82613 695.40009,575.80704 L 702.0672,575.69258 L 702.0672,574.1188 C 702.06718,572.99333 701.96226,572.0586 701.75244,571.31461 C 701.56166,570.55158 701.27552,569.93161 700.89401,569.45468 C 700.51247,568.9778 700.03557,568.64397 699.4633,568.45318 C 698.91008,568.24337 698.27103,568.13845 697.54615,568.13843 C 696.87847,568.13845 696.27757,568.20522 695.74346,568.33873 C 695.22839,568.47229 694.7801,568.71074 694.39859,569.05408 C 694.01705,569.3784 693.7023,569.82669 693.45432,570.39895 C 693.22539,570.95218 693.06325,571.658 692.96788,572.5164 L 684.58391,572.1158 C 684.81283,570.76142 685.2325,569.53101 685.84294,568.42457 C 686.45337,567.2991 687.29272,566.32622 688.36099,565.50592 C 689.44832,564.68568 690.77411,564.05616 692.33837,563.61738 C 693.92167,563.15959 695.77206,562.93067 697.88952,562.93064 C 699.81619,562.93067 701.53305,563.16912 703.04008,563.646 C 704.54707,564.12293 705.82517,564.83829 706.87438,565.79206 C 707.92355,566.72682 708.72474,567.88093 709.27798,569.25438 C 709.83116,570.62789 710.10776,572.22074 710.10779,574.03296 L 710.10779,585.30695 C 710.10776,586.03186 710.13638,586.68044 710.19363,587.25272 C 710.26991,587.82501 710.3939,588.31145 710.56562,588.71204 C 710.75635,589.09357 711.01388,589.38925 711.3382,589.59909 C 711.68154,589.78985 712.12029,589.88523 712.65445,589.88523 C 713.26486,589.88523 713.85622,589.828 714.42854,589.71354 L 714.42854,594.0629 C 713.9516,594.17736 713.52239,594.28228 713.1409,594.37766 C 712.75934,594.47304 712.37782,594.54934 711.99633,594.60657 C 711.61477,594.6638 711.20464,594.71149 710.76592,594.74964 C 710.34621,594.7878 709.85023,594.80687 709.27798,594.80687 C 707.25588,594.80687 705.75841,594.31089 704.78555,593.31893 C 703.83172,592.32698 703.25943,590.86765 703.06869,588.94096 L 702.89701,588.94096 C 701.82872,590.86765 700.45524,592.36513 698.77656,593.43339 C 697.11692,594.50165 695.09485,595.03578 692.71035,595.03579 M 702.0672,580.12778 L 697.94675,580.18501 C 697.08831,580.22318 696.26804,580.29948 695.48593,580.41392 C 694.72287,580.50932 694.04567,580.72869 693.45432,581.07205 C 692.88202,581.39636 692.4242,581.87326 692.08084,582.50276 C 691.73746,583.13229 691.56577,583.99071 691.56578,585.07804 C 691.56577,586.54691 691.8996,587.64379 692.56728,588.36867 C 693.25401,589.0745 694.16012,589.42741 695.28563,589.4274 C 696.31573,589.42741 697.25046,589.20803 698.08982,588.76927 C 698.92915,588.33053 699.63497,587.75824 700.20727,587.05242 C 700.79861,586.32754 701.25644,585.49772 701.58076,584.56298 C 701.90503,583.62826 702.06718,582.67446 702.0672,581.70156 L 702.0672,580.12778 M 725.75976,563.50293 L 725.75976,580.87175 C 725.75975,582.07356 725.85513,583.17998 726.04591,584.191 C 726.23666,585.18297 726.55141,586.04139 726.99018,586.76628 C 727.42891,587.4721 727.99166,588.02531 728.67841,588.4259 C 729.38422,588.82651 730.24264,589.02681 731.25369,589.0268 C 732.22656,589.02681 733.10406,588.81697 733.8862,588.39729 C 734.68738,587.95854 735.37412,587.34811 735.94642,586.56598 C 736.51869,585.76479 736.95744,584.82052 737.26268,583.73317 C 737.58695,582.62677 737.74909,581.41543 737.74912,580.09917 L 737.74912,563.50293 L 745.78971,563.50293 L 745.78971,587.53886 C 745.78968,588.18746 745.78968,588.8742 745.78971,589.59909 C 745.80876,590.30491 745.82783,590.98211 745.84694,591.63069 C 745.88506,592.26021 745.91367,592.83249 745.93278,593.34755 C 745.9709,593.84353 745.99952,594.21551 746.01863,594.4635 L 738.35002,594.4635 C 738.33092,594.23459 738.29276,593.87214 738.23556,593.37616 C 738.19738,592.86111 738.15923,592.29836 738.1211,591.68792 C 738.102,591.07749 738.07339,590.46705 738.03526,589.85661 C 738.01616,589.24618 738.00662,588.73113 738.00665,588.31145 L 737.86358,588.31145 C 736.79529,590.65781 735.43135,592.36513 733.77174,593.43339 C 732.13118,594.50165 730.17587,595.03578 727.90583,595.03579 C 726.05543,595.03578 724.48165,594.73057 723.18449,594.12013 C 721.8873,593.50969 720.82858,592.67988 720.00831,591.63069 C 719.20711,590.56243 718.62528,589.30341 718.26284,587.85362 C 717.90039,586.40384 717.71917,584.8396 717.71917,583.16089 L 717.71917,563.50293 L 725.75976,563.50293 M 761.92812,594.97856 C 759.56267,594.97856 757.7409,594.33951 756.46281,593.0614 C 755.1847,591.76423 754.54565,589.80893 754.54566,587.19549 L 754.54566,568.93963 L 750.62551,568.93963 L 750.62551,563.50293 L 754.94626,563.50293 L 757.46431,556.23492 L 762.50041,556.23492 L 762.50041,563.50293 L 768.36632,563.50293 L 768.36632,568.93963 L 762.50041,568.93963 L 762.50041,585.02081 C 762.5004,586.52783 762.78654,587.64379 763.35883,588.36867 C 763.93111,589.0745 764.81814,589.42741 766.01996,589.4274 C 766.51592,589.42741 766.96421,589.38925 767.36482,589.31294 C 767.76541,589.23664 768.21369,589.14126 768.70969,589.0268 L 768.70969,594.00567 C 767.71772,594.32997 766.66853,594.56842 765.56213,594.72103 C 764.4557,594.89271 763.24436,594.97856 761.92812,594.97856 M 789.51222,596.09451 C 788.76823,597.90674 788.01472,599.47098 787.25169,600.78724 C 786.48863,602.10349 785.63974,603.19083 784.70503,604.04926 C 783.78936,604.92675 782.74971,605.57534 781.58608,605.99503 C 780.4415,606.41469 779.10617,606.62453 777.58009,606.62454 C 776.74073,606.62453 775.88231,606.59591 775.00481,606.5387 C 774.1273,606.48146 773.29749,606.38608 772.51538,606.25256 L 772.51538,600.52971 C 772.89689,600.58694 773.35472,600.63463 773.88886,600.67278 C 774.44206,600.73001 774.90943,600.75862 775.29095,600.75863 C 776.07307,600.75862 776.76935,600.67278 777.37979,600.5011 C 777.99022,600.32941 778.54343,600.04327 779.03942,599.64267 C 779.53539,599.24207 779.99321,598.70794 780.4129,598.04028 C 780.85164,597.37261 781.27131,596.53326 781.67192,595.52223 L 782.18698,594.14874 L 769.9401,563.50293 L 778.43852,563.50293 L 783.30293,578.01033 C 783.37922,578.22018 783.49368,578.57309 783.6463,579.06906 C 783.81797,579.56505 783.9992,580.13733 784.18997,580.78591 C 784.3998,581.41543 784.60963,582.0831 784.81949,582.7889 C 785.02931,583.49473 785.22961,584.17193 785.42038,584.82051 C 785.61113,585.45003 785.77328,586.01278 785.90683,586.50875 C 786.04034,587.00474 786.13572,587.35765 786.19297,587.56748 C 786.25018,587.35765 786.33602,587.01428 786.4505,586.53736 C 786.58401,586.04139 786.72708,585.48819 786.87971,584.87774 C 787.05138,584.24824 787.2326,583.59011 787.42338,582.90336 C 787.61412,582.21663 787.79535,581.55851 787.96705,580.92898 C 788.13872,580.29948 788.29132,579.73674 788.42488,579.24074 C 788.57747,578.7257 788.69192,578.35372 788.76825,578.12479 L 793.34652,563.50293 L 801.7591,563.50293 L 789.51222,596.09451 M 801.73049,594.4635 L 801.73049,585.73617 L 809.99999,585.73617 L 809.99999,594.4635 L 801.73049,594.4635"
     id="text2216"
     inkscape:export-filename="/home/fabio/Imagens/Wallpapers/Elegant Brit/slogan.svg"
     inkscape:export-xdpi="90"
     inkscape:export-ydpi="90" />
  <path
     style="font-size:58.60190201px;font-style:normal;font-weight:normal;fill:#ffffff;fill-opacity:1;stroke:none;stroke-width:1px;stroke-linecap:butt;stroke-linejoin:miter;stroke-opacity:1;font-family:FilosofiaUnicase"
     d="M 885.06907,594.4635 L 885.06907,552.00001 L 893.10966,552.00001 L 893.10966,594.4635 L 885.06907,594.4635 M 901.32194,557.92315 L 901.32194,552.00001 L 909.36253,552.00001 L 909.36253,557.92315 L 901.32194,557.92315 M 901.32194,594.4635 L 901.32194,563.50293 L 909.36253,563.50293 L 909.36253,594.4635 L 901.32194,594.4635 M 937.63337,594.4635 L 937.63337,577.09468 C 937.63334,575.8929 937.53796,574.79602 937.34723,573.80404 C 937.15644,572.79303 936.84169,571.9346 936.40296,571.22876 C 935.96418,570.50389 935.3919,569.94115 934.6861,569.54052 C 933.98027,569.13995 933.12184,568.93965 932.11083,568.93963 C 931.13792,568.93965 930.25089,569.15903 929.4497,569.59775 C 928.66757,570.01745 927.99036,570.62789 927.4181,571.42906 C 926.8458,572.21121 926.39751,573.15547 926.07323,574.26187 C 925.768,575.34923 925.61539,576.55102 925.6154,577.86726 L 925.6154,594.4635 L 917.57481,594.4635 L 917.57481,570.42756 C 917.5748,569.75992 917.56526,569.07318 917.54619,568.36734 C 917.54619,567.66155 917.52711,566.99389 917.48896,566.36435 C 917.46988,565.71579 917.45081,565.1435 917.43174,564.64749 C 917.41266,564.13247 917.38404,563.75095 917.34589,563.50293 L 925.0145,563.50293 C 925.05264,563.73187 925.09079,564.10385 925.12896,564.61888 C 925.1671,565.11489 925.20525,565.6681 925.24342,566.2785 C 925.28156,566.88897 925.31017,567.4994 925.32926,568.10981 C 925.3674,568.72028 925.38647,569.23533 925.38649,569.65498 L 925.50094,569.65498 C 926.58827,567.28957 927.95221,565.57272 929.59278,564.50442 C 931.23331,563.43619 933.18861,562.90206 935.45869,562.90203 C 937.32813,562.90206 938.90191,563.20728 940.18003,563.81768 C 941.47718,564.42815 942.52637,565.2675 943.3276,566.33573 C 944.14784,567.40402 944.7392,568.66305 945.10168,570.11281 C 945.46409,571.56262 945.64531,573.12686 945.64535,574.80554 L 945.64535,594.4635 L 937.63337,594.4635 M 960.98257,563.50293 L 960.98257,580.87175 C 960.98255,582.07356 961.07793,583.17998 961.26871,584.191 C 961.45946,585.18297 961.77421,586.04139 962.21298,586.76628 C 962.65171,587.4721 963.21446,588.02531 963.90122,588.4259 C 964.60702,588.82651 965.46544,589.02681 966.47649,589.0268 C 967.44936,589.02681 968.32686,588.81697 969.109,588.39729 C 969.91018,587.95854 970.59692,587.34811 971.16922,586.56598 C 971.74149,585.76479 972.18024,584.82052 972.48548,583.73317 C 972.80975,582.62677 972.9719,581.41543 972.97192,580.09917 L 972.97192,563.50293 L 981.01251,563.50293 L 981.01251,587.53886 C 981.01248,588.18746 981.01248,588.8742 981.01251,589.59909 C 981.03156,590.30491 981.05063,590.98211 981.06974,591.63069 C 981.10786,592.26021 981.13648,592.83249 981.15558,593.34755 C 981.1937,593.84353 981.22232,594.21551 981.24143,594.4635 L 973.57282,594.4635 C 973.55372,594.23459 973.51557,593.87214 973.45836,593.37616 C 973.42018,592.86111 973.38203,592.29836 973.3439,591.68792 C 973.3248,591.07749 973.29619,590.46705 973.25806,589.85661 C 973.23896,589.24618 973.22942,588.73113 973.22945,588.31145 L 973.08638,588.31145 C 972.01809,590.65781 970.65415,592.36513 968.99454,593.43339 C 967.35398,594.50165 965.39868,595.03578 963.12863,595.03579 C 961.27823,595.03578 959.70445,594.73057 958.40729,594.12013 C 957.1101,593.50969 956.05138,592.67988 955.23111,591.63069 C 954.42991,590.56243 953.84808,589.30341 953.48564,587.85362 C 953.12319,586.40384 952.94197,584.8396 952.94197,583.16089 L 952.94197,563.50293 L 960.98257,563.50293 M 1008.568,594.4635 L 1001.3572,583.24673 L 994.0892,594.4635 L 985.53355,594.4635 L 996.86478,578.46816 L 986.07722,563.50293 L 994.74732,563.50293 L 1001.3572,573.63236 L 1007.9385,563.50293 L 1016.6658,563.50293 L 1005.8783,578.38231 L 1017.2953,594.4635 L 1008.568,594.4635 M 1021.7305,594.4635 L 1021.7305,585.73617 L 1030,585.73617 L 1030,594.4635 L 1021.7305,594.4635"
     id="text8139"
     inkscape:export-filename="/home/fabio/Imagens/Wallpapers/Elegant Brit/slogan.svg"
     inkscape:export-xdpi="90"
     inkscape:export-ydpi="90" />
  <path
     id="text2209"
     d="M 930.47895,564 C 928.46168,563.99999 926.6801,563.79261 925.13418,563.37786 C 923.60709,562.98194 922.29682,562.41636 921.20337,561.68111 C 920.12875,560.96469 919.26153,560.09747 918.60169,559.07942 C 917.96068,558.08022 917.51764,556.97733 917.27256,555.77076 L 925.21902,554.83754 C 925.5018,556.06297 926.10508,557.02446 927.02889,557.72202 C 927.97151,558.41957 929.19694,558.76834 930.70518,558.76835 C 931.6478,558.76834 932.50561,558.63638 933.27859,558.37244 C 934.07039,558.1085 934.73966,557.65603 935.28641,557.01504 C 935.85197,556.39289 936.28558,555.56337 936.58725,554.52647 C 936.90773,553.48957 937.06798,552.20758 937.068,550.6805 C 937.06798,550.15262 937.06798,549.61532 937.068,549.06859 C 937.06798,548.52186 937.07741,548.02226 937.09628,547.56979 C 937.11511,547.04192 937.12454,546.53289 937.12456,546.04271 L 937.068,546.04271 C 936.14419,548.02226 934.84334,549.45507 933.16547,550.34115 C 931.5064,551.22723 929.52687,551.67027 927.22684,551.67027 C 925.28499,551.67027 923.60709,551.29322 922.19314,550.53911 C 920.79802,549.76614 919.63858,548.70096 918.7148,547.34356 C 917.79101,545.96731 917.10288,544.33654 916.65042,542.45126 C 916.2168,540.54713 916,538.45447 916,536.17327 C 916,533.81669 916.23566,531.68633 916.70698,529.78217 C 917.17829,527.85921 917.8947,526.2096 918.8562,524.83332 C 919.83653,523.45709 921.06197,522.40133 922.53249,521.66605 C 924.02185,520.91196 925.78459,520.53491 927.8207,520.53488 C 929.85679,520.53491 931.67608,520.96852 933.27859,521.83572 C 934.89991,522.70298 936.16304,524.10751 937.068,526.04932 L 937.2094,526.04932 C 937.20937,525.65344 937.2188,525.20097 937.23767,524.69192 C 937.27536,524.16407 937.31306,523.66447 937.35079,523.19312 C 937.38847,522.70298 937.42618,522.26936 937.4639,521.89228 C 937.52045,521.51525 937.56757,521.26074 937.60531,521.12874 L 945.12757,521.12874 C 945.08983,521.80747 945.05213,522.75954 945.01445,523.98494 C 944.97672,525.2104 944.95786,526.61493 944.9579,528.19854 L 944.9579,550.79362 C 944.95786,553.01825 944.63737,554.95066 943.9964,556.59085 C 943.35537,558.24989 942.41274,559.62615 941.16848,560.71962 C 939.94302,561.81307 938.42537,562.63316 936.61554,563.17991 C 934.8245,563.72663 932.77897,563.99999 930.47895,564 M 937.12456,536.0036 C 937.12454,534.08063 936.936,532.47814 936.55897,531.19613 C 936.1819,529.91417 935.69172,528.88669 935.08846,528.1137 C 934.48514,527.34076 933.7876,526.79403 932.9958,526.47351 C 932.22281,526.15304 931.44042,525.99279 930.64862,525.99276 C 929.63055,525.99279 928.72562,526.19074 927.93382,526.58663 C 927.16084,526.98256 926.50099,527.59527 925.95427,528.42477 C 925.40753,529.25432 924.99277,530.31007 924.70999,531.59204 C 924.42719,532.87405 924.28579,534.40113 924.2858,536.17327 C 924.28579,539.47252 924.81367,541.96109 925.86944,543.63898 C 926.92518,545.31689 928.49938,546.15583 930.59206,546.15583 C 931.38387,546.15583 932.16625,546.00501 932.93923,545.70336 C 933.73103,545.38287 934.43801,544.83614 935.06017,544.06317 C 935.68229,543.27136 936.1819,542.22503 936.55897,540.92418 C 936.936,539.62335 937.12454,537.98316 937.12456,536.0036 M 972.89775,551.72683 L 972.89775,534.56136 C 972.89772,533.37365 972.80346,532.28962 972.61495,531.30925 C 972.4264,530.31007 972.11533,529.4617 971.68174,528.76412 C 971.2481,528.04774 970.68251,527.49158 969.98498,527.09565 C 969.28741,526.69977 968.43903,526.50181 967.43986,526.50179 C 966.47834,526.50181 965.60169,526.71862 964.80989,527.15221 C 964.03691,527.56699 963.36764,528.17028 962.80206,528.96208 C 962.23647,529.73506 961.79343,530.66828 961.47295,531.76172 C 961.17129,532.83635 961.02047,534.02407 961.02048,535.3249 L 961.02048,551.72683 L 953.07403,551.72683 L 953.07403,527.97231 C 953.07402,527.31248 953.06459,526.63378 953.04575,525.9362 C 953.04574,525.23868 953.02689,524.57883 952.98919,523.95666 C 952.97033,523.31569 952.95148,522.75011 952.93263,522.25991 C 952.91377,521.75091 952.88549,521.37386 952.84779,521.12874 L 960.42662,521.12874 C 960.46431,521.355 960.50201,521.72263 960.53973,522.23163 C 960.57742,522.72183 960.61513,523.26856 960.65285,523.87182 C 960.69054,524.47514 960.71883,525.07843 960.73769,525.68169 C 960.77538,526.28501 960.79424,526.79403 960.79425,527.20877 L 960.90737,527.20877 C 961.98196,524.87105 963.32994,523.1743 964.95129,522.11851 C 966.57261,521.06279 968.50502,520.53491 970.74852,520.53488 C 972.59608,520.53491 974.15143,520.83655 975.41459,521.43981 C 976.69656,522.04313 977.73346,522.87265 978.5253,523.92838 C 979.33594,524.98416 979.92038,526.22845 980.27862,527.66124 C 980.63678,529.09407 980.81589,530.64 980.81592,532.29902 L 980.81592,551.72683 L 972.89775,551.72683 M 995.97356,521.12874 L 995.97356,538.29421 C 995.97355,539.48195 996.0678,540.57541 996.2563,541.5746 C 996.4449,542.55495 996.7559,543.40333 997.1896,544.11973 C 997.6232,544.81729 998.1793,545.36402 998.858,545.75992 C 999.5556,546.15583 1000.4039,546.35379 1001.4032,546.35378 C 1002.3646,546.35379 1003.2319,546.14641 1004.0049,545.73164 C 1004.7967,545.29803 1005.4753,544.69474 1006.041,543.92177 C 1006.6065,543.12996 1007.0401,542.19675 1007.3418,541.12213 C 1007.6623,540.02868 1007.8225,538.83153 1007.8225,537.53067 L 1007.8225,521.12874 L 1015.769,521.12874 L 1015.769,544.88327 C 1015.769,545.52427 1015.769,546.20297 1015.769,546.91937 C 1015.7878,547.61693 1015.8067,548.2862 1015.8256,548.92719 C 1015.8632,549.54934 1015.8915,550.11492 1015.9104,550.62394 C 1015.9481,551.11412 1015.9763,551.48175 1015.9952,551.72683 L 1008.4164,551.72683 C 1008.3975,551.5006 1008.3598,551.1424 1008.3033,550.65222 C 1008.2656,550.1432 1008.2279,549.58704 1008.1902,548.98375 C 1008.1713,548.38046 1008.143,547.77717 1008.1053,547.17388 C 1008.0865,546.5706 1008.077,546.06157 1008.0771,545.6468 L 1007.9357,545.6468 C 1006.8799,547.9657 1005.5319,549.65303 1003.8917,550.70878 C 1002.2704,551.76454 1000.338,552.29241 998.0945,552.29242 C 996.2658,552.29241 994.71042,551.99077 993.42844,551.38748 C 992.14644,550.78419 991.10011,549.9641 990.28944,548.92719 C 989.49762,547.87144 988.92261,546.62715 988.56441,545.19434 C 988.20621,543.76153 988.02711,542.2156 988.02711,540.55655 L 988.02711,521.12874 L 995.97356,521.12874"
     style="font-size:72px;font-style:normal;font-weight:bold;fill:#e68924;fill-opacity:1;stroke:none;stroke-width:1px;stroke-linecap:butt;stroke-linejoin:miter;stroke-opacity:1;font-family:Liberation Sans" />
</svg>
