<?xml version="1.0" encoding="UTF-8" standalone="no"?>
<!-- Created with Inkscape (http://www.inkscape.org/) -->
<svg
   xmlns:dc="http://purl.org/dc/elements/1.1/"
   xmlns:cc="http://web.resource.org/cc/"
   xmlns:rdf="http://www.w3.org/1999/02/22-rdf-syntax-ns#"
   xmlns:svg="http://www.w3.org/2000/svg"
   xmlns="http://www.w3.org/2000/svg"
   xmlns:xlink="http://www.w3.org/1999/xlink"
   xmlns:sodipodi="http://sodipodi.sourceforge.net/DTD/sodipodi-0.dtd"
   xmlns:inkscape="http://www.inkscape.org/namespaces/inkscape"
   id="svg2"
   sodipodi:version="0.32"
   inkscape:version="0.45.1"
   width="1280"
   height="1024"
   version="1.0"
   sodipodi:docbase="/home/fabio/Imagens/Wallpapers/Elegant Brit"
   sodipodi:docname="2.svg"
   inkscape:output_extension="org.inkscape.output.svg.inkscape">
  <metadata
     id="metadata7">
    <rdf:RDF>
      <cc:Work
         rdf:about="">
        <dc:format>image/svg+xml</dc:format>
        <dc:type
           rdf:resource="http://purl.org/dc/dcmitype/StillImage" />
      </cc:Work>
    </rdf:RDF>
  </metadata>
  <defs
     id="defs5">
    <linearGradient
       y2="803.17938"
       x2="959.54059"
       y1="771.59735"
       x1="959.54059"
       gradientUnits="userSpaceOnUse"
       id="linearGradient13429"
       xlink:href="#linearGradient5254"
       inkscape:collect="always" />
    <linearGradient
       y2="803.17938"
       x2="959.54059"
       y1="771.59735"
       x1="959.54059"
       gradientUnits="userSpaceOnUse"
       id="linearGradient5981"
       xlink:href="#linearGradient5254"
       inkscape:collect="always" />
    <linearGradient
       y2="810.34253"
       x2="959.54059"
       y1="771.60901"
       x1="959.54059"
       gradientUnits="userSpaceOnUse"
       id="linearGradient5885"
       xlink:href="#linearGradient5314"
       inkscape:collect="always" />
    <linearGradient
       y2="810.34253"
       x2="959.54059"
       y1="771.60901"
       x1="959.54059"
       gradientUnits="userSpaceOnUse"
       id="linearGradient5883"
       xlink:href="#linearGradient5320"
       inkscape:collect="always" />
    <linearGradient
       y2="803.17938"
       x2="959.54059"
       y1="771.59735"
       x1="959.54059"
       gradientUnits="userSpaceOnUse"
       id="linearGradient5881"
       xlink:href="#linearGradient5254"
       inkscape:collect="always" />
    <linearGradient
       y2="803.17938"
       x2="959.54059"
       y1="771.59735"
       x1="959.54059"
       gradientUnits="userSpaceOnUse"
       id="linearGradient4788"
       xlink:href="#linearGradient5254"
       inkscape:collect="always" />
    <linearGradient
       y2="803.17938"
       x2="959.54059"
       y1="771.59735"
       x1="959.54059"
       gradientUnits="userSpaceOnUse"
       id="linearGradient2689"
       xlink:href="#linearGradient5254"
       inkscape:collect="always" />
    <linearGradient
       y2="803.17938"
       x2="959.54059"
       y1="771.59735"
       x1="959.54059"
       gradientUnits="userSpaceOnUse"
       id="linearGradient2536"
       xlink:href="#linearGradient5254"
       inkscape:collect="always" />
    <linearGradient
       gradientUnits="userSpaceOnUse"
       y2="803.17938"
       x2="959.54059"
       y1="771.59735"
       x1="959.54059"
       id="linearGradient5260"
       xlink:href="#linearGradient5254"
       inkscape:collect="always" />
    <linearGradient
       id="linearGradient5254">
      <stop
         id="stop5256"
         offset="0"
         style="stop-color:#c0c0c0;stop-opacity:0.38403043" />
      <stop
         id="stop5258"
         offset="1"
         style="stop-color:#000000;stop-opacity:0" />
    </linearGradient>
    <linearGradient
       id="linearGradient5320">
      <stop
         style="stop-color:#c0c0c0;stop-opacity:0.30038023"
         offset="0"
         id="stop5322" />
      <stop
         style="stop-color:#000000;stop-opacity:0"
         offset="1"
         id="stop5324" />
    </linearGradient>
    <linearGradient
       id="linearGradient5314">
      <stop
         style="stop-color:#c0c0c0;stop-opacity:0.30038023"
         offset="0"
         id="stop5316" />
      <stop
         style="stop-color:#000000;stop-opacity:0"
         offset="1"
         id="stop5318" />
    </linearGradient>
    <linearGradient
       id="linearGradient3811">
      <stop
         id="stop3813"
         offset="0"
         style="stop-color:#5b5e63;stop-opacity:1;" />
      <stop
         style="stop-color:#404246;stop-opacity:0.49803922;"
         offset="0.5"
         id="stop8487" />
      <stop
         id="stop3815"
         offset="1"
         style="stop-color:#262729;stop-opacity:0;" />
    </linearGradient>
    <linearGradient
       id="linearGradient8490">
      <stop
         id="stop8492"
         offset="0"
         style="stop-color:#8e8e8e;stop-opacity:1;" />
      <stop
         id="stop8494"
         offset="1"
         style="stop-color:#262729;stop-opacity:0;" />
    </linearGradient>
    <linearGradient
       id="linearGradient13375">
      <stop
         id="stop13377"
         offset="0"
         style="stop-color:#5b5f62;stop-opacity:1;" />
      <stop
         id="stop13379"
         offset="1"
         style="stop-color:#666a6e;stop-opacity:0;" />
    </linearGradient>
    <linearGradient
       id="linearGradient13393">
      <stop
         id="stop13395"
         offset="0"
         style="stop-color:#95999d;stop-opacity:1;" />
      <stop
         id="stop13397"
         offset="1"
         style="stop-color:#676b70;stop-opacity:1;" />
    </linearGradient>
  </defs>
  <sodipodi:namedview
     inkscape:window-height="684"
     inkscape:window-width="995"
     inkscape:pageshadow="2"
     inkscape:pageopacity="0.0"
     guidetolerance="10.0"
     gridtolerance="10.0"
     objecttolerance="10.0"
     borderopacity="1.0"
     bordercolor="#666666"
     pagecolor="#ffffff"
     id="base"
     width="1280px"
     height="1024px"
     showgrid="true"
     inkscape:zoom="1"
     inkscape:cx="871.56386"
     inkscape:cy="246.48969"
     inkscape:window-x="245"
     inkscape:window-y="38"
     inkscape:current-layer="svg2"
     showguides="true"
     inkscape:guide-bbox="true" />
  <rect
     style="opacity:1;fill:#262729;fill-opacity:1;stroke:none;stroke-opacity:1"
     id="rect2159"
     width="1279.8892"
     height="1024"
     x="0.11081791"
     y="0"
     inkscape:export-filename="/home/fabio/Imagens/Wallpapers/Elegant Brit/FreeAsInBeauty2.png"
     inkscape:export-xdpi="90"
     inkscape:export-ydpi="90" />
  <rect
     style="opacity:1;fill:#ffffff;fill-opacity:1;stroke:none;stroke-opacity:1"
     id="rect44296"
     width="840"
     height="180"
     x="0"
     y="463.99997" />
  <path
     style="font-size:58.60190201px;font-style:normal;font-weight:normal;fill:#262729;fill-opacity:1;stroke:none;stroke-width:1px;stroke-linecap:butt;stroke-linejoin:miter;stroke-opacity:1;font-family:FilosofiaUnicase"
     d="M 352.88804,589.35454 L 352.88804,614.87842 L 344.87606,614.87842 L 344.87606,589.35454 L 340.35501,589.35454 L 340.35501,583.91784 L 344.87606,583.91784 L 344.87606,580.68444 C 344.87605,579.50175 345.01912,578.41441 345.30527,577.42242 C 345.59141,576.41142 346.07785,575.53392 346.7646,574.78991 C 347.45133,574.04598 348.37652,573.46416 349.54017,573.04444 C 350.70381,572.62481 352.15359,572.41497 353.88953,572.41493 C 354.80517,572.41497 355.70175,572.46266 356.57927,572.558 C 357.47583,572.65342 358.27703,572.75834 358.98286,572.87276 L 358.98286,578.05193 C 358.63947,577.97566 358.24841,577.91843 357.80968,577.88024 C 357.38999,577.82305 356.99893,577.79444 356.6365,577.7944 C 355.89251,577.79444 355.27254,577.87074 354.77657,578.02332 C 354.29966,578.17596 353.91813,578.40487 353.63201,578.71006 C 353.36493,579.01531 353.17417,579.40637 353.05972,579.88324 C 352.94525,580.3411 352.88802,580.87523 352.88804,581.48563 L 352.88804,583.91784 L 358.98286,583.91784 L 358.98286,589.35454 L 352.88804,589.35454 M 363.01747,614.87842 L 363.01747,591.18585 C 363.01746,590.51821 363.00792,589.8124 362.98885,589.0684 C 362.98885,588.32446 362.96977,587.61864 362.93162,586.95095 C 362.91254,586.26424 362.89347,585.6538 362.8744,585.11964 C 362.85532,584.56646 362.8267,584.16586 362.78855,583.91784 L 370.45716,583.91784 C 370.4953,584.14679 370.53345,584.54739 370.57162,585.11964 C 370.60976,585.67288 370.64791,586.28331 370.68607,586.95095 C 370.72422,587.61864 370.75283,588.28631 370.77192,588.95394 C 370.81006,589.60256 370.82913,590.12715 370.82915,590.52773 L 370.9436,590.52773 C 371.34419,589.40226 371.74479,588.40076 372.1454,587.52323 C 372.54598,586.62668 373.01335,585.87318 373.5475,585.26271 C 374.10069,584.63323 374.75881,584.15633 375.52188,583.832 C 376.2849,583.48866 377.22917,583.31698 378.35468,583.31694 C 378.83157,583.31698 379.29893,583.36467 379.75678,583.46002 C 380.23366,583.53635 380.59611,583.63173 380.84412,583.74616 L 380.84412,590.4705 C 380.32904,590.35606 379.80445,590.26068 379.27034,590.18435 C 378.75526,590.089 378.13529,590.04131 377.41041,590.04128 C 375.4074,590.04131 373.84316,590.85204 372.71768,592.47349 C 371.61125,594.09498 371.05805,596.49858 371.05806,599.68427 L 371.05806,614.87842 L 363.01747,614.87842 M 398.47047,615.4507 C 396.23855,615.4507 394.22602,615.12641 392.43287,614.47782 C 390.65878,613.81016 389.14223,612.80866 387.88321,611.47333 C 386.62418,610.11893 385.66084,608.43069 384.99318,606.40861 C 384.32551,604.36748 383.99168,601.98296 383.99168,599.25506 C 383.99168,596.29828 384.38274,593.80884 385.16486,591.78675 C 385.96606,589.7647 387.03432,588.1337 388.36966,586.89372 C 389.72405,585.63472 391.27876,584.72861 393.03377,584.17537 C 394.78876,583.62219 396.63915,583.34559 398.58493,583.34556 C 401.02666,583.34559 403.10595,583.7748 404.82283,584.6332 C 406.55873,585.47258 407.9799,586.6553 409.08634,588.18136 C 410.19273,589.70748 411.00347,591.53878 411.51855,593.67529 C 412.03358,595.79276 412.29111,598.13912 412.29114,600.71438 L 412.29114,600.9433 L 392.43287,600.9433 C 392.43286,602.24049 392.54732,603.45182 392.77624,604.5773 C 393.00515,605.68373 393.37713,606.64707 393.8922,607.46734 C 394.40724,608.26854 395.07491,608.90759 395.89519,609.38449 C 396.71545,609.84232 397.70741,610.07124 398.87107,610.07123 C 400.28269,610.07124 401.43679,609.77556 402.33339,609.18419 C 403.22995,608.57376 403.869,607.63903 404.25054,606.38 L 411.83331,607.03812 C 411.48991,607.91563 411.00347,608.85036 410.37398,609.84232 C 409.76352,610.83428 408.94325,611.74993 407.91316,612.58928 C 406.88302,613.40956 405.59539,614.0963 404.05024,614.6495 C 402.52413,615.18364 400.66421,615.4507 398.47047,615.4507 M 398.47047,588.41027 C 397.65018,588.4103 396.8776,588.55337 396.15272,588.83949 C 395.44689,589.10658 394.82692,589.54533 394.2928,590.15574 C 393.77773,590.74713 393.35806,591.51971 393.03377,592.47349 C 392.70947,593.42732 392.52824,594.57189 392.4901,595.9072 L 404.50807,595.9072 C 404.35544,593.40824 403.75454,591.53878 402.70538,590.29881 C 401.65617,589.03981 400.24453,588.4103 398.47047,588.41027 M 431.09067,615.4507 C 428.85875,615.4507 426.84622,615.12641 425.05308,614.47782 C 423.27899,613.81016 421.76243,612.80866 420.50342,611.47333 C 419.24439,610.11893 418.28104,608.43069 417.61338,606.40861 C 416.94571,604.36748 416.61188,601.98296 416.61188,599.25506 C 416.61188,596.29828 417.00294,593.80884 417.78507,591.78675 C 418.58626,589.7647 419.65452,588.1337 420.98986,586.89372 C 422.34426,585.63472 423.89896,584.72861 425.65397,584.17537 C 427.40897,583.62219 429.25935,583.34559 431.20513,583.34556 C 433.64686,583.34559 435.72615,583.7748 437.44303,584.6332 C 439.17893,585.47258 440.6001,586.6553 441.70655,588.18136 C 442.81293,589.70748 443.62367,591.53878 444.13875,593.67529 C 444.65378,595.79276 444.91131,598.13912 444.91134,600.71438 L 444.91134,600.9433 L 425.05308,600.9433 C 425.05306,602.24049 425.16752,603.45182 425.39645,604.5773 C 425.62535,605.68373 425.99733,606.64707 426.5124,607.46734 C 427.02744,608.26854 427.69511,608.90759 428.51539,609.38449 C 429.33565,609.84232 430.32761,610.07124 431.49127,610.07123 C 432.90289,610.07124 434.05699,609.77556 434.95359,609.18419 C 435.85015,608.57376 436.4892,607.63903 436.87074,606.38 L 444.45351,607.03812 C 444.11011,607.91563 443.62367,608.85036 442.99418,609.84232 C 442.38372,610.83428 441.56345,611.74993 440.53336,612.58928 C 439.50323,613.40956 438.21559,614.0963 436.67044,614.6495 C 435.14433,615.18364 433.28441,615.4507 431.09067,615.4507 M 431.09067,588.41027 C 430.27038,588.4103 429.4978,588.55337 428.77292,588.83949 C 428.06709,589.10658 427.44712,589.54533 426.913,590.15574 C 426.39793,590.74713 425.97826,591.51971 425.65397,592.47349 C 425.32967,593.42732 425.14844,594.57189 425.1103,595.9072 L 437.12827,595.9072 C 436.97564,593.40824 436.37474,591.53878 435.32558,590.29881 C 434.27637,589.03981 432.86474,588.4103 431.09067,588.41027 M 474.4412,615.4507 C 472.95325,615.4507 471.61792,615.2504 470.43521,614.8498 C 469.27156,614.43013 468.2796,613.82923 467.45933,613.04711 C 466.63906,612.24591 466.00954,611.26349 465.5708,610.09984 C 465.13204,608.93621 464.91267,607.61042 464.91267,606.12247 C 464.91267,604.29117 465.22742,602.75554 465.85694,601.51558 C 466.50552,600.25657 467.38302,599.24554 468.48944,598.48248 C 469.59585,597.70037 470.89303,597.13763 472.38098,596.79424 C 473.86891,596.43181 475.45222,596.24105 477.13094,596.22195 L 483.79805,596.1075 L 483.79805,594.53371 C 483.79803,593.40824 483.69311,592.47351 483.48329,591.72952 C 483.29251,590.9665 483.00637,590.34653 482.62486,589.8696 C 482.24332,589.39272 481.76642,589.05889 481.19415,588.8681 C 480.64093,588.65829 480.00188,588.55337 479.277,588.55334 C 478.60932,588.55337 478.00842,588.62014 477.47431,588.75364 C 476.95924,588.8872 476.51095,589.12565 476.12944,589.469 C 475.7479,589.79332 475.43315,590.24161 475.18517,590.81387 C 474.95624,591.3671 474.7941,592.07292 474.69873,592.93132 L 466.31476,592.53072 C 466.54368,591.17634 466.96335,589.94593 467.57379,588.83949 C 468.18422,587.71402 469.02357,586.74114 470.09184,585.92084 C 471.17917,585.10059 472.50496,584.47108 474.06922,584.0323 C 475.65252,583.5745 477.50291,583.34559 479.62037,583.34556 C 481.54704,583.34559 483.2639,583.58404 484.77093,584.06091 C 486.27792,584.53785 487.55602,585.2532 488.60523,586.20698 C 489.6544,587.14174 490.45559,588.29584 491.00883,589.6693 C 491.56201,591.0428 491.83861,592.63566 491.83864,594.44787 L 491.83864,605.72187 C 491.83861,606.44677 491.86723,607.09536 491.92448,607.66764 C 492.00076,608.23993 492.12475,608.72637 492.29647,609.12696 C 492.4872,609.50849 492.74473,609.80417 493.06905,610.014 C 493.41239,610.20477 493.85114,610.30015 494.3853,610.30014 C 494.99571,610.30015 495.58707,610.24292 496.15939,610.12846 L 496.15939,614.47782 C 495.68245,614.59228 495.25324,614.69719 494.87175,614.79258 C 494.49019,614.88796 494.10867,614.96426 493.72718,615.02149 C 493.34563,615.07872 492.93549,615.12641 492.49677,615.16456 C 492.07706,615.20271 491.58108,615.22179 491.00883,615.22179 C 488.98673,615.22179 487.48926,614.72581 486.5164,613.73385 C 485.56257,612.74189 484.99028,611.28257 484.79954,609.35588 L 484.62786,609.35588 C 483.55958,611.28257 482.18609,612.78004 480.50741,613.84831 C 478.84777,614.91657 476.8257,615.4507 474.4412,615.4507 M 483.79805,600.5427 L 479.6776,600.59993 C 478.81916,600.63809 477.99889,600.7144 477.21678,600.82884 C 476.45372,600.92424 475.77652,601.14361 475.18517,601.48697 C 474.61287,601.81128 474.15505,602.28818 473.81169,602.91768 C 473.46831,603.5472 473.29662,604.40563 473.29663,605.49296 C 473.29662,606.96183 473.63045,608.0587 474.29813,608.78359 C 474.98486,609.48941 475.89097,609.84232 477.01648,609.84232 C 478.04658,609.84232 478.98131,609.62295 479.82067,609.18419 C 480.66,608.74545 481.36582,608.17316 481.93812,607.46734 C 482.52946,606.74245 482.98729,605.91264 483.31161,604.9779 C 483.63588,604.04318 483.79803,603.08938 483.79805,602.11648 L 483.79805,600.5427 M 526.00402,605.83633 C 526.00399,607.32427 525.68923,608.6596 525.05975,609.84232 C 524.44928,611.02504 523.5527,612.03608 522.37001,612.87542 C 521.18727,613.6957 519.73748,614.33475 518.02065,614.79258 C 516.30378,615.23133 514.34848,615.4507 512.15474,615.4507 C 510.18988,615.4507 508.4158,615.30763 506.8325,615.02149 C 505.24917,614.73535 503.85661,614.26798 502.65482,613.61939 C 501.47209,612.95173 500.48014,612.0933 499.67894,611.04411 C 498.87774,609.99493 498.27684,608.69775 497.87625,607.15258 L 504.94396,606.09386 C 505.17286,606.95229 505.48762,607.64857 505.88823,608.18269 C 506.28882,608.71683 506.78479,609.12697 507.37617,609.4131 C 507.96751,609.69925 508.65425,609.89001 509.43639,609.98539 C 510.23757,610.08077 511.14369,610.12846 512.15474,610.12846 C 513.07038,610.12846 513.91926,610.08077 514.7014,609.98539 C 515.50258,609.87094 516.18932,609.68971 516.76163,609.44172 C 517.35297,609.17466 517.81079,608.81221 518.13511,608.35438 C 518.45938,607.87748 518.62153,607.28612 518.62155,606.5803 C 518.62153,605.77911 518.38308,605.1496 517.90619,604.69176 C 517.44835,604.21487 516.8093,603.83334 515.98904,603.54719 C 515.18783,603.24198 514.23402,602.98446 513.12762,602.77461 C 512.04027,602.54571 510.87662,602.28818 509.63669,602.00202 C 508.3395,601.71589 507.0614,601.37252 505.80238,600.97191 C 504.54335,600.57133 503.41786,600.02766 502.42591,599.3409 C 501.43394,598.65418 500.63275,597.78621 500.02231,596.73701 C 499.41187,595.66876 499.10666,594.3239 499.10666,592.70241 C 499.10666,591.23357 499.3928,589.92685 499.96509,588.78226 C 500.53736,587.61864 501.37671,586.63622 502.48314,585.83499 C 503.58954,585.01475 504.95349,584.39478 506.57497,583.97507 C 508.2155,583.53635 510.0945,583.31698 512.21197,583.31694 C 513.89065,583.31698 515.45489,583.47912 516.9047,583.80339 C 518.35446,584.10863 519.65164,584.60461 520.79623,585.29132 C 521.94077,585.95902 522.89458,586.81744 523.65765,587.8666 C 524.43974,588.91582 524.98341,590.18438 525.28866,591.67229 L 518.16372,592.41626 C 518.03017,591.67232 517.79172,591.06188 517.44837,590.58495 C 517.10498,590.089 516.67576,589.69794 516.16073,589.41177 C 515.66473,589.12565 515.08291,588.93489 514.41526,588.83949 C 513.74758,588.72506 513.01315,588.66783 512.21197,588.6678 C 510.30434,588.66783 508.87363,588.91582 507.91984,589.41177 C 506.96602,589.8887 506.48911,590.69943 506.48913,591.84398 C 506.48911,592.54982 506.67988,593.11256 507.06141,593.53222 C 507.462,593.95191 508.0152,594.30482 508.72103,594.59094 C 509.44591,594.85803 510.2948,595.09648 511.2677,595.3063 C 512.25964,595.49708 513.33744,595.73553 514.5011,596.02165 C 515.93179,596.32689 517.33389,596.68934 518.70739,597.10899 C 520.09993,597.50961 521.33034,598.07236 522.39863,598.79723 C 523.48594,599.50306 524.3539,600.41872 525.00252,601.5442 C 525.67015,602.6697 526.00399,604.10041 526.00402,605.83633 M 548.78092,578.33807 L 548.78092,572.41493 L 556.82151,572.41493 L 556.82151,578.33807 L 548.78092,578.33807 M 548.78092,614.87842 L 548.78092,583.91784 L 556.82151,583.91784 L 556.82151,614.87842 L 548.78092,614.87842 M 585.09235,614.87842 L 585.09235,597.50959 C 585.09232,596.30781 584.99694,595.21094 584.80621,594.21896 C 584.61542,593.20794 584.30067,592.34952 583.86194,591.64368 C 583.42316,590.91881 582.85088,590.35606 582.14509,589.95544 C 581.43925,589.55487 580.58082,589.35457 579.56981,589.35454 C 578.59691,589.35457 577.70987,589.57394 576.90868,590.01267 C 576.12655,590.43237 575.44935,591.0428 574.87708,591.84398 C 574.30478,592.62612 573.85649,593.57039 573.53221,594.67679 C 573.22698,595.76414 573.07437,596.96594 573.07438,598.28218 L 573.07438,614.87842 L 565.03379,614.87842 L 565.03379,590.84248 C 565.03378,590.17484 565.02425,589.4881 565.00517,588.78226 C 565.00517,588.07647 564.98609,587.4088 564.94794,586.77926 C 564.92886,586.1307 564.90979,585.55842 564.89072,585.06241 C 564.87164,584.54739 564.84302,584.16586 564.80487,583.91784 L 572.47348,583.91784 C 572.51162,584.14679 572.54978,584.51877 572.58794,585.0338 C 572.62608,585.52981 572.66423,586.08301 572.7024,586.69342 C 572.74054,587.30389 572.76915,587.91432 572.78824,588.52473 C 572.82638,589.13519 572.84546,589.65025 572.84547,590.0699 L 572.95992,590.0699 C 574.04725,587.70448 575.41119,585.98763 577.05176,584.91934 C 578.69229,583.85111 580.64759,583.31698 582.91767,583.31694 C 584.78711,583.31698 586.36089,583.62219 587.63901,584.2326 C 588.93616,584.84307 589.98535,585.68241 590.78658,586.75065 C 591.60682,587.81894 592.19818,589.07796 592.56066,590.52773 C 592.92307,591.97753 593.1043,593.54178 593.10433,595.22046 L 593.10433,614.87842 L 585.09235,614.87842"
     id="text9949" />
  <rect
     style="opacity:1;fill:#ffffff;fill-opacity:1;stroke:none;stroke-opacity:1"
     id="rect5224"
     width="210"
     height="760"
     x="880"
     y="84" />
  <g
     id="g5219"
     transform="translate(-140,282.67353)">
    <path
       id="path14153"
       d="M 1210,457.97176 L 1210,541.1296 L 1128,541.1296 L 1210,457.97176 z "
       style="fill:#e04613;fill-opacity:1;fill-rule:evenodd;stroke:none;stroke-width:1px;stroke-linecap:butt;stroke-linejoin:miter;stroke-opacity:1" />
    <path
       id="path13182"
       d="M 1210,470 L 1210,541.32647 L 1140,541.32647 L 1210,470 z "
       style="fill:#ffffff;fill-opacity:1;fill-rule:evenodd;stroke:none;stroke-width:1px;stroke-linecap:butt;stroke-linejoin:miter;stroke-opacity:1" />
    <path
       id="path15124"
       d="M 1210,480 L 1210,541.28039 L 1150,541.28039 L 1210,480 z "
       style="fill:#262729;fill-opacity:1;fill-rule:evenodd;stroke:none;stroke-width:1px;stroke-linecap:butt;stroke-linejoin:miter;stroke-opacity:1" />
  </g>
  <rect
     style="opacity:1;fill:#e04613;fill-opacity:1;stroke:none;stroke-opacity:1"
     id="rect5226"
     width="290"
     height="80.000031"
     x="900"
     y="564" />
  <rect
     style="opacity:1;fill:#e06f13;fill-opacity:1;stroke:none;stroke-opacity:1"
     id="rect6197"
     width="39.999939"
     height="220.00003"
     x="1240"
     y="423.99991" />
  <path
     style="font-size:56.54404449px;font-style:normal;font-weight:normal;fill:#ffffff;fill-opacity:1;stroke:none;stroke-width:1px;stroke-linecap:butt;stroke-linejoin:miter;stroke-opacity:1;font-family:FilosofiaUnicase"
     d="M 1045.0691,624.46348 L 1045.0691,582 L 1052.5548,582 L 1052.5548,624.46348 L 1045.0691,624.46348 M 1060.2005,587.92314 L 1060.2005,582 L 1067.6862,582 L 1067.6862,587.92314 L 1060.2005,587.92314 M 1060.2005,624.46348 L 1060.2005,593.50292 L 1067.6862,593.50292 L 1067.6862,624.46348 L 1060.2005,624.46348 M 1094.0064,624.46348 L 1094.0064,607.09466 C 1094.0064,605.89288 1093.9177,604.796 1093.74,603.80403 C 1093.5624,602.79302 1093.2694,601.93459 1092.8609,601.22874 C 1092.4525,600.50388 1091.9197,599.94113 1091.2626,599.54051 C 1090.6054,599.13993 1089.8062,598.93964 1088.865,598.93961 C 1087.9592,598.93964 1087.1334,599.15901 1086.3874,599.59774 C 1085.6593,600.01744 1085.0288,600.62787 1084.4961,601.42905 C 1083.9633,602.21119 1083.5458,603.15546 1083.2439,604.26186 C 1082.9598,605.34921 1082.8177,606.55101 1082.8177,607.86724 L 1082.8177,624.46348 L 1075.3319,624.46348 L 1075.3319,600.42755 C 1075.3319,599.75991 1075.323,599.07317 1075.3053,598.36732 C 1075.3053,597.66154 1075.2875,596.99387 1075.252,596.36433 C 1075.2342,595.71577 1075.2165,595.14349 1075.1987,594.64748 C 1075.181,594.13245 1075.1543,593.75093 1075.1188,593.50292 L 1082.2583,593.50292 C 1082.2938,593.73185 1082.3293,594.10384 1082.3648,594.61886 C 1082.4003,595.11487 1082.4358,595.66808 1082.4714,596.27849 C 1082.507,596.88895 1082.5336,597.49939 1082.5513,598.1098 C 1082.5868,598.72026 1082.6046,599.23531 1082.6046,599.65497 L 1082.7111,599.65497 C 1083.7235,597.28955 1084.9933,595.5727 1086.5207,594.5044 C 1088.048,593.43617 1089.8683,592.90205 1091.9818,592.90201 C 1093.7223,592.90205 1095.1875,593.20726 1096.3775,593.81767 C 1097.5851,594.42814 1098.5619,595.26748 1099.3078,596.33572 C 1100.0714,597.40401 1100.622,598.66303 1100.9595,600.1128 C 1101.2969,601.5626 1101.4656,603.12685 1101.4657,604.80553 L 1101.4657,624.46348 L 1094.0064,624.46348 M 1115.7446,593.50292 L 1115.7446,610.87174 C 1115.7446,612.07355 1115.8334,613.17996 1116.011,614.19099 C 1116.1885,615.18295 1116.4816,616.04137 1116.8901,616.76626 C 1117.2986,617.47208 1117.8225,618.02529 1118.4618,618.42589 C 1119.119,618.8265 1119.9181,619.02679 1120.8595,619.02679 C 1121.7652,619.02679 1122.5822,618.81695 1123.3104,618.39727 C 1124.0562,617.95853 1124.6955,617.34809 1125.2284,616.56597 C 1125.7612,615.76477 1126.1696,614.82051 1126.4539,613.73316 C 1126.7557,612.62676 1126.9067,611.41542 1126.9067,610.09916 L 1126.9067,593.50292 L 1134.3925,593.50292 L 1134.3925,617.53885 C 1134.3924,618.18744 1134.3924,618.87418 1134.3925,619.59908 C 1134.4102,620.30489 1134.4279,620.98209 1134.4458,621.63068 C 1134.4813,622.26019 1134.5079,622.83248 1134.5257,623.34754 C 1134.5612,623.84351 1134.5878,624.2155 1134.6056,624.46348 L 1127.4661,624.46348 C 1127.4484,624.23458 1127.4129,623.87213 1127.3596,623.37615 C 1127.324,622.86109 1127.2885,622.29834 1127.253,621.68791 C 1127.2352,621.07747 1127.2086,620.46703 1127.1731,619.8566 C 1127.1553,619.24616 1127.1464,618.73112 1127.1464,618.31143 L 1127.0133,618.31143 C 1126.0187,620.6578 1124.7488,622.36512 1123.2037,623.43337 C 1121.6764,624.50163 1119.856,625.03577 1117.7426,625.03577 C 1116.0199,625.03577 1114.5547,624.73055 1113.347,624.12012 C 1112.1393,623.50968 1111.1537,622.67987 1110.39,621.63068 C 1109.644,620.56242 1109.1023,619.30339 1108.7649,617.8536 C 1108.4275,616.40382 1108.2587,614.83958 1108.2587,613.16087 L 1108.2587,593.50292 L 1115.7446,593.50292 M 1160.0467,624.46348 L 1153.3334,613.24672 L 1146.567,624.46348 L 1138.6016,624.46348 L 1149.151,608.46814 L 1139.1077,593.50292 L 1147.1797,593.50292 L 1153.3334,603.63234 L 1159.4606,593.50292 L 1167.5858,593.50292 L 1157.5425,608.3823 L 1168.1719,624.46348 L 1160.0467,624.46348 M 1172.301,624.46348 L 1172.301,615.73616 L 1180,615.73616 L 1180,624.46348 L 1172.301,624.46348"
     id="text8139" />
  <rect
     style="opacity:1;fill:#e04613;fill-opacity:1;stroke:none;stroke-opacity:1"
     id="rect8151"
     width="919.99994"
     height="30"
     x="6.1035156e-05"
     y="413.99997" />
  <rect
     style="opacity:1;fill:#6c9eab;fill-opacity:1;stroke:none;stroke-opacity:1"
     id="rect8153"
     width="210"
     height="40"
     x="880"
     y="0" />
  <rect
     style="opacity:1;fill:#277699;fill-opacity:1;stroke:none;stroke-opacity:1"
     id="rect2207"
     width="210"
     height="39.999939"
     x="880"
     y="984.00006"
     inkscape:export-filename="/home/fabio/FreeAsInBeauty2.png"
     inkscape:export-xdpi="90"
     inkscape:export-ydpi="90" />
  <path
     style="font-size:58.60190201px;font-style:normal;font-weight:normal;fill:#e04613;fill-opacity:1;stroke:none;stroke-width:1px;stroke-linecap:butt;stroke-linejoin:miter;stroke-opacity:1;font-family:FilosofiaUnicase"
     d="M 646.41256,598.86876 C 646.41253,601.21514 646.17407,603.38027 645.6972,605.36418 C 645.23934,607.32903 644.52399,609.03634 643.55114,610.48613 C 642.57822,611.91684 641.33828,613.03279 639.83129,613.83399 C 638.34333,614.63519 636.57878,615.03578 634.53766,615.03579 C 633.62199,615.03578 632.70633,614.9404 631.7907,614.74964 C 630.87502,614.55888 630.00706,614.24413 629.1868,613.80537 C 628.36651,613.36662 627.61301,612.79434 626.92628,612.08852 C 626.23953,611.38271 625.64817,610.51474 625.1522,609.48463 L 625.09497,609.48463 C 625.09496,609.88523 625.07588,610.34306 625.03774,610.85811 C 625.01866,611.37317 624.99004,611.87869 624.9519,612.37466 C 624.91374,612.85157 624.86605,613.28078 624.80883,613.6623 C 624.77067,614.04383 624.73251,614.31089 624.69437,614.4635 L 616.88269,614.4635 C 616.93992,613.79584 616.98761,612.85157 617.02576,611.63069 C 617.08299,610.39075 617.1116,608.97912 617.11161,607.39579 L 617.11161,572.00001 L 625.1522,572.00001 L 625.1522,583.8463 C 625.15219,584.45676 625.14265,585.05766 625.12359,585.64899 C 625.12357,586.2213 625.11404,586.75544 625.09497,587.25139 C 625.07588,587.8237 625.05681,588.36737 625.03774,588.8824 L 625.1522,588.8824 C 626.12507,586.7459 627.4604,585.21981 629.15819,584.30412 C 630.85595,583.3885 632.82079,582.93067 635.05272,582.93064 C 637.03661,582.93067 638.74392,583.33127 640.17466,584.13244 C 641.60534,584.91459 642.77852,586.021 643.69421,587.45169 C 644.62891,588.86335 645.31565,590.54205 645.75443,592.48779 C 646.19315,594.43357 646.41253,596.56056 646.41256,598.86876 M 638.02859,598.86876 C 638.02857,595.35877 637.51351,592.75488 636.48343,591.05708 C 635.45329,589.35933 633.86044,588.51044 631.70485,588.51041 C 630.88456,588.51044 630.07383,588.67259 629.27265,588.99685 C 628.47143,589.32117 627.75608,589.89346 627.12658,590.71371 C 626.49705,591.51493 625.99154,592.60227 625.61003,593.97573 C 625.22849,595.33015 625.03773,597.047 625.03774,599.12628 C 625.03773,601.14837 625.22849,602.82707 625.61003,604.16239 C 625.99154,605.49772 626.48752,606.56599 627.09797,607.36718 C 627.70839,608.16838 628.4142,608.73113 629.21542,609.05542 C 630.0166,609.37971 630.82733,609.54186 631.64763,609.54186 C 633.68875,609.54186 635.26253,608.70251 636.36897,607.02381 C 637.47536,605.32604 638.02857,602.60769 638.02859,598.86876 M 665.61269,615.03579 C 663.38077,615.03578 661.36824,614.71149 659.57509,614.0629 C 657.801,613.39524 656.28445,612.39374 655.02543,611.05841 C 653.7664,609.70401 652.80306,608.01577 652.1354,605.99369 C 651.46773,603.95256 651.1339,601.56804 651.1339,598.84014 C 651.1339,595.88336 651.52496,593.39393 652.30708,591.37183 C 653.10828,589.34979 654.17654,587.71878 655.51188,586.4788 C 656.86627,585.21981 658.42098,584.31369 660.17599,583.76045 C 661.93098,583.20728 663.78137,582.93067 665.72715,582.93064 C 668.16888,582.93067 670.24817,583.35989 671.96505,584.21828 C 673.70095,585.05766 675.12212,586.24038 676.22856,587.76644 C 677.33495,589.29256 678.14569,591.12387 678.66077,593.26037 C 679.1758,595.37784 679.43332,597.7242 679.43336,600.29947 L 679.43336,600.52838 L 659.57509,600.52838 C 659.57508,601.82557 659.68954,603.0369 659.91846,604.16239 C 660.14737,605.26881 660.51935,606.23215 661.03442,607.05242 C 661.54946,607.85363 662.21713,608.49268 663.03741,608.96957 C 663.85767,609.42741 664.84963,609.65632 666.01329,609.65631 C 667.42491,609.65632 668.57901,609.36064 669.47561,608.76927 C 670.37217,608.15884 671.01122,607.22411 671.39276,605.96508 L 678.97553,606.62321 C 678.63213,607.50072 678.14569,608.43545 677.5162,609.4274 C 676.90574,610.41936 676.08547,611.33502 675.05538,612.17436 C 674.02524,612.99464 672.73761,613.68138 671.19246,614.23459 C 669.66635,614.76872 667.80643,615.03578 665.61269,615.03579 M 665.61269,587.99536 C 664.7924,587.99538 664.01982,588.13845 663.29494,588.42457 C 662.58911,588.69166 661.96914,589.13041 661.43502,589.74082 C 660.91995,590.33221 660.50027,591.10479 660.17599,592.05857 C 659.85169,593.0124 659.67046,594.15697 659.63232,595.49228 L 671.65029,595.49228 C 671.49766,592.99333 670.89676,591.12387 669.84759,589.88389 C 668.79839,588.6249 667.38675,587.99538 665.61269,587.99536 M 692.71035,615.03579 C 691.2224,615.03578 689.88707,614.83549 688.70436,614.43489 C 687.54071,614.01521 686.54875,613.41431 685.72848,612.63219 C 684.90821,611.831 684.27869,610.84858 683.83995,609.68493 C 683.40119,608.52129 683.18182,607.1955 683.18182,605.70755 C 683.18182,603.87625 683.49657,602.34063 684.12609,601.10066 C 684.77467,599.84165 685.65217,598.83062 686.75859,598.06756 C 687.865,597.28545 689.16218,596.72271 690.65013,596.37932 C 692.13806,596.01689 693.72137,595.82613 695.40009,595.80704 L 702.0672,595.69258 L 702.0672,594.1188 C 702.06718,592.99333 701.96226,592.0586 701.75244,591.31461 C 701.56166,590.55158 701.27552,589.93161 700.89401,589.45468 C 700.51247,588.9778 700.03557,588.64397 699.4633,588.45318 C 698.91008,588.24337 698.27103,588.13845 697.54615,588.13843 C 696.87847,588.13845 696.27757,588.20522 695.74346,588.33873 C 695.22839,588.47229 694.7801,588.71074 694.39859,589.05408 C 694.01705,589.3784 693.7023,589.82669 693.45432,590.39895 C 693.22539,590.95218 693.06325,591.658 692.96788,592.5164 L 684.58391,592.1158 C 684.81283,590.76142 685.2325,589.53101 685.84294,588.42457 C 686.45337,587.2991 687.29272,586.32622 688.36099,585.50592 C 689.44832,584.68568 690.77411,584.05616 692.33837,583.61738 C 693.92167,583.15959 695.77206,582.93067 697.88952,582.93064 C 699.81619,582.93067 701.53305,583.16912 703.04008,583.646 C 704.54707,584.12293 705.82517,584.83829 706.87438,585.79206 C 707.92355,586.72682 708.72474,587.88093 709.27798,589.25438 C 709.83116,590.62789 710.10776,592.22074 710.10779,594.03296 L 710.10779,605.30695 C 710.10776,606.03186 710.13638,606.68044 710.19363,607.25272 C 710.26991,607.82501 710.3939,608.31145 710.56562,608.71204 C 710.75635,609.09357 711.01388,609.38925 711.3382,609.59909 C 711.68154,609.78985 712.12029,609.88523 712.65445,609.88523 C 713.26486,609.88523 713.85622,609.828 714.42854,609.71354 L 714.42854,614.0629 C 713.9516,614.17736 713.52239,614.28228 713.1409,614.37766 C 712.75934,614.47304 712.37782,614.54934 711.99633,614.60657 C 711.61477,614.6638 711.20464,614.71149 710.76592,614.74964 C 710.34621,614.7878 709.85023,614.80687 709.27798,614.80687 C 707.25588,614.80687 705.75841,614.31089 704.78555,613.31893 C 703.83172,612.32698 703.25943,610.86765 703.06869,608.94096 L 702.89701,608.94096 C 701.82872,610.86765 700.45524,612.36513 698.77656,613.43339 C 697.11692,614.50165 695.09485,615.03578 692.71035,615.03579 M 702.0672,600.12778 L 697.94675,600.18501 C 697.08831,600.22318 696.26804,600.29948 695.48593,600.41392 C 694.72287,600.50932 694.04567,600.72869 693.45432,601.07205 C 692.88202,601.39636 692.4242,601.87326 692.08084,602.50276 C 691.73746,603.13229 691.56577,603.99071 691.56578,605.07804 C 691.56577,606.54691 691.8996,607.64379 692.56728,608.36867 C 693.25401,609.0745 694.16012,609.42741 695.28563,609.4274 C 696.31573,609.42741 697.25046,609.20803 698.08982,608.76927 C 698.92915,608.33053 699.63497,607.75824 700.20727,607.05242 C 700.79861,606.32754 701.25644,605.49772 701.58076,604.56298 C 701.90503,603.62826 702.06718,602.67446 702.0672,601.70156 L 702.0672,600.12778 M 725.75976,583.50293 L 725.75976,600.87175 C 725.75975,602.07356 725.85513,603.17998 726.04591,604.191 C 726.23666,605.18297 726.55141,606.04139 726.99018,606.76628 C 727.42891,607.4721 727.99166,608.02531 728.67841,608.4259 C 729.38422,608.82651 730.24264,609.02681 731.25369,609.0268 C 732.22656,609.02681 733.10406,608.81697 733.8862,608.39729 C 734.68738,607.95854 735.37412,607.34811 735.94642,606.56598 C 736.51869,605.76479 736.95744,604.82052 737.26268,603.73317 C 737.58695,602.62677 737.74909,601.41543 737.74912,600.09917 L 737.74912,583.50293 L 745.78971,583.50293 L 745.78971,607.53886 C 745.78968,608.18746 745.78968,608.8742 745.78971,609.59909 C 745.80876,610.30491 745.82783,610.98211 745.84694,611.63069 C 745.88506,612.26021 745.91367,612.83249 745.93278,613.34755 C 745.9709,613.84353 745.99952,614.21551 746.01863,614.4635 L 738.35002,614.4635 C 738.33092,614.23459 738.29276,613.87214 738.23556,613.37616 C 738.19738,612.86111 738.15923,612.29836 738.1211,611.68792 C 738.102,611.07749 738.07339,610.46705 738.03526,609.85661 C 738.01616,609.24618 738.00662,608.73113 738.00665,608.31145 L 737.86358,608.31145 C 736.79529,610.65781 735.43135,612.36513 733.77174,613.43339 C 732.13118,614.50165 730.17587,615.03578 727.90583,615.03579 C 726.05543,615.03578 724.48165,614.73057 723.18449,614.12013 C 721.8873,613.50969 720.82858,612.67988 720.00831,611.63069 C 719.20711,610.56243 718.62528,609.30341 718.26284,607.85362 C 717.90039,606.40384 717.71917,604.8396 717.71917,603.16089 L 717.71917,583.50293 L 725.75976,583.50293 M 761.92812,614.97856 C 759.56267,614.97856 757.7409,614.33951 756.46281,613.0614 C 755.1847,611.76423 754.54565,609.80893 754.54566,607.19549 L 754.54566,588.93963 L 750.62551,588.93963 L 750.62551,583.50293 L 754.94626,583.50293 L 757.46431,576.23492 L 762.50041,576.23492 L 762.50041,583.50293 L 768.36632,583.50293 L 768.36632,588.93963 L 762.50041,588.93963 L 762.50041,605.02081 C 762.5004,606.52783 762.78654,607.64379 763.35883,608.36867 C 763.93111,609.0745 764.81814,609.42741 766.01996,609.4274 C 766.51592,609.42741 766.96421,609.38925 767.36482,609.31294 C 767.76541,609.23664 768.21369,609.14126 768.70969,609.0268 L 768.70969,614.00567 C 767.71772,614.32997 766.66853,614.56842 765.56213,614.72103 C 764.4557,614.89271 763.24436,614.97856 761.92812,614.97856 M 789.51222,616.09451 C 788.76823,617.90674 788.01472,619.47098 787.25169,620.78724 C 786.48863,622.10349 785.63974,623.19083 784.70503,624.04926 C 783.78936,624.92675 782.74971,625.57534 781.58608,625.99503 C 780.4415,626.41469 779.10617,626.62453 777.58009,626.62454 C 776.74073,626.62453 775.88231,626.59591 775.00481,626.5387 C 774.1273,626.48146 773.29749,626.38608 772.51538,626.25256 L 772.51538,620.52971 C 772.89689,620.58694 773.35472,620.63463 773.88886,620.67278 C 774.44206,620.73001 774.90943,620.75862 775.29095,620.75863 C 776.07307,620.75862 776.76935,620.67278 777.37979,620.5011 C 777.99022,620.32941 778.54343,620.04327 779.03942,619.64267 C 779.53539,619.24207 779.99321,618.70794 780.4129,618.04028 C 780.85164,617.37261 781.27131,616.53326 781.67192,615.52223 L 782.18698,614.14874 L 769.9401,583.50293 L 778.43852,583.50293 L 783.30293,598.01033 C 783.37922,598.22018 783.49368,598.57309 783.6463,599.06906 C 783.81797,599.56505 783.9992,600.13733 784.18997,600.78591 C 784.3998,601.41543 784.60963,602.0831 784.81949,602.7889 C 785.02931,603.49473 785.22961,604.17193 785.42038,604.82051 C 785.61113,605.45003 785.77328,606.01278 785.90683,606.50875 C 786.04034,607.00474 786.13572,607.35765 786.19297,607.56748 C 786.25018,607.35765 786.33602,607.01428 786.4505,606.53736 C 786.58401,606.04139 786.72708,605.48819 786.87971,604.87774 C 787.05138,604.24824 787.2326,603.59011 787.42338,602.90336 C 787.61412,602.21663 787.79535,601.55851 787.96705,600.92898 C 788.13872,600.29948 788.29132,599.73674 788.42488,599.24074 C 788.57747,598.7257 788.69192,598.35372 788.76825,598.12479 L 793.34652,583.50293 L 801.7591,583.50293 L 789.51222,616.09451 M 801.73049,614.4635 L 801.73049,605.73617 L 809.99999,605.73617 L 809.99999,614.4635 L 801.73049,614.4635"
     id="text2205" />
  <path
     id="text2209"
     d="M 950.47895,636 C 948.46168,635.99999 946.6801,635.79261 945.13418,635.37786 C 943.60709,634.98194 942.29682,634.41636 941.20337,633.68111 C 940.12875,632.96469 939.26153,632.09747 938.60169,631.07942 C 937.96068,630.08022 937.51764,628.97733 937.27256,627.77076 L 945.21902,626.83754 C 945.5018,628.06297 946.10508,629.02446 947.02889,629.72202 C 947.97151,630.41957 949.19694,630.76834 950.70518,630.76835 C 951.6478,630.76834 952.50561,630.63638 953.27859,630.37244 C 954.07039,630.1085 954.73966,629.65603 955.28641,629.01504 C 955.85197,628.39289 956.28558,627.56337 956.58725,626.52647 C 956.90773,625.48957 957.06798,624.20758 957.068,622.6805 C 957.06798,622.15262 957.06798,621.61532 957.068,621.06859 C 957.06798,620.52186 957.07741,620.02226 957.09628,619.56979 C 957.11511,619.04192 957.12454,618.53289 957.12456,618.04271 L 957.068,618.04271 C 956.14419,620.02226 954.84334,621.45507 953.16547,622.34115 C 951.5064,623.22723 949.52687,623.67027 947.22684,623.67027 C 945.28499,623.67027 943.60709,623.29322 942.19314,622.53911 C 940.79802,621.76614 939.63858,620.70096 938.7148,619.34356 C 937.79101,617.96731 937.10288,616.33654 936.65042,614.45126 C 936.2168,612.54713 936,610.45447 936,608.17327 C 936,605.81669 936.23566,603.68633 936.70698,601.78217 C 937.17829,599.85921 937.8947,598.2096 938.8562,596.83332 C 939.83653,595.45709 941.06197,594.40133 942.53249,593.66605 C 944.02185,592.91196 945.78459,592.53491 947.8207,592.53488 C 949.85679,592.53491 951.67608,592.96852 953.27859,593.83572 C 954.89991,594.70298 956.16304,596.10751 957.068,598.04932 L 957.2094,598.04932 C 957.20937,597.65344 957.2188,597.20097 957.23767,596.69192 C 957.27536,596.16407 957.31306,595.66447 957.35079,595.19312 C 957.38847,594.70298 957.42618,594.26936 957.4639,593.89228 C 957.52045,593.51525 957.56757,593.26074 957.60531,593.12874 L 965.12757,593.12874 C 965.08983,593.80747 965.05213,594.75954 965.01445,595.98494 C 964.97672,597.2104 964.95786,598.61493 964.9579,600.19854 L 964.9579,622.79362 C 964.95786,625.01825 964.63737,626.95066 963.9964,628.59085 C 963.35537,630.24989 962.41274,631.62615 961.16848,632.71962 C 959.94302,633.81307 958.42537,634.63316 956.61554,635.17991 C 954.8245,635.72663 952.77897,635.99999 950.47895,636 M 957.12456,608.0036 C 957.12454,606.08063 956.936,604.47814 956.55897,603.19613 C 956.1819,601.91417 955.69172,600.88669 955.08846,600.1137 C 954.48514,599.34076 953.7876,598.79403 952.9958,598.47351 C 952.22281,598.15304 951.44042,597.99279 950.64862,597.99276 C 949.63055,597.99279 948.72562,598.19074 947.93382,598.58663 C 947.16084,598.98256 946.50099,599.59527 945.95427,600.42477 C 945.40753,601.25432 944.99277,602.31007 944.70999,603.59204 C 944.42719,604.87405 944.28579,606.40113 944.2858,608.17327 C 944.28579,611.47252 944.81367,613.96109 945.86944,615.63898 C 946.92518,617.31689 948.49938,618.15583 950.59206,618.15583 C 951.38387,618.15583 952.16625,618.00501 952.93923,617.70336 C 953.73103,617.38287 954.43801,616.83614 955.06017,616.06317 C 955.68229,615.27136 956.1819,614.22503 956.55897,612.92418 C 956.936,611.62335 957.12454,609.98316 957.12456,608.0036 M 992.89775,623.72683 L 992.89775,606.56136 C 992.89772,605.37365 992.80346,604.28962 992.61495,603.30925 C 992.4264,602.31007 992.11533,601.4617 991.68174,600.76412 C 991.2481,600.04774 990.68251,599.49158 989.98498,599.09565 C 989.28741,598.69977 988.43903,598.50181 987.43986,598.50179 C 986.47834,598.50181 985.60169,598.71862 984.80989,599.15221 C 984.03691,599.56699 983.36764,600.17028 982.80206,600.96208 C 982.23647,601.73506 981.79343,602.66828 981.47295,603.76172 C 981.17129,604.83635 981.02047,606.02407 981.02048,607.3249 L 981.02048,623.72683 L 973.07403,623.72683 L 973.07403,599.97231 C 973.07402,599.31248 973.06459,598.63378 973.04575,597.9362 C 973.04574,597.23868 973.02689,596.57883 972.98919,595.95666 C 972.97033,595.31569 972.95148,594.75011 972.93263,594.25991 C 972.91377,593.75091 972.88549,593.37386 972.84779,593.12874 L 980.42662,593.12874 C 980.46431,593.355 980.50201,593.72263 980.53973,594.23163 C 980.57742,594.72183 980.61513,595.26856 980.65285,595.87182 C 980.69054,596.47514 980.71883,597.07843 980.73769,597.68169 C 980.77538,598.28501 980.79424,598.79403 980.79425,599.20877 L 980.90737,599.20877 C 981.98196,596.87105 983.32994,595.1743 984.95129,594.11851 C 986.57261,593.06279 988.50502,592.53491 990.74852,592.53488 C 992.59608,592.53491 994.15143,592.83655 995.41459,593.43981 C 996.69656,594.04313 997.73346,594.87265 998.5253,595.92838 C 999.3359,596.98416 999.9204,598.22845 1000.2786,599.66124 C 1000.6368,601.09407 1000.8159,602.64 1000.8159,604.29902 L 1000.8159,623.72683 L 992.89775,623.72683 M 1015.9736,593.12874 L 1015.9736,610.29421 C 1015.9735,611.48195 1016.0678,612.57541 1016.2563,613.5746 C 1016.4449,614.55495 1016.7559,615.40333 1017.1896,616.11973 C 1017.6232,616.81729 1018.1793,617.36402 1018.858,617.75992 C 1019.5556,618.15583 1020.4039,618.35379 1021.4032,618.35378 C 1022.3646,618.35379 1023.2319,618.14641 1024.0049,617.73164 C 1024.7967,617.29803 1025.4753,616.69474 1026.041,615.92177 C 1026.6065,615.12996 1027.0401,614.19675 1027.3418,613.12213 C 1027.6623,612.02868 1027.8225,610.83153 1027.8225,609.53067 L 1027.8225,593.12874 L 1035.769,593.12874 L 1035.769,616.88327 C 1035.769,617.52427 1035.769,618.20297 1035.769,618.91937 C 1035.7878,619.61693 1035.8067,620.2862 1035.8256,620.92719 C 1035.8632,621.54934 1035.8915,622.11492 1035.9104,622.62394 C 1035.9481,623.11412 1035.9763,623.48175 1035.9952,623.72683 L 1028.4164,623.72683 C 1028.3975,623.5006 1028.3598,623.1424 1028.3033,622.65222 C 1028.2656,622.1432 1028.2279,621.58704 1028.1902,620.98375 C 1028.1713,620.38046 1028.143,619.77717 1028.1053,619.17388 C 1028.0865,618.5706 1028.077,618.06157 1028.0771,617.6468 L 1027.9357,617.6468 C 1026.8799,619.9657 1025.5319,621.65303 1023.8917,622.70878 C 1022.2704,623.76454 1020.338,624.29241 1018.0945,624.29242 C 1016.2658,624.29241 1014.7104,623.99077 1013.4284,623.38748 C 1012.1464,622.78419 1011.1001,621.9641 1010.2894,620.92719 C 1009.4976,619.87144 1008.9226,618.62715 1008.5644,617.19434 C 1008.2062,615.76153 1008.0271,614.2156 1008.0271,612.55655 L 1008.0271,593.12874 L 1015.9736,593.12874"
     style="font-size:72px;font-style:normal;font-weight:bold;fill:#e68924;fill-opacity:1;stroke:none;stroke-width:1px;stroke-linecap:butt;stroke-linejoin:miter;stroke-opacity:1;font-family:Liberation Sans" />
</svg>
