<?xml version="1.0" encoding="UTF-8" standalone="no"?>
<!-- Created with Inkscape (http://www.inkscape.org/) -->
<svg
   xmlns:dc="http://purl.org/dc/elements/1.1/"
   xmlns:cc="http://web.resource.org/cc/"
   xmlns:rdf="http://www.w3.org/1999/02/22-rdf-syntax-ns#"
   xmlns:svg="http://www.w3.org/2000/svg"
   xmlns="http://www.w3.org/2000/svg"
   xmlns:xlink="http://www.w3.org/1999/xlink"
   xmlns:sodipodi="http://sodipodi.sourceforge.net/DTD/sodipodi-0.dtd"
   xmlns:inkscape="http://www.inkscape.org/namespaces/inkscape"
   id="svg2"
   sodipodi:version="0.32"
   inkscape:version="0.45.1"
   width="1280"
   height="800"
   version="1.0"
   sodipodi:docbase="/home/fabio/Imagens/Wallpapers/Elegant Brit"
   sodipodi:docname="2wide.svg"
   inkscape:output_extension="org.inkscape.output.svg.inkscape">
  <metadata
     id="metadata7">
    <rdf:RDF>
      <cc:Work
         rdf:about="">
        <dc:format>image/svg+xml</dc:format>
        <dc:type
           rdf:resource="http://purl.org/dc/dcmitype/StillImage" />
      </cc:Work>
    </rdf:RDF>
  </metadata>
  <defs
     id="defs5">
    <linearGradient
       y2="803.17938"
       x2="959.54059"
       y1="771.59735"
       x1="959.54059"
       gradientUnits="userSpaceOnUse"
       id="linearGradient13429"
       xlink:href="#linearGradient5254"
       inkscape:collect="always" />
    <linearGradient
       y2="803.17938"
       x2="959.54059"
       y1="771.59735"
       x1="959.54059"
       gradientUnits="userSpaceOnUse"
       id="linearGradient5981"
       xlink:href="#linearGradient5254"
       inkscape:collect="always" />
    <linearGradient
       y2="810.34253"
       x2="959.54059"
       y1="771.60901"
       x1="959.54059"
       gradientUnits="userSpaceOnUse"
       id="linearGradient5885"
       xlink:href="#linearGradient5314"
       inkscape:collect="always" />
    <linearGradient
       y2="810.34253"
       x2="959.54059"
       y1="771.60901"
       x1="959.54059"
       gradientUnits="userSpaceOnUse"
       id="linearGradient5883"
       xlink:href="#linearGradient5320"
       inkscape:collect="always" />
    <linearGradient
       y2="803.17938"
       x2="959.54059"
       y1="771.59735"
       x1="959.54059"
       gradientUnits="userSpaceOnUse"
       id="linearGradient5881"
       xlink:href="#linearGradient5254"
       inkscape:collect="always" />
    <linearGradient
       y2="803.17938"
       x2="959.54059"
       y1="771.59735"
       x1="959.54059"
       gradientUnits="userSpaceOnUse"
       id="linearGradient4788"
       xlink:href="#linearGradient5254"
       inkscape:collect="always" />
    <linearGradient
       y2="803.17938"
       x2="959.54059"
       y1="771.59735"
       x1="959.54059"
       gradientUnits="userSpaceOnUse"
       id="linearGradient2689"
       xlink:href="#linearGradient5254"
       inkscape:collect="always" />
    <linearGradient
       y2="803.17938"
       x2="959.54059"
       y1="771.59735"
       x1="959.54059"
       gradientUnits="userSpaceOnUse"
       id="linearGradient2536"
       xlink:href="#linearGradient5254"
       inkscape:collect="always" />
    <linearGradient
       gradientUnits="userSpaceOnUse"
       y2="803.17938"
       x2="959.54059"
       y1="771.59735"
       x1="959.54059"
       id="linearGradient5260"
       xlink:href="#linearGradient5254"
       inkscape:collect="always" />
    <linearGradient
       id="linearGradient5254">
      <stop
         id="stop5256"
         offset="0"
         style="stop-color:#c0c0c0;stop-opacity:0.38403043" />
      <stop
         id="stop5258"
         offset="1"
         style="stop-color:#000000;stop-opacity:0" />
    </linearGradient>
    <linearGradient
       id="linearGradient5320">
      <stop
         style="stop-color:#c0c0c0;stop-opacity:0.30038023"
         offset="0"
         id="stop5322" />
      <stop
         style="stop-color:#000000;stop-opacity:0"
         offset="1"
         id="stop5324" />
    </linearGradient>
    <linearGradient
       id="linearGradient5314">
      <stop
         style="stop-color:#c0c0c0;stop-opacity:0.30038023"
         offset="0"
         id="stop5316" />
      <stop
         style="stop-color:#000000;stop-opacity:0"
         offset="1"
         id="stop5318" />
    </linearGradient>
    <linearGradient
       id="linearGradient3811">
      <stop
         id="stop3813"
         offset="0"
         style="stop-color:#5b5e63;stop-opacity:1;" />
      <stop
         style="stop-color:#404246;stop-opacity:0.49803922;"
         offset="0.5"
         id="stop8487" />
      <stop
         id="stop3815"
         offset="1"
         style="stop-color:#262729;stop-opacity:0;" />
    </linearGradient>
    <linearGradient
       id="linearGradient8490">
      <stop
         id="stop8492"
         offset="0"
         style="stop-color:#8e8e8e;stop-opacity:1;" />
      <stop
         id="stop8494"
         offset="1"
         style="stop-color:#262729;stop-opacity:0;" />
    </linearGradient>
    <linearGradient
       id="linearGradient13375">
      <stop
         id="stop13377"
         offset="0"
         style="stop-color:#5b5f62;stop-opacity:1;" />
      <stop
         id="stop13379"
         offset="1"
         style="stop-color:#666a6e;stop-opacity:0;" />
    </linearGradient>
    <linearGradient
       id="linearGradient13393">
      <stop
         id="stop13395"
         offset="0"
         style="stop-color:#95999d;stop-opacity:1;" />
      <stop
         id="stop13397"
         offset="1"
         style="stop-color:#676b70;stop-opacity:1;" />
    </linearGradient>
  </defs>
  <sodipodi:namedview
     inkscape:window-height="684"
     inkscape:window-width="995"
     inkscape:pageshadow="2"
     inkscape:pageopacity="0.0"
     guidetolerance="10.0"
     gridtolerance="10.0"
     objecttolerance="10.0"
     borderopacity="1.0"
     bordercolor="#666666"
     pagecolor="#ffffff"
     id="base"
     width="1280px"
     height="800px"
     showgrid="true"
     inkscape:zoom="1"
     inkscape:cx="911.26052"
     inkscape:cy="279.90815"
     inkscape:window-x="280"
     inkscape:window-y="88"
     inkscape:current-layer="svg2"
     showguides="true"
     inkscape:guide-bbox="true" />
  <rect
     style="opacity:1;fill:#262729;fill-opacity:1;stroke:none;stroke-opacity:1"
     id="rect2159"
     width="1279.8892"
     height="799.99994"
     x="0.11081791"
     y="0"
     inkscape:export-filename="/home/fabio/FreeAsInBeauty2.png"
     inkscape:export-xdpi="90"
     inkscape:export-ydpi="90" />
  <rect
     style="opacity:1;fill:#ffffff;fill-opacity:1;stroke:none;stroke-opacity:1"
     id="rect44296"
     width="840"
     height="180"
     x="0"
     y="320" />
  <path
     style="font-size:58.60190201px;font-style:normal;font-weight:normal;fill:#262729;fill-opacity:1;stroke:none;stroke-width:1px;stroke-linecap:butt;stroke-linejoin:miter;stroke-opacity:1;font-family:FilosofiaUnicase"
     d="M 352.88804,445.35457 L 352.88804,470.87845 L 344.87606,470.87845 L 344.87606,445.35457 L 340.35501,445.35457 L 340.35501,439.91787 L 344.87606,439.91787 L 344.87606,436.68447 C 344.87605,435.50178 345.01912,434.41444 345.30527,433.42245 C 345.59141,432.41145 346.07785,431.53395 346.7646,430.78994 C 347.45133,430.04601 348.37652,429.46419 349.54017,429.04447 C 350.70381,428.62484 352.15359,428.415 353.88953,428.41496 C 354.80517,428.415 355.70175,428.46269 356.57927,428.55803 C 357.47583,428.65345 358.27703,428.75837 358.98286,428.87279 L 358.98286,434.05196 C 358.63947,433.97569 358.24841,433.91846 357.80968,433.88028 C 357.38999,433.82308 356.99893,433.79447 356.6365,433.79443 C 355.89251,433.79447 355.27254,433.87077 354.77657,434.02335 C 354.29966,434.17599 353.91813,434.40491 353.63201,434.71009 C 353.36493,435.01534 353.17417,435.4064 353.05972,435.88327 C 352.94525,436.34113 352.88802,436.87526 352.88804,437.48567 L 352.88804,439.91787 L 358.98286,439.91787 L 358.98286,445.35457 L 352.88804,445.35457 M 363.01747,470.87845 L 363.01747,447.18588 C 363.01746,446.51824 363.00792,445.81243 362.98885,445.06843 C 362.98885,444.32449 362.96977,443.61867 362.93162,442.95098 C 362.91254,442.26427 362.89347,441.65383 362.8744,441.11967 C 362.85532,440.56649 362.8267,440.16589 362.78855,439.91787 L 370.45716,439.91787 C 370.4953,440.14682 370.53345,440.54742 370.57162,441.11967 C 370.60976,441.67291 370.64791,442.28334 370.68607,442.95098 C 370.72422,443.61867 370.75283,444.28634 370.77192,444.95397 C 370.81006,445.60259 370.82913,446.12718 370.82915,446.52776 L 370.9436,446.52776 C 371.34419,445.40229 371.74479,444.40079 372.1454,443.52326 C 372.54598,442.62671 373.01335,441.87321 373.5475,441.26274 C 374.10069,440.63326 374.75881,440.15636 375.52188,439.83203 C 376.2849,439.48869 377.22917,439.31701 378.35468,439.31697 C 378.83157,439.31701 379.29893,439.3647 379.75678,439.46005 C 380.23366,439.53638 380.59611,439.63176 380.84412,439.74619 L 380.84412,446.47053 C 380.32904,446.3561 379.80445,446.26071 379.27034,446.18439 C 378.75526,446.08903 378.13529,446.04134 377.41041,446.04131 C 375.4074,446.04134 373.84316,446.85207 372.71768,448.47352 C 371.61125,450.09501 371.05805,452.49861 371.05806,455.6843 L 371.05806,470.87845 L 363.01747,470.87845 M 398.47047,471.45073 C 396.23855,471.45073 394.22602,471.12644 392.43287,470.47785 C 390.65878,469.81019 389.14223,468.80869 387.88321,467.47336 C 386.62418,466.11896 385.66084,464.43072 384.99318,462.40864 C 384.32551,460.36751 383.99168,457.98299 383.99168,455.25509 C 383.99168,452.29831 384.38274,449.80887 385.16486,447.78678 C 385.96606,445.76474 387.03432,444.13373 388.36966,442.89375 C 389.72405,441.63476 391.27876,440.72864 393.03377,440.1754 C 394.78876,439.62222 396.63915,439.34562 398.58493,439.34559 C 401.02666,439.34562 403.10595,439.77483 404.82283,440.63323 C 406.55873,441.47261 407.9799,442.65533 409.08634,444.18139 C 410.19273,445.70751 411.00347,447.53881 411.51855,449.67532 C 412.03358,451.79279 412.29111,454.13915 412.29114,456.71441 L 412.29114,456.94333 L 392.43287,456.94333 C 392.43286,458.24052 392.54732,459.45185 392.77624,460.57733 C 393.00515,461.68376 393.37713,462.6471 393.8922,463.46737 C 394.40724,464.26857 395.07491,464.90762 395.89519,465.38452 C 396.71545,465.84235 397.70741,466.07127 398.87107,466.07126 C 400.28269,466.07127 401.43679,465.77559 402.33339,465.18422 C 403.22995,464.57379 403.869,463.63906 404.25054,462.38003 L 411.83331,463.03815 C 411.48991,463.91566 411.00347,464.85039 410.37398,465.84235 C 409.76352,466.83431 408.94325,467.74996 407.91316,468.58931 C 406.88302,469.40959 405.59539,470.09633 404.05024,470.64953 C 402.52413,471.18367 400.66421,471.45073 398.47047,471.45073 M 398.47047,444.4103 C 397.65018,444.41033 396.8776,444.5534 396.15272,444.83952 C 395.44689,445.10661 394.82692,445.54536 394.2928,446.15577 C 393.77773,446.74716 393.35806,447.51974 393.03377,448.47352 C 392.70947,449.42735 392.52824,450.57192 392.4901,451.90723 L 404.50807,451.90723 C 404.35544,449.40827 403.75454,447.53881 402.70538,446.29884 C 401.65617,445.03984 400.24453,444.41033 398.47047,444.4103 M 431.09067,471.45073 C 428.85875,471.45073 426.84622,471.12644 425.05308,470.47785 C 423.27899,469.81019 421.76243,468.80869 420.50342,467.47336 C 419.24439,466.11896 418.28104,464.43072 417.61338,462.40864 C 416.94571,460.36751 416.61188,457.98299 416.61188,455.25509 C 416.61188,452.29831 417.00294,449.80887 417.78507,447.78678 C 418.58626,445.76474 419.65452,444.13373 420.98986,442.89375 C 422.34426,441.63476 423.89896,440.72864 425.65397,440.1754 C 427.40897,439.62222 429.25935,439.34562 431.20513,439.34559 C 433.64686,439.34562 435.72615,439.77483 437.44303,440.63323 C 439.17893,441.47261 440.6001,442.65533 441.70655,444.18139 C 442.81293,445.70751 443.62367,447.53881 444.13875,449.67532 C 444.65378,451.79279 444.91131,454.13915 444.91134,456.71441 L 444.91134,456.94333 L 425.05308,456.94333 C 425.05306,458.24052 425.16752,459.45185 425.39645,460.57733 C 425.62535,461.68376 425.99733,462.6471 426.5124,463.46737 C 427.02744,464.26857 427.69511,464.90762 428.51539,465.38452 C 429.33565,465.84235 430.32761,466.07127 431.49127,466.07126 C 432.90289,466.07127 434.05699,465.77559 434.95359,465.18422 C 435.85015,464.57379 436.4892,463.63906 436.87074,462.38003 L 444.45351,463.03815 C 444.11011,463.91566 443.62367,464.85039 442.99418,465.84235 C 442.38372,466.83431 441.56345,467.74996 440.53336,468.58931 C 439.50323,469.40959 438.21559,470.09633 436.67044,470.64953 C 435.14433,471.18367 433.28441,471.45073 431.09067,471.45073 M 431.09067,444.4103 C 430.27038,444.41033 429.4978,444.5534 428.77292,444.83952 C 428.06709,445.10661 427.44712,445.54536 426.913,446.15577 C 426.39793,446.74716 425.97826,447.51974 425.65397,448.47352 C 425.32967,449.42735 425.14844,450.57192 425.1103,451.90723 L 437.12827,451.90723 C 436.97564,449.40827 436.37474,447.53881 435.32558,446.29884 C 434.27637,445.03984 432.86474,444.41033 431.09067,444.4103 M 474.4412,471.45073 C 472.95325,471.45073 471.61792,471.25043 470.43521,470.84983 C 469.27156,470.43016 468.2796,469.82926 467.45933,469.04714 C 466.63906,468.24594 466.00954,467.26352 465.5708,466.09988 C 465.13204,464.93624 464.91267,463.61045 464.91267,462.1225 C 464.91267,460.2912 465.22742,458.75557 465.85694,457.51561 C 466.50552,456.2566 467.38302,455.24557 468.48944,454.48251 C 469.59585,453.7004 470.89303,453.13766 472.38098,452.79427 C 473.86891,452.43184 475.45222,452.24108 477.13094,452.22198 L 483.79805,452.10753 L 483.79805,450.53375 C 483.79803,449.40827 483.69311,448.47354 483.48329,447.72955 C 483.29251,446.96653 483.00637,446.34656 482.62486,445.86963 C 482.24332,445.39275 481.76642,445.05892 481.19415,444.86813 C 480.64093,444.65832 480.00188,444.5534 479.277,444.55338 C 478.60932,444.5534 478.00842,444.62017 477.47431,444.75367 C 476.95924,444.88723 476.51095,445.12569 476.12944,445.46903 C 475.7479,445.79335 475.43315,446.24164 475.18517,446.8139 C 474.95624,447.36713 474.7941,448.07295 474.69873,448.93135 L 466.31476,448.53075 C 466.54368,447.17637 466.96335,445.94596 467.57379,444.83952 C 468.18422,443.71405 469.02357,442.74117 470.09184,441.92087 C 471.17917,441.10062 472.50496,440.47111 474.06922,440.03233 C 475.65252,439.57453 477.50291,439.34562 479.62037,439.34559 C 481.54704,439.34562 483.2639,439.58407 484.77093,440.06094 C 486.27792,440.53788 487.55602,441.25323 488.60523,442.20701 C 489.6544,443.14177 490.45559,444.29587 491.00883,445.66933 C 491.56201,447.04284 491.83861,448.63569 491.83864,450.4479 L 491.83864,461.7219 C 491.83861,462.4468 491.86723,463.09539 491.92448,463.66767 C 492.00076,464.23996 492.12475,464.7264 492.29647,465.12699 C 492.4872,465.50852 492.74473,465.8042 493.06905,466.01403 C 493.41239,466.2048 493.85114,466.30018 494.3853,466.30017 C 494.99571,466.30018 495.58707,466.24295 496.15939,466.12849 L 496.15939,470.47785 C 495.68245,470.59231 495.25324,470.69723 494.87175,470.79261 C 494.49019,470.88799 494.10867,470.96429 493.72718,471.02152 C 493.34563,471.07875 492.93549,471.12644 492.49677,471.16459 C 492.07706,471.20274 491.58108,471.22182 491.00883,471.22182 C 488.98673,471.22182 487.48926,470.72584 486.5164,469.73388 C 485.56257,468.74192 484.99028,467.2826 484.79954,465.35591 L 484.62786,465.35591 C 483.55958,467.2826 482.18609,468.78008 480.50741,469.84834 C 478.84777,470.9166 476.8257,471.45073 474.4412,471.45073 M 483.79805,456.54273 L 479.6776,456.59996 C 478.81916,456.63812 477.99889,456.71443 477.21678,456.82887 C 476.45372,456.92427 475.77652,457.14364 475.18517,457.487 C 474.61287,457.81131 474.15505,458.28821 473.81169,458.91771 C 473.46831,459.54723 473.29662,460.40566 473.29663,461.49299 C 473.29662,462.96186 473.63045,464.05874 474.29813,464.78362 C 474.98486,465.48944 475.89097,465.84235 477.01648,465.84235 C 478.04658,465.84235 478.98131,465.62298 479.82067,465.18422 C 480.66,464.74548 481.36582,464.17319 481.93812,463.46737 C 482.52946,462.74248 482.98729,461.91267 483.31161,460.97793 C 483.63588,460.04321 483.79803,459.08941 483.79805,458.11651 L 483.79805,456.54273 M 526.00402,461.83636 C 526.00399,463.3243 525.68923,464.65963 525.05975,465.84235 C 524.44928,467.02507 523.5527,468.03611 522.37001,468.87545 C 521.18727,469.69573 519.73748,470.33478 518.02065,470.79261 C 516.30378,471.23136 514.34848,471.45073 512.15474,471.45073 C 510.18988,471.45073 508.4158,471.30766 506.8325,471.02152 C 505.24917,470.73538 503.85661,470.26801 502.65482,469.61942 C 501.47209,468.95176 500.48014,468.09333 499.67894,467.04414 C 498.87774,465.99496 498.27684,464.69779 497.87625,463.15261 L 504.94396,462.09389 C 505.17286,462.95232 505.48762,463.6486 505.88823,464.18272 C 506.28882,464.71686 506.78479,465.127 507.37617,465.41313 C 507.96751,465.69928 508.65425,465.89004 509.43639,465.98542 C 510.23757,466.0808 511.14369,466.12849 512.15474,466.12849 C 513.07038,466.12849 513.91926,466.0808 514.7014,465.98542 C 515.50258,465.87097 516.18932,465.68974 516.76163,465.44175 C 517.35297,465.17469 517.81079,464.81224 518.13511,464.35441 C 518.45938,463.87751 518.62153,463.28615 518.62155,462.58033 C 518.62153,461.77914 518.38308,461.14963 517.90619,460.69179 C 517.44835,460.2149 516.8093,459.83337 515.98904,459.54722 C 515.18783,459.24201 514.23402,458.98449 513.12762,458.77464 C 512.04027,458.54574 510.87662,458.28821 509.63669,458.00205 C 508.3395,457.71593 507.0614,457.37255 505.80238,456.97194 C 504.54335,456.57136 503.41786,456.02769 502.42591,455.34093 C 501.43394,454.65421 500.63275,453.78624 500.02231,452.73704 C 499.41187,451.66879 499.10666,450.32393 499.10666,448.70244 C 499.10666,447.2336 499.3928,445.92688 499.96509,444.78229 C 500.53736,443.61867 501.37671,442.63625 502.48314,441.83503 C 503.58954,441.01478 504.95349,440.39481 506.57497,439.9751 C 508.2155,439.53638 510.0945,439.31701 512.21197,439.31697 C 513.89065,439.31701 515.45489,439.47915 516.9047,439.80342 C 518.35446,440.10867 519.65164,440.60464 520.79623,441.29136 C 521.94077,441.95905 522.89458,442.81747 523.65765,443.86663 C 524.43974,444.91585 524.98341,446.18441 525.28866,447.67232 L 518.16372,448.41629 C 518.03017,447.67235 517.79172,447.06191 517.44837,446.58498 C 517.10498,446.08903 516.67576,445.69797 516.16073,445.4118 C 515.66473,445.12569 515.08291,444.93492 514.41526,444.83952 C 513.74758,444.72509 513.01315,444.66786 512.21197,444.66783 C 510.30434,444.66786 508.87363,444.91585 507.91984,445.4118 C 506.96602,445.88873 506.48911,446.69947 506.48913,447.84401 C 506.48911,448.54985 506.67988,449.11259 507.06141,449.53225 C 507.462,449.95194 508.0152,450.30485 508.72103,450.59097 C 509.44591,450.85806 510.2948,451.09651 511.2677,451.30633 C 512.25964,451.49711 513.33744,451.73556 514.5011,452.02168 C 515.93179,452.32692 517.33389,452.68937 518.70739,453.10902 C 520.09993,453.50964 521.33034,454.07239 522.39863,454.79726 C 523.48594,455.5031 524.3539,456.41875 525.00252,457.54423 C 525.67015,458.66973 526.00399,460.10044 526.00402,461.83636 M 548.78092,434.3381 L 548.78092,428.41496 L 556.82151,428.41496 L 556.82151,434.3381 L 548.78092,434.3381 M 548.78092,470.87845 L 548.78092,439.91787 L 556.82151,439.91787 L 556.82151,470.87845 L 548.78092,470.87845 M 585.09235,470.87845 L 585.09235,453.50962 C 585.09232,452.30784 584.99694,451.21097 584.80621,450.21899 C 584.61542,449.20798 584.30067,448.34955 583.86194,447.64371 C 583.42316,446.91884 582.85088,446.3561 582.14509,445.95547 C 581.43925,445.5549 580.58082,445.3546 579.56981,445.35457 C 578.59691,445.3546 577.70987,445.57397 576.90868,446.0127 C 576.12655,446.4324 575.44935,447.04284 574.87708,447.84401 C 574.30478,448.62615 573.85649,449.57042 573.53221,450.67682 C 573.22698,451.76418 573.07437,452.96597 573.07438,454.28221 L 573.07438,470.87845 L 565.03379,470.87845 L 565.03379,446.84251 C 565.03378,446.17487 565.02425,445.48813 565.00517,444.78229 C 565.00517,444.0765 564.98609,443.40883 564.94794,442.77929 C 564.92886,442.13073 564.90979,441.55845 564.89072,441.06244 C 564.87164,440.54742 564.84302,440.16589 564.80487,439.91787 L 572.47348,439.91787 C 572.51162,440.14682 572.54978,440.5188 572.58794,441.03383 C 572.62608,441.52984 572.66423,442.08304 572.7024,442.69345 C 572.74054,443.30392 572.76915,443.91435 572.78824,444.52476 C 572.82638,445.13522 572.84546,445.65028 572.84547,446.06993 L 572.95992,446.06993 C 574.04725,443.70451 575.41119,441.98766 577.05176,440.91937 C 578.69229,439.85114 580.64759,439.31701 582.91767,439.31697 C 584.78711,439.31701 586.36089,439.62222 587.63901,440.23263 C 588.93616,440.8431 589.98535,441.68245 590.78658,442.75068 C 591.60682,443.81897 592.19818,445.07799 592.56066,446.52776 C 592.92307,447.97757 593.1043,449.54181 593.10433,451.22049 L 593.10433,470.87845 L 585.09235,470.87845"
     id="text9949" />
  <rect
     style="opacity:1;fill:#ffffff;fill-opacity:1;stroke:none;stroke-opacity:1"
     id="rect5224"
     width="210"
     height="579.61627"
     x="880"
     y="80.383728" />
  <g
     id="g5219"
     transform="translate(-140,98.67353)">
    <path
       id="path14153"
       d="M 1210,457.97176 L 1210,541.1296 L 1128,541.1296 L 1210,457.97176 z "
       style="fill:#e04613;fill-opacity:1;fill-rule:evenodd;stroke:none;stroke-width:1px;stroke-linecap:butt;stroke-linejoin:miter;stroke-opacity:1" />
    <path
       id="path13182"
       d="M 1210,470 L 1210,541.32647 L 1140,541.32647 L 1210,470 z "
       style="fill:#ffffff;fill-opacity:1;fill-rule:evenodd;stroke:none;stroke-width:1px;stroke-linecap:butt;stroke-linejoin:miter;stroke-opacity:1" />
    <path
       id="path15124"
       d="M 1210,480 L 1210,541.28039 L 1150,541.28039 L 1210,480 z "
       style="fill:#262729;fill-opacity:1;fill-rule:evenodd;stroke:none;stroke-width:1px;stroke-linecap:butt;stroke-linejoin:miter;stroke-opacity:1" />
  </g>
  <rect
     style="opacity:1;fill:#e04613;fill-opacity:1;stroke:none;stroke-opacity:1"
     id="rect5226"
     width="290"
     height="80.000031"
     x="900"
     y="419.99997" />
  <rect
     style="opacity:1;fill:#e06f13;fill-opacity:1;stroke:none;stroke-opacity:1"
     id="rect6197"
     width="39.999939"
     height="220.00003"
     x="1240"
     y="279.99994" />
  <path
     style="font-size:56.54404449px;font-style:normal;font-weight:normal;fill:#ffffff;fill-opacity:1;stroke:none;stroke-width:1px;stroke-linecap:butt;stroke-linejoin:miter;stroke-opacity:1;font-family:FilosofiaUnicase"
     d="M 1045.0691,479.42772 L 1045.0691,436.96424 L 1052.5549,436.96424 L 1052.5549,479.42772 L 1045.0691,479.42772 M 1060.2006,442.88738 L 1060.2006,436.96424 L 1067.6863,436.96424 L 1067.6863,442.88738 L 1060.2006,442.88738 M 1060.2006,479.42772 L 1060.2006,448.46716 L 1067.6863,448.46716 L 1067.6863,479.42772 L 1060.2006,479.42772 M 1094.0065,479.42772 L 1094.0065,462.0589 C 1094.0065,460.85712 1093.9177,459.76024 1093.7401,458.76827 C 1093.5625,457.75726 1093.2695,456.89883 1092.861,456.19299 C 1092.4525,455.46812 1091.9197,454.90537 1091.2626,454.50475 C 1090.6055,454.10417 1089.8063,453.90388 1088.8651,453.90385 C 1087.9593,453.90388 1087.1335,454.12325 1086.3875,454.56198 C 1085.6593,454.98168 1085.0289,455.59212 1084.4961,456.39329 C 1083.9633,457.17543 1083.5459,458.1197 1083.244,459.2261 C 1082.9599,460.31346 1082.8177,461.51525 1082.8178,462.83148 L 1082.8178,479.42772 L 1075.332,479.42772 L 1075.332,455.39179 C 1075.332,454.72415 1075.3231,454.03741 1075.3053,453.33156 C 1075.3053,452.62578 1075.2876,451.95811 1075.2521,451.32858 C 1075.2343,450.68001 1075.2166,450.10773 1075.1988,449.61172 C 1075.1811,449.09669 1075.1543,448.71518 1075.1188,448.46716 L 1082.2584,448.46716 C 1082.2939,448.6961 1082.3294,449.06808 1082.3649,449.5831 C 1082.4004,450.07911 1082.4359,450.63233 1082.4714,451.24273 C 1082.507,451.85319 1082.5336,452.46363 1082.5514,453.07404 C 1082.5869,453.6845 1082.6047,454.19955 1082.6047,454.61921 L 1082.7112,454.61921 C 1083.7236,452.2538 1084.9934,450.53694 1086.5208,449.46865 C 1088.0481,448.40041 1089.8684,447.86629 1091.9819,447.86625 C 1093.7224,447.86629 1095.1876,448.1715 1096.3775,448.78191 C 1097.5851,449.39238 1098.5619,450.23172 1099.3079,451.29996 C 1100.0715,452.36825 1100.6221,453.62728 1100.9596,455.07704 C 1101.2969,456.52685 1101.4657,458.09109 1101.4657,459.76977 L 1101.4657,479.42772 L 1094.0065,479.42772 M 1115.7447,448.46716 L 1115.7447,465.83598 C 1115.7447,467.03779 1115.8335,468.1442 1116.0111,469.15523 C 1116.1886,470.14719 1116.4817,471.00562 1116.8902,471.73051 C 1117.2986,472.43632 1117.8226,472.98954 1118.4619,473.39013 C 1119.119,473.79074 1119.9182,473.99103 1120.8596,473.99103 C 1121.7653,473.99103 1122.5823,473.78119 1123.3104,473.36151 C 1124.0563,472.92277 1124.6956,472.31233 1125.2285,471.53021 C 1125.7613,470.72902 1126.1697,469.78475 1126.4539,468.6974 C 1126.7558,467.591 1126.9068,466.37966 1126.9068,465.0634 L 1126.9068,448.46716 L 1134.3925,448.46716 L 1134.3925,472.50309 C 1134.3925,473.15169 1134.3925,473.83842 1134.3925,474.56332 C 1134.4103,475.26913 1134.428,475.94633 1134.4459,476.59492 C 1134.4813,477.22443 1134.508,477.79672 1134.5258,478.31178 C 1134.5613,478.80775 1134.5879,479.17974 1134.6057,479.42772 L 1127.4662,479.42772 C 1127.4485,479.19882 1127.4129,478.83637 1127.3597,478.34039 C 1127.3241,477.82533 1127.2886,477.26258 1127.2531,476.65215 C 1127.2353,476.04171 1127.2087,475.43129 1127.1732,474.82084 C 1127.1554,474.21041 1127.1465,473.69536 1127.1465,473.27567 L 1127.0133,473.27567 C 1126.0188,475.62204 1124.7489,477.32936 1123.2038,478.39762 C 1121.6764,479.46588 1119.8561,480.00001 1117.7427,480.00001 C 1116.02,480.00001 1114.5547,479.69479 1113.3471,479.08436 C 1112.1394,478.47392 1111.1537,477.64411 1110.3901,476.59492 C 1109.6441,475.52666 1109.1024,474.26763 1108.765,472.81784 C 1108.4276,471.36806 1108.2588,469.80382 1108.2588,468.12511 L 1108.2588,448.46716 L 1115.7447,448.46716 M 1160.0468,479.42772 L 1153.3335,468.21096 L 1146.567,479.42772 L 1138.6016,479.42772 L 1149.151,463.43238 L 1139.1078,448.46716 L 1147.1798,448.46716 L 1153.3335,458.59658 L 1159.4607,448.46716 L 1167.5859,448.46716 L 1157.5426,463.34654 L 1168.172,479.42772 L 1160.0468,479.42772 M 1172.3011,479.42772 L 1172.3011,470.7004 L 1180,470.7004 L 1180,479.42772 L 1172.3011,479.42772"
     id="text8139" />
  <rect
     style="opacity:1;fill:#e04613;fill-opacity:1;stroke:none;stroke-opacity:1"
     id="rect8151"
     width="919.99994"
     height="30"
     x="6.1035156e-05"
     y="270" />
  <rect
     style="opacity:1;fill:#6c9eab;fill-opacity:1;stroke:none;stroke-opacity:1"
     id="rect8153"
     width="210"
     height="40"
     x="880"
     y="6.869505e-16" />
  <rect
     style="opacity:1;fill:#277699;fill-opacity:1;stroke:none;stroke-opacity:1"
     id="rect2207"
     width="210"
     height="39.999939"
     x="880"
     y="760.00006"
     inkscape:export-filename="/home/fabio/FreeAsInBeauty2.png"
     inkscape:export-xdpi="90"
     inkscape:export-ydpi="90" />
  <path
     style="font-size:58.60190201px;font-style:normal;font-weight:normal;fill:#e04613;fill-opacity:1;stroke:none;stroke-width:1px;stroke-linecap:butt;stroke-linejoin:miter;stroke-opacity:1;font-family:FilosofiaUnicase"
     d="M 646.41256,454.86876 C 646.41253,457.21514 646.17407,459.38027 645.6972,461.36418 C 645.23934,463.32903 644.52399,465.03634 643.55114,466.48613 C 642.57822,467.91684 641.33828,469.03279 639.83129,469.83399 C 638.34333,470.63519 636.57878,471.03578 634.53766,471.03579 C 633.62199,471.03578 632.70633,470.9404 631.7907,470.74964 C 630.87502,470.55888 630.00706,470.24413 629.1868,469.80537 C 628.36651,469.36662 627.61301,468.79434 626.92628,468.08852 C 626.23953,467.38271 625.64817,466.51474 625.1522,465.48463 L 625.09497,465.48463 C 625.09496,465.88523 625.07588,466.34306 625.03774,466.85811 C 625.01866,467.37317 624.99004,467.87869 624.9519,468.37466 C 624.91374,468.85157 624.86605,469.28078 624.80883,469.6623 C 624.77067,470.04383 624.73251,470.31089 624.69437,470.4635 L 616.88269,470.4635 C 616.93992,469.79584 616.98761,468.85157 617.02576,467.63069 C 617.08299,466.39075 617.1116,464.97912 617.11161,463.39579 L 617.11161,428.00001 L 625.1522,428.00001 L 625.1522,439.8463 C 625.15219,440.45676 625.14265,441.05766 625.12359,441.64899 C 625.12357,442.2213 625.11404,442.75544 625.09497,443.25139 C 625.07588,443.8237 625.05681,444.36737 625.03774,444.8824 L 625.1522,444.8824 C 626.12507,442.7459 627.4604,441.21981 629.15819,440.30412 C 630.85595,439.3885 632.82079,438.93067 635.05272,438.93064 C 637.03661,438.93067 638.74392,439.33127 640.17466,440.13244 C 641.60534,440.91459 642.77852,442.021 643.69421,443.45169 C 644.62891,444.86335 645.31565,446.54205 645.75443,448.48779 C 646.19315,450.43357 646.41253,452.56056 646.41256,454.86876 M 638.02859,454.86876 C 638.02857,451.35877 637.51351,448.75488 636.48343,447.05708 C 635.45329,445.35933 633.86044,444.51044 631.70485,444.51041 C 630.88456,444.51044 630.07383,444.67259 629.27265,444.99685 C 628.47143,445.32117 627.75608,445.89346 627.12658,446.71371 C 626.49705,447.51493 625.99154,448.60227 625.61003,449.97573 C 625.22849,451.33015 625.03773,453.047 625.03774,455.12628 C 625.03773,457.14837 625.22849,458.82707 625.61003,460.16239 C 625.99154,461.49772 626.48752,462.56599 627.09797,463.36718 C 627.70839,464.16838 628.4142,464.73113 629.21542,465.05542 C 630.0166,465.37971 630.82733,465.54186 631.64763,465.54186 C 633.68875,465.54186 635.26253,464.70251 636.36897,463.02381 C 637.47536,461.32604 638.02857,458.60769 638.02859,454.86876 M 665.61269,471.03579 C 663.38077,471.03578 661.36824,470.71149 659.57509,470.0629 C 657.801,469.39524 656.28445,468.39374 655.02543,467.05841 C 653.7664,465.70401 652.80306,464.01577 652.1354,461.99369 C 651.46773,459.95256 651.1339,457.56804 651.1339,454.84014 C 651.1339,451.88336 651.52496,449.39393 652.30708,447.37183 C 653.10828,445.34979 654.17654,443.71878 655.51188,442.4788 C 656.86627,441.21981 658.42098,440.31369 660.17599,439.76045 C 661.93098,439.20728 663.78137,438.93067 665.72715,438.93064 C 668.16888,438.93067 670.24817,439.35989 671.96505,440.21828 C 673.70095,441.05766 675.12212,442.24038 676.22856,443.76644 C 677.33495,445.29256 678.14569,447.12387 678.66077,449.26037 C 679.1758,451.37784 679.43332,453.7242 679.43336,456.29947 L 679.43336,456.52838 L 659.57509,456.52838 C 659.57508,457.82557 659.68954,459.0369 659.91846,460.16239 C 660.14737,461.26881 660.51935,462.23215 661.03442,463.05242 C 661.54946,463.85363 662.21713,464.49268 663.03741,464.96957 C 663.85767,465.42741 664.84963,465.65632 666.01329,465.65631 C 667.42491,465.65632 668.57901,465.36064 669.47561,464.76927 C 670.37217,464.15884 671.01122,463.22411 671.39276,461.96508 L 678.97553,462.62321 C 678.63213,463.50072 678.14569,464.43545 677.5162,465.4274 C 676.90574,466.41936 676.08547,467.33502 675.05538,468.17436 C 674.02524,468.99464 672.73761,469.68138 671.19246,470.23459 C 669.66635,470.76872 667.80643,471.03578 665.61269,471.03579 M 665.61269,443.99536 C 664.7924,443.99538 664.01982,444.13845 663.29494,444.42457 C 662.58911,444.69166 661.96914,445.13041 661.43502,445.74082 C 660.91995,446.33221 660.50027,447.10479 660.17599,448.05857 C 659.85169,449.0124 659.67046,450.15697 659.63232,451.49228 L 671.65029,451.49228 C 671.49766,448.99333 670.89676,447.12387 669.84759,445.88389 C 668.79839,444.6249 667.38675,443.99538 665.61269,443.99536 M 692.71035,471.03579 C 691.2224,471.03578 689.88707,470.83549 688.70436,470.43489 C 687.54071,470.01521 686.54875,469.41431 685.72848,468.63219 C 684.90821,467.831 684.27869,466.84858 683.83995,465.68493 C 683.40119,464.52129 683.18182,463.1955 683.18182,461.70755 C 683.18182,459.87625 683.49657,458.34063 684.12609,457.10066 C 684.77467,455.84165 685.65217,454.83062 686.75859,454.06756 C 687.865,453.28545 689.16218,452.72271 690.65013,452.37932 C 692.13806,452.01689 693.72137,451.82613 695.40009,451.80704 L 702.0672,451.69258 L 702.0672,450.1188 C 702.06718,448.99333 701.96226,448.0586 701.75244,447.31461 C 701.56166,446.55158 701.27552,445.93161 700.89401,445.45468 C 700.51247,444.9778 700.03557,444.64397 699.4633,444.45318 C 698.91008,444.24337 698.27103,444.13845 697.54615,444.13843 C 696.87847,444.13845 696.27757,444.20522 695.74346,444.33873 C 695.22839,444.47229 694.7801,444.71074 694.39859,445.05408 C 694.01705,445.3784 693.7023,445.82669 693.45432,446.39895 C 693.22539,446.95218 693.06325,447.658 692.96788,448.5164 L 684.58391,448.1158 C 684.81283,446.76142 685.2325,445.53101 685.84294,444.42457 C 686.45337,443.2991 687.29272,442.32622 688.36099,441.50592 C 689.44832,440.68568 690.77411,440.05616 692.33837,439.61738 C 693.92167,439.15959 695.77206,438.93067 697.88952,438.93064 C 699.81619,438.93067 701.53305,439.16912 703.04008,439.646 C 704.54707,440.12293 705.82517,440.83829 706.87438,441.79206 C 707.92355,442.72682 708.72474,443.88093 709.27798,445.25438 C 709.83116,446.62789 710.10776,448.22074 710.10779,450.03296 L 710.10779,461.30695 C 710.10776,462.03186 710.13638,462.68044 710.19363,463.25272 C 710.26991,463.82501 710.3939,464.31145 710.56562,464.71204 C 710.75635,465.09357 711.01388,465.38925 711.3382,465.59909 C 711.68154,465.78985 712.12029,465.88523 712.65445,465.88523 C 713.26486,465.88523 713.85622,465.828 714.42854,465.71354 L 714.42854,470.0629 C 713.9516,470.17736 713.52239,470.28228 713.1409,470.37766 C 712.75934,470.47304 712.37782,470.54934 711.99633,470.60657 C 711.61477,470.6638 711.20464,470.71149 710.76592,470.74964 C 710.34621,470.7878 709.85023,470.80687 709.27798,470.80687 C 707.25588,470.80687 705.75841,470.31089 704.78555,469.31893 C 703.83172,468.32698 703.25943,466.86765 703.06869,464.94096 L 702.89701,464.94096 C 701.82872,466.86765 700.45524,468.36513 698.77656,469.43339 C 697.11692,470.50165 695.09485,471.03578 692.71035,471.03579 M 702.0672,456.12778 L 697.94675,456.18501 C 697.08831,456.22318 696.26804,456.29948 695.48593,456.41392 C 694.72287,456.50932 694.04567,456.72869 693.45432,457.07205 C 692.88202,457.39636 692.4242,457.87326 692.08084,458.50276 C 691.73746,459.13229 691.56577,459.99071 691.56578,461.07804 C 691.56577,462.54691 691.8996,463.64379 692.56728,464.36867 C 693.25401,465.0745 694.16012,465.42741 695.28563,465.4274 C 696.31573,465.42741 697.25046,465.20803 698.08982,464.76927 C 698.92915,464.33053 699.63497,463.75824 700.20727,463.05242 C 700.79861,462.32754 701.25644,461.49772 701.58076,460.56298 C 701.90503,459.62826 702.06718,458.67446 702.0672,457.70156 L 702.0672,456.12778 M 725.75976,439.50293 L 725.75976,456.87175 C 725.75975,458.07356 725.85513,459.17998 726.04591,460.191 C 726.23666,461.18297 726.55141,462.04139 726.99018,462.76628 C 727.42891,463.4721 727.99166,464.02531 728.67841,464.4259 C 729.38422,464.82651 730.24264,465.02681 731.25369,465.0268 C 732.22656,465.02681 733.10406,464.81697 733.8862,464.39729 C 734.68738,463.95854 735.37412,463.34811 735.94642,462.56598 C 736.51869,461.76479 736.95744,460.82052 737.26268,459.73317 C 737.58695,458.62677 737.74909,457.41543 737.74912,456.09917 L 737.74912,439.50293 L 745.78971,439.50293 L 745.78971,463.53886 C 745.78968,464.18746 745.78968,464.8742 745.78971,465.59909 C 745.80876,466.30491 745.82783,466.98211 745.84694,467.63069 C 745.88506,468.26021 745.91367,468.83249 745.93278,469.34755 C 745.9709,469.84353 745.99952,470.21551 746.01863,470.4635 L 738.35002,470.4635 C 738.33092,470.23459 738.29276,469.87214 738.23556,469.37616 C 738.19738,468.86111 738.15923,468.29836 738.1211,467.68792 C 738.102,467.07749 738.07339,466.46705 738.03526,465.85661 C 738.01616,465.24618 738.00662,464.73113 738.00665,464.31145 L 737.86358,464.31145 C 736.79529,466.65781 735.43135,468.36513 733.77174,469.43339 C 732.13118,470.50165 730.17587,471.03578 727.90583,471.03579 C 726.05543,471.03578 724.48165,470.73057 723.18449,470.12013 C 721.8873,469.50969 720.82858,468.67988 720.00831,467.63069 C 719.20711,466.56243 718.62528,465.30341 718.26284,463.85362 C 717.90039,462.40384 717.71917,460.8396 717.71917,459.16089 L 717.71917,439.50293 L 725.75976,439.50293 M 761.92812,470.97856 C 759.56267,470.97856 757.7409,470.33951 756.46281,469.0614 C 755.1847,467.76423 754.54565,465.80893 754.54566,463.19549 L 754.54566,444.93963 L 750.62551,444.93963 L 750.62551,439.50293 L 754.94626,439.50293 L 757.46431,432.23492 L 762.50041,432.23492 L 762.50041,439.50293 L 768.36632,439.50293 L 768.36632,444.93963 L 762.50041,444.93963 L 762.50041,461.02081 C 762.5004,462.52783 762.78654,463.64379 763.35883,464.36867 C 763.93111,465.0745 764.81814,465.42741 766.01996,465.4274 C 766.51592,465.42741 766.96421,465.38925 767.36482,465.31294 C 767.76541,465.23664 768.21369,465.14126 768.70969,465.0268 L 768.70969,470.00567 C 767.71772,470.32997 766.66853,470.56842 765.56213,470.72103 C 764.4557,470.89271 763.24436,470.97856 761.92812,470.97856 M 789.51222,472.09451 C 788.76823,473.90674 788.01472,475.47098 787.25169,476.78724 C 786.48863,478.10349 785.63974,479.19083 784.70503,480.04926 C 783.78936,480.92675 782.74971,481.57534 781.58608,481.99503 C 780.4415,482.41469 779.10617,482.62453 777.58009,482.62454 C 776.74073,482.62453 775.88231,482.59591 775.00481,482.5387 C 774.1273,482.48146 773.29749,482.38608 772.51538,482.25256 L 772.51538,476.52971 C 772.89689,476.58694 773.35472,476.63463 773.88886,476.67278 C 774.44206,476.73001 774.90943,476.75862 775.29095,476.75863 C 776.07307,476.75862 776.76935,476.67278 777.37979,476.5011 C 777.99022,476.32941 778.54343,476.04327 779.03942,475.64267 C 779.53539,475.24207 779.99321,474.70794 780.4129,474.04028 C 780.85164,473.37261 781.27131,472.53326 781.67192,471.52223 L 782.18698,470.14874 L 769.9401,439.50293 L 778.43852,439.50293 L 783.30293,454.01033 C 783.37922,454.22018 783.49368,454.57309 783.6463,455.06906 C 783.81797,455.56505 783.9992,456.13733 784.18997,456.78591 C 784.3998,457.41543 784.60963,458.0831 784.81949,458.7889 C 785.02931,459.49473 785.22961,460.17193 785.42038,460.82051 C 785.61113,461.45003 785.77328,462.01278 785.90683,462.50875 C 786.04034,463.00474 786.13572,463.35765 786.19297,463.56748 C 786.25018,463.35765 786.33602,463.01428 786.4505,462.53736 C 786.58401,462.04139 786.72708,461.48819 786.87971,460.87774 C 787.05138,460.24824 787.2326,459.59011 787.42338,458.90336 C 787.61412,458.21663 787.79535,457.55851 787.96705,456.92898 C 788.13872,456.29948 788.29132,455.73674 788.42488,455.24074 C 788.57747,454.7257 788.69192,454.35372 788.76825,454.12479 L 793.34652,439.50293 L 801.7591,439.50293 L 789.51222,472.09451 M 801.73049,470.4635 L 801.73049,461.73617 L 809.99999,461.73617 L 809.99999,470.4635 L 801.73049,470.4635"
     id="text2205" />
  <path
     id="text2209"
     d="M 950.48371,491.46512 C 948.46644,491.46511 946.68486,491.25773 945.13894,490.84298 C 943.61185,490.44706 942.30158,489.88148 941.20813,489.14623 C 940.13351,488.42981 939.26629,487.56259 938.60645,486.54454 C 937.96544,485.54534 937.5224,484.44245 937.27732,483.23588 L 945.22378,482.30266 C 945.50656,483.52809 946.10984,484.48958 947.03365,485.18714 C 947.97627,485.88469 949.2017,486.23346 950.70994,486.23347 C 951.65256,486.23346 952.51037,486.1015 953.28335,485.83756 C 954.07515,485.57362 954.74442,485.12115 955.29117,484.48016 C 955.85673,483.85801 956.29034,483.02849 956.59201,481.99159 C 956.91249,480.95469 957.07274,479.6727 957.07276,478.14562 C 957.07274,477.61774 957.07274,477.08044 957.07276,476.53371 C 957.07274,475.98698 957.08217,475.48738 957.10104,475.03491 C 957.11987,474.50704 957.1293,473.99801 957.12932,473.50783 L 957.07276,473.50783 C 956.14895,475.48738 954.8481,476.92019 953.17023,477.80627 C 951.51116,478.69235 949.53163,479.13539 947.2316,479.13539 C 945.28975,479.13539 943.61185,478.75834 942.1979,478.00423 C 940.80278,477.23126 939.64334,476.16608 938.71956,474.80868 C 937.79577,473.43243 937.10764,471.80166 936.65518,469.91638 C 936.22156,468.01225 936.00476,465.91959 936.00476,463.63839 C 936.00476,461.28181 936.24042,459.15145 936.71174,457.24729 C 937.18305,455.32433 937.89946,453.67472 938.86096,452.29844 C 939.84129,450.92221 941.06673,449.86645 942.53725,449.13117 C 944.02661,448.37708 945.78935,448.00003 947.82546,448 C 949.86155,448.00003 951.68084,448.43364 953.28335,449.30084 C 954.90467,450.1681 956.1678,451.57263 957.07276,453.51444 L 957.21416,453.51444 C 957.21413,453.11856 957.22356,452.66609 957.24243,452.15704 C 957.28012,451.62919 957.31782,451.12959 957.35555,450.65824 C 957.39323,450.1681 957.43094,449.73448 957.46866,449.3574 C 957.52521,448.98037 957.57233,448.72586 957.61007,448.59386 L 965.13233,448.59386 C 965.09459,449.27259 965.05689,450.22466 965.01921,451.45006 C 964.98148,452.67552 964.96262,454.08005 964.96266,455.66366 L 964.96266,478.25874 C 964.96262,480.48337 964.64213,482.41578 964.00116,484.05597 C 963.36013,485.71501 962.4175,487.09127 961.17324,488.18474 C 959.94778,489.27819 958.43013,490.09828 956.6203,490.64503 C 954.82926,491.19175 952.78373,491.46511 950.48371,491.46512 M 957.12932,463.46872 C 957.1293,461.54575 956.94076,459.94326 956.56373,458.66125 C 956.18666,457.37929 955.69648,456.35181 955.09322,455.57882 C 954.4899,454.80588 953.79236,454.25915 953.00056,453.93863 C 952.22757,453.61816 951.44518,453.45791 950.65338,453.45788 C 949.63531,453.45791 948.73038,453.65586 947.93858,454.05175 C 947.1656,454.44768 946.50575,455.06039 945.95903,455.88989 C 945.41229,456.71944 944.99753,457.77519 944.71475,459.05716 C 944.43195,460.33917 944.29055,461.86625 944.29056,463.63839 C 944.29055,466.93764 944.81843,469.42621 945.8742,471.1041 C 946.92994,472.78201 948.50414,473.62095 950.59682,473.62095 C 951.38863,473.62095 952.17101,473.47013 952.94399,473.16848 C 953.73579,472.84799 954.44277,472.30126 955.06493,471.52829 C 955.68705,470.73648 956.18666,469.69015 956.56373,468.3893 C 956.94076,467.08847 957.1293,465.44828 957.12932,463.46872 M 992.90251,479.19195 L 992.90251,462.02648 C 992.90248,460.83877 992.80822,459.75474 992.61971,458.77437 C 992.43116,457.77519 992.12009,456.92682 991.6865,456.22924 C 991.25286,455.51286 990.68727,454.9567 989.98974,454.56077 C 989.29217,454.16489 988.44379,453.96693 987.44462,453.96691 C 986.4831,453.96693 985.60645,454.18374 984.81465,454.61733 C 984.04167,455.03211 983.3724,455.6354 982.80682,456.4272 C 982.24123,457.20018 981.79819,458.1334 981.47771,459.22684 C 981.17605,460.30147 981.02523,461.48919 981.02524,462.79002 L 981.02524,479.19195 L 973.07879,479.19195 L 973.07879,455.43743 C 973.07878,454.7776 973.06935,454.0989 973.05051,453.40132 C 973.0505,452.7038 973.03165,452.04395 972.99395,451.42178 C 972.97509,450.78081 972.95624,450.21523 972.93739,449.72503 C 972.91853,449.21603 972.89025,448.83898 972.85255,448.59386 L 980.43138,448.59386 C 980.46907,448.82012 980.50677,449.18775 980.54449,449.69675 C 980.58218,450.18695 980.61989,450.73368 980.65761,451.33694 C 980.6953,451.94026 980.72359,452.54355 980.74245,453.14681 C 980.78014,453.75013 980.799,454.25915 980.79901,454.67389 L 980.91213,454.67389 C 981.98672,452.33617 983.3347,450.63942 984.95605,449.58363 C 986.57737,448.52791 988.50978,448.00003 990.75328,448 C 992.60084,448.00003 994.15619,448.30167 995.41935,448.90493 C 996.7013,449.50825 997.7382,450.33777 998.5301,451.3935 C 999.3407,452.44928 999.9251,453.69357 1000.2834,455.12636 C 1000.6415,456.55919 1000.8207,458.10512 1000.8207,459.76414 L 1000.8207,479.19195 L 992.90251,479.19195 M 1015.9783,448.59386 L 1015.9783,465.75933 C 1015.9783,466.94707 1016.0726,468.04053 1016.2611,469.03972 C 1016.4496,470.02007 1016.7607,470.86845 1017.1943,471.58485 C 1017.6279,472.28241 1018.1841,472.82914 1018.8628,473.22504 C 1019.5603,473.62095 1020.4087,473.81891 1021.4079,473.8189 C 1022.3694,473.81891 1023.2366,473.61153 1024.0096,473.19676 C 1024.8014,472.76315 1025.4801,472.15986 1026.0457,471.38689 C 1026.6113,470.59508 1027.0449,469.66187 1027.3466,468.58725 C 1027.667,467.4938 1027.8273,466.29665 1027.8273,464.99579 L 1027.8273,448.59386 L 1035.7738,448.59386 L 1035.7738,472.34839 C 1035.7737,472.98939 1035.7737,473.66809 1035.7738,474.38449 C 1035.7926,475.08205 1035.8114,475.75132 1035.8303,476.39231 C 1035.868,477.01446 1035.8963,477.58004 1035.9152,478.08906 C 1035.9528,478.57924 1035.9811,478.94687 1036,479.19195 L 1028.4212,479.19195 C 1028.4023,478.96572 1028.3646,478.60752 1028.3081,478.11734 C 1028.2703,477.60832 1028.2326,477.05216 1028.1949,476.44887 C 1028.1761,475.84558 1028.1478,475.24229 1028.1101,474.639 C 1028.0912,474.03572 1028.0818,473.52669 1028.0818,473.11192 L 1027.9404,473.11192 C 1026.8846,475.43082 1025.5367,477.11815 1023.8965,478.1739 C 1022.2751,479.22966 1020.3427,479.75753 1018.0993,479.75754 C 1016.2705,479.75753 1014.7152,479.45589 1013.4332,478.8526 C 1012.1512,478.24931 1011.1049,477.42922 1010.2942,476.39231 C 1009.5024,475.33656 1008.9274,474.09227 1008.5692,472.65946 C 1008.211,471.22665 1008.0319,469.68072 1008.0319,468.02167 L 1008.0319,448.59386 L 1015.9783,448.59386"
     style="font-size:72px;font-style:normal;font-weight:bold;fill:#e68924;fill-opacity:1;stroke:none;stroke-width:1px;stroke-linecap:butt;stroke-linejoin:miter;stroke-opacity:1;font-family:Liberation Sans" />
</svg>
