<?xml version="1.0" encoding="UTF-8" standalone="no"?>
<!-- Created with Inkscape (http://www.inkscape.org/) -->
<svg
   xmlns:dc="http://purl.org/dc/elements/1.1/"
   xmlns:cc="http://web.resource.org/cc/"
   xmlns:rdf="http://www.w3.org/1999/02/22-rdf-syntax-ns#"
   xmlns:svg="http://www.w3.org/2000/svg"
   xmlns="http://www.w3.org/2000/svg"
   xmlns:xlink="http://www.w3.org/1999/xlink"
   xmlns:sodipodi="http://sodipodi.sourceforge.net/DTD/sodipodi-0.dtd"
   xmlns:inkscape="http://www.inkscape.org/namespaces/inkscape"
   id="svg2"
   sodipodi:version="0.32"
   inkscape:version="0.45.1"
   width="1280"
   height="1024"
   version="1.0"
   sodipodi:docbase="/home/fabio/Imagens/Wallpapers/Elegant Brit"
   sodipodi:docname="3.svg"
   inkscape:output_extension="org.inkscape.output.svg.inkscape">
  <metadata
     id="metadata7">
    <rdf:RDF>
      <cc:Work
         rdf:about="">
        <dc:format>image/svg+xml</dc:format>
        <dc:type
           rdf:resource="http://purl.org/dc/dcmitype/StillImage" />
      </cc:Work>
    </rdf:RDF>
  </metadata>
  <defs
     id="defs5">
    <linearGradient
       y2="803.17938"
       x2="959.54059"
       y1="771.59735"
       x1="959.54059"
       gradientUnits="userSpaceOnUse"
       id="linearGradient13429"
       xlink:href="#linearGradient5254"
       inkscape:collect="always" />
    <linearGradient
       y2="803.17938"
       x2="959.54059"
       y1="771.59735"
       x1="959.54059"
       gradientUnits="userSpaceOnUse"
       id="linearGradient5981"
       xlink:href="#linearGradient5254"
       inkscape:collect="always" />
    <linearGradient
       y2="810.34253"
       x2="959.54059"
       y1="771.60901"
       x1="959.54059"
       gradientUnits="userSpaceOnUse"
       id="linearGradient5885"
       xlink:href="#linearGradient5314"
       inkscape:collect="always" />
    <linearGradient
       y2="810.34253"
       x2="959.54059"
       y1="771.60901"
       x1="959.54059"
       gradientUnits="userSpaceOnUse"
       id="linearGradient5883"
       xlink:href="#linearGradient5320"
       inkscape:collect="always" />
    <linearGradient
       y2="803.17938"
       x2="959.54059"
       y1="771.59735"
       x1="959.54059"
       gradientUnits="userSpaceOnUse"
       id="linearGradient5881"
       xlink:href="#linearGradient5254"
       inkscape:collect="always" />
    <linearGradient
       y2="803.17938"
       x2="959.54059"
       y1="771.59735"
       x1="959.54059"
       gradientUnits="userSpaceOnUse"
       id="linearGradient4788"
       xlink:href="#linearGradient5254"
       inkscape:collect="always" />
    <linearGradient
       y2="803.17938"
       x2="959.54059"
       y1="771.59735"
       x1="959.54059"
       gradientUnits="userSpaceOnUse"
       id="linearGradient2689"
       xlink:href="#linearGradient5254"
       inkscape:collect="always" />
    <linearGradient
       y2="803.17938"
       x2="959.54059"
       y1="771.59735"
       x1="959.54059"
       gradientUnits="userSpaceOnUse"
       id="linearGradient2536"
       xlink:href="#linearGradient5254"
       inkscape:collect="always" />
    <linearGradient
       gradientUnits="userSpaceOnUse"
       y2="803.17938"
       x2="959.54059"
       y1="771.59735"
       x1="959.54059"
       id="linearGradient5260"
       xlink:href="#linearGradient5254"
       inkscape:collect="always" />
    <linearGradient
       id="linearGradient5254">
      <stop
         id="stop5256"
         offset="0"
         style="stop-color:#c0c0c0;stop-opacity:0.38403043" />
      <stop
         id="stop5258"
         offset="1"
         style="stop-color:#000000;stop-opacity:0" />
    </linearGradient>
    <linearGradient
       id="linearGradient5320">
      <stop
         style="stop-color:#c0c0c0;stop-opacity:0.30038023"
         offset="0"
         id="stop5322" />
      <stop
         style="stop-color:#000000;stop-opacity:0"
         offset="1"
         id="stop5324" />
    </linearGradient>
    <linearGradient
       id="linearGradient5314">
      <stop
         style="stop-color:#c0c0c0;stop-opacity:0.30038023"
         offset="0"
         id="stop5316" />
      <stop
         style="stop-color:#000000;stop-opacity:0"
         offset="1"
         id="stop5318" />
    </linearGradient>
    <linearGradient
       id="linearGradient3811">
      <stop
         id="stop3813"
         offset="0"
         style="stop-color:#5b5e63;stop-opacity:1;" />
      <stop
         style="stop-color:#404246;stop-opacity:0.49803922;"
         offset="0.5"
         id="stop8487" />
      <stop
         id="stop3815"
         offset="1"
         style="stop-color:#262729;stop-opacity:0;" />
    </linearGradient>
    <linearGradient
       id="linearGradient8490">
      <stop
         id="stop8492"
         offset="0"
         style="stop-color:#8e8e8e;stop-opacity:1;" />
      <stop
         id="stop8494"
         offset="1"
         style="stop-color:#262729;stop-opacity:0;" />
    </linearGradient>
    <linearGradient
       id="linearGradient13375">
      <stop
         id="stop13377"
         offset="0"
         style="stop-color:#5b5f62;stop-opacity:1;" />
      <stop
         id="stop13379"
         offset="1"
         style="stop-color:#666a6e;stop-opacity:0;" />
    </linearGradient>
    <linearGradient
       id="linearGradient13393">
      <stop
         id="stop13395"
         offset="0"
         style="stop-color:#95999d;stop-opacity:1;" />
      <stop
         id="stop13397"
         offset="1"
         style="stop-color:#676b70;stop-opacity:1;" />
    </linearGradient>
  </defs>
  <sodipodi:namedview
     inkscape:window-height="684"
     inkscape:window-width="995"
     inkscape:pageshadow="2"
     inkscape:pageopacity="0.0"
     guidetolerance="10.0"
     gridtolerance="10.0"
     objecttolerance="10.0"
     borderopacity="1.0"
     bordercolor="#666666"
     pagecolor="#ffffff"
     id="base"
     width="1280px"
     height="1024px"
     showgrid="true"
     inkscape:zoom="1"
     inkscape:cx="818.63498"
     inkscape:cy="512"
     inkscape:window-x="245"
     inkscape:window-y="38"
     inkscape:current-layer="svg2"
     showguides="true"
     inkscape:guide-bbox="true" />
  <rect
     style="opacity:1;fill:#262729;fill-opacity:1;stroke:none;stroke-opacity:1"
     id="rect2159"
     width="1279.8892"
     height="1024"
     x="0.11081791"
     y="0"
     inkscape:export-filename="/home/fabio/Imagens/Wallpapers/Elegant Brit/FreeAsInBeauty.png"
     inkscape:export-xdpi="90"
     inkscape:export-ydpi="90" />
  <rect
     style="opacity:1;fill:#e06f13;fill-opacity:1;stroke:none;stroke-opacity:1"
     id="rect6197"
     width="139.99994"
     height="140"
     x="560.00006"
     y="524" />
  <rect
     style="opacity:1;fill:#e04613;fill-opacity:1;stroke:none;stroke-opacity:1"
     id="rect8151"
     width="120"
     height="120"
     x="440"
     y="404" />
  <rect
     style="opacity:1;fill:#6c9eab;fill-opacity:1;stroke:none;stroke-opacity:1"
     id="rect8153"
     width="220"
     height="220"
     x="220"
     y="524" />
  <rect
     style="opacity:1;fill:#277699;fill-opacity:1;stroke:none;stroke-opacity:1"
     id="rect2207"
     width="220"
     height="220"
     x="700"
     y="304"
     inkscape:export-filename="/home/fabio/FreeAsInBeauty2.png"
     inkscape:export-xdpi="90"
     inkscape:export-ydpi="90" />
  <rect
     style="opacity:1;fill:#e04613;fill-opacity:1;stroke:none;stroke-opacity:1"
     id="rect2210"
     width="260"
     height="260"
     x="700"
     y="664" />
  <rect
     style="opacity:1;fill:#6c9eab;fill-opacity:1;stroke:none;stroke-opacity:1"
     id="rect2212"
     width="220"
     height="220"
     x="960"
     y="444" />
  <rect
     style="opacity:1;fill:#277699;fill-opacity:1;stroke:none;stroke-opacity:1"
     id="rect2214"
     width="160"
     height="160"
     x="280"
     y="244"
     inkscape:export-filename="/home/fabio/FreeAsInBeauty2.png"
     inkscape:export-xdpi="90"
     inkscape:export-ydpi="90" />
  <rect
     style="opacity:1;fill:#e06f13;fill-opacity:1;stroke:none;stroke-opacity:1"
     id="rect2216"
     width="200"
     height="200"
     x="20"
     y="744" />
  <rect
     style="opacity:1;fill:#e04613;fill-opacity:1;stroke:none;stroke-opacity:1"
     id="rect2220"
     width="160"
     height="160"
     x="920"
     y="144" />
  <rect
     style="opacity:1;fill:#e06f13;fill-opacity:1;stroke:none;stroke-opacity:1"
     id="rect2224"
     width="99.999939"
     height="100"
     x="1180"
     y="664" />
  <rect
     style="opacity:1;fill:#6c9eab;fill-opacity:1;stroke:none;stroke-opacity:1"
     id="rect2226"
     width="100.00001"
     height="100"
     x="180"
     y="144" />
  <rect
     style="opacity:1;fill:#e04613;fill-opacity:1;stroke:none;stroke-opacity:1"
     id="rect2228"
     width="120"
     height="120"
     x="100"
     y="404" />
  <rect
     style="opacity:1;fill:#ffffff;fill-opacity:1;stroke:none;stroke-opacity:1"
     id="rect44296"
     width="560"
     height="80"
     x="220"
     y="524" />
  <path
     style="font-size:58.60190201px;font-style:normal;font-weight:normal;fill:#e04613;fill-opacity:1;stroke:none;stroke-width:1px;stroke-linecap:butt;stroke-linejoin:miter;stroke-opacity:1;font-family:FilosofiaUnicase"
     d="M 596.41256,568.86876 C 596.41253,571.21514 596.17407,573.38027 595.6972,575.36418 C 595.23934,577.32903 594.52399,579.03634 593.55114,580.48613 C 592.57822,581.91684 591.33828,583.03279 589.83129,583.83399 C 588.34333,584.63519 586.57878,585.03578 584.53766,585.03579 C 583.62199,585.03578 582.70633,584.9404 581.7907,584.74964 C 580.87502,584.55888 580.00706,584.24413 579.1868,583.80537 C 578.36651,583.36662 577.61301,582.79434 576.92628,582.08852 C 576.23953,581.38271 575.64817,580.51474 575.1522,579.48463 L 575.09497,579.48463 C 575.09496,579.88523 575.07588,580.34306 575.03774,580.85811 C 575.01866,581.37317 574.99004,581.87869 574.9519,582.37466 C 574.91374,582.85157 574.86605,583.28078 574.80883,583.6623 C 574.77067,584.04383 574.73251,584.31089 574.69437,584.4635 L 566.88269,584.4635 C 566.93992,583.79584 566.98761,582.85157 567.02576,581.63069 C 567.08299,580.39075 567.1116,578.97912 567.11161,577.39579 L 567.11161,542.00001 L 575.1522,542.00001 L 575.1522,553.8463 C 575.15219,554.45676 575.14265,555.05766 575.12359,555.64899 C 575.12357,556.2213 575.11404,556.75544 575.09497,557.25139 C 575.07588,557.8237 575.05681,558.36737 575.03774,558.8824 L 575.1522,558.8824 C 576.12507,556.7459 577.4604,555.21981 579.15819,554.30412 C 580.85595,553.3885 582.82079,552.93067 585.05272,552.93064 C 587.03661,552.93067 588.74392,553.33127 590.17466,554.13244 C 591.60534,554.91459 592.77852,556.021 593.69421,557.45169 C 594.62891,558.86335 595.31565,560.54205 595.75443,562.48779 C 596.19315,564.43357 596.41253,566.56056 596.41256,568.86876 M 588.02859,568.86876 C 588.02857,565.35877 587.51351,562.75488 586.48343,561.05708 C 585.45329,559.35933 583.86044,558.51044 581.70485,558.51041 C 580.88456,558.51044 580.07383,558.67259 579.27265,558.99685 C 578.47143,559.32117 577.75608,559.89346 577.12658,560.71371 C 576.49705,561.51493 575.99154,562.60227 575.61003,563.97573 C 575.22849,565.33015 575.03773,567.047 575.03774,569.12628 C 575.03773,571.14837 575.22849,572.82707 575.61003,574.16239 C 575.99154,575.49772 576.48752,576.56599 577.09797,577.36718 C 577.70839,578.16838 578.4142,578.73113 579.21542,579.05542 C 580.0166,579.37971 580.82733,579.54186 581.64763,579.54186 C 583.68875,579.54186 585.26253,578.70251 586.36897,577.02381 C 587.47536,575.32604 588.02857,572.60769 588.02859,568.86876 M 615.61269,585.03579 C 613.38077,585.03578 611.36824,584.71149 609.57509,584.0629 C 607.801,583.39524 606.28445,582.39374 605.02543,581.05841 C 603.7664,579.70401 602.80306,578.01577 602.1354,575.99369 C 601.46773,573.95256 601.1339,571.56804 601.1339,568.84014 C 601.1339,565.88336 601.52496,563.39393 602.30708,561.37183 C 603.10828,559.34979 604.17654,557.71878 605.51188,556.4788 C 606.86627,555.21981 608.42098,554.31369 610.17599,553.76045 C 611.93098,553.20728 613.78137,552.93067 615.72715,552.93064 C 618.16888,552.93067 620.24817,553.35989 621.96505,554.21828 C 623.70095,555.05766 625.12212,556.24038 626.22856,557.76644 C 627.33495,559.29256 628.14569,561.12387 628.66077,563.26037 C 629.1758,565.37784 629.43332,567.7242 629.43336,570.29947 L 629.43336,570.52838 L 609.57509,570.52838 C 609.57508,571.82557 609.68954,573.0369 609.91846,574.16239 C 610.14737,575.26881 610.51935,576.23215 611.03442,577.05242 C 611.54946,577.85363 612.21713,578.49268 613.03741,578.96957 C 613.85767,579.42741 614.84963,579.65632 616.01329,579.65631 C 617.42491,579.65632 618.57901,579.36064 619.47561,578.76927 C 620.37217,578.15884 621.01122,577.22411 621.39276,575.96508 L 628.97553,576.62321 C 628.63213,577.50072 628.14569,578.43545 627.5162,579.4274 C 626.90574,580.41936 626.08547,581.33502 625.05538,582.17436 C 624.02524,582.99464 622.73761,583.68138 621.19246,584.23459 C 619.66635,584.76872 617.80643,585.03578 615.61269,585.03579 M 615.61269,557.99536 C 614.7924,557.99538 614.01982,558.13845 613.29494,558.42457 C 612.58911,558.69166 611.96914,559.13041 611.43502,559.74082 C 610.91995,560.33221 610.50027,561.10479 610.17599,562.05857 C 609.85169,563.0124 609.67046,564.15697 609.63232,565.49228 L 621.65029,565.49228 C 621.49766,562.99333 620.89676,561.12387 619.84759,559.88389 C 618.79839,558.6249 617.38675,557.99538 615.61269,557.99536 M 642.71035,585.03579 C 641.2224,585.03578 639.88707,584.83549 638.70436,584.43489 C 637.54071,584.01521 636.54875,583.41431 635.72848,582.63219 C 634.90821,581.831 634.27869,580.84858 633.83995,579.68493 C 633.40119,578.52129 633.18182,577.1955 633.18182,575.70755 C 633.18182,573.87625 633.49657,572.34063 634.12609,571.10066 C 634.77467,569.84165 635.65217,568.83062 636.75859,568.06756 C 637.865,567.28545 639.16218,566.72271 640.65013,566.37932 C 642.13806,566.01689 643.72137,565.82613 645.40009,565.80704 L 652.0672,565.69258 L 652.0672,564.1188 C 652.06718,562.99333 651.96226,562.0586 651.75244,561.31461 C 651.56166,560.55158 651.27552,559.93161 650.89401,559.45468 C 650.51247,558.9778 650.03557,558.64397 649.4633,558.45318 C 648.91008,558.24337 648.27103,558.13845 647.54615,558.13843 C 646.87847,558.13845 646.27757,558.20522 645.74346,558.33873 C 645.22839,558.47229 644.7801,558.71074 644.39859,559.05408 C 644.01705,559.3784 643.7023,559.82669 643.45432,560.39895 C 643.22539,560.95218 643.06325,561.658 642.96788,562.5164 L 634.58391,562.1158 C 634.81283,560.76142 635.2325,559.53101 635.84294,558.42457 C 636.45337,557.2991 637.29272,556.32622 638.36099,555.50592 C 639.44832,554.68568 640.77411,554.05616 642.33837,553.61738 C 643.92167,553.15959 645.77206,552.93067 647.88952,552.93064 C 649.81619,552.93067 651.53305,553.16912 653.04008,553.646 C 654.54707,554.12293 655.82517,554.83829 656.87438,555.79206 C 657.92355,556.72682 658.72474,557.88093 659.27798,559.25438 C 659.83116,560.62789 660.10776,562.22074 660.10779,564.03296 L 660.10779,575.30695 C 660.10776,576.03186 660.13638,576.68044 660.19363,577.25272 C 660.26991,577.82501 660.3939,578.31145 660.56562,578.71204 C 660.75635,579.09357 661.01388,579.38925 661.3382,579.59909 C 661.68154,579.78985 662.12029,579.88523 662.65445,579.88523 C 663.26486,579.88523 663.85622,579.828 664.42854,579.71354 L 664.42854,584.0629 C 663.9516,584.17736 663.52239,584.28228 663.1409,584.37766 C 662.75934,584.47304 662.37782,584.54934 661.99633,584.60657 C 661.61477,584.6638 661.20464,584.71149 660.76592,584.74964 C 660.34621,584.7878 659.85023,584.80687 659.27798,584.80687 C 657.25588,584.80687 655.75841,584.31089 654.78555,583.31893 C 653.83172,582.32698 653.25943,580.86765 653.06869,578.94096 L 652.89701,578.94096 C 651.82872,580.86765 650.45524,582.36513 648.77656,583.43339 C 647.11692,584.50165 645.09485,585.03578 642.71035,585.03579 M 652.0672,570.12778 L 647.94675,570.18501 C 647.08831,570.22318 646.26804,570.29948 645.48593,570.41392 C 644.72287,570.50932 644.04567,570.72869 643.45432,571.07205 C 642.88202,571.39636 642.4242,571.87326 642.08084,572.50276 C 641.73746,573.13229 641.56577,573.99071 641.56578,575.07804 C 641.56577,576.54691 641.8996,577.64379 642.56728,578.36867 C 643.25401,579.0745 644.16012,579.42741 645.28563,579.4274 C 646.31573,579.42741 647.25046,579.20803 648.08982,578.76927 C 648.92915,578.33053 649.63497,577.75824 650.20727,577.05242 C 650.79861,576.32754 651.25644,575.49772 651.58076,574.56298 C 651.90503,573.62826 652.06718,572.67446 652.0672,571.70156 L 652.0672,570.12778 M 675.75976,553.50293 L 675.75976,570.87175 C 675.75975,572.07356 675.85513,573.17998 676.04591,574.191 C 676.23666,575.18297 676.55141,576.04139 676.99018,576.76628 C 677.42891,577.4721 677.99166,578.02531 678.67841,578.4259 C 679.38422,578.82651 680.24264,579.02681 681.25369,579.0268 C 682.22656,579.02681 683.10406,578.81697 683.8862,578.39729 C 684.68738,577.95854 685.37412,577.34811 685.94642,576.56598 C 686.51869,575.76479 686.95744,574.82052 687.26268,573.73317 C 687.58695,572.62677 687.74909,571.41543 687.74912,570.09917 L 687.74912,553.50293 L 695.78971,553.50293 L 695.78971,577.53886 C 695.78968,578.18746 695.78968,578.8742 695.78971,579.59909 C 695.80876,580.30491 695.82783,580.98211 695.84694,581.63069 C 695.88506,582.26021 695.91367,582.83249 695.93278,583.34755 C 695.9709,583.84353 695.99952,584.21551 696.01863,584.4635 L 688.35002,584.4635 C 688.33092,584.23459 688.29276,583.87214 688.23556,583.37616 C 688.19738,582.86111 688.15923,582.29836 688.1211,581.68792 C 688.102,581.07749 688.07339,580.46705 688.03526,579.85661 C 688.01616,579.24618 688.00662,578.73113 688.00665,578.31145 L 687.86358,578.31145 C 686.79529,580.65781 685.43135,582.36513 683.77174,583.43339 C 682.13118,584.50165 680.17587,585.03578 677.90583,585.03579 C 676.05543,585.03578 674.48165,584.73057 673.18449,584.12013 C 671.8873,583.50969 670.82858,582.67988 670.00831,581.63069 C 669.20711,580.56243 668.62528,579.30341 668.26284,577.85362 C 667.90039,576.40384 667.71917,574.8396 667.71917,573.16089 L 667.71917,553.50293 L 675.75976,553.50293 M 711.92812,584.97856 C 709.56267,584.97856 707.7409,584.33951 706.46281,583.0614 C 705.1847,581.76423 704.54565,579.80893 704.54566,577.19549 L 704.54566,558.93963 L 700.62551,558.93963 L 700.62551,553.50293 L 704.94626,553.50293 L 707.46431,546.23492 L 712.50041,546.23492 L 712.50041,553.50293 L 718.36632,553.50293 L 718.36632,558.93963 L 712.50041,558.93963 L 712.50041,575.02081 C 712.5004,576.52783 712.78654,577.64379 713.35883,578.36867 C 713.93111,579.0745 714.81814,579.42741 716.01996,579.4274 C 716.51592,579.42741 716.96421,579.38925 717.36482,579.31294 C 717.76541,579.23664 718.21369,579.14126 718.70969,579.0268 L 718.70969,584.00567 C 717.71772,584.32997 716.66853,584.56842 715.56213,584.72103 C 714.4557,584.89271 713.24436,584.97856 711.92812,584.97856 M 739.51222,586.09451 C 738.76823,587.90674 738.01472,589.47098 737.25169,590.78724 C 736.48863,592.10349 735.63974,593.19083 734.70503,594.04926 C 733.78936,594.92675 732.74971,595.57534 731.58608,595.99503 C 730.4415,596.41469 729.10617,596.62453 727.58009,596.62454 C 726.74073,596.62453 725.88231,596.59591 725.00481,596.5387 C 724.1273,596.48146 723.29749,596.38608 722.51538,596.25256 L 722.51538,590.52971 C 722.89689,590.58694 723.35472,590.63463 723.88886,590.67278 C 724.44206,590.73001 724.90943,590.75862 725.29095,590.75863 C 726.07307,590.75862 726.76935,590.67278 727.37979,590.5011 C 727.99022,590.32941 728.54343,590.04327 729.03942,589.64267 C 729.53539,589.24207 729.99321,588.70794 730.4129,588.04028 C 730.85164,587.37261 731.27131,586.53326 731.67192,585.52223 L 732.18698,584.14874 L 719.9401,553.50293 L 728.43852,553.50293 L 733.30293,568.01033 C 733.37922,568.22018 733.49368,568.57309 733.6463,569.06906 C 733.81797,569.56505 733.9992,570.13733 734.18997,570.78591 C 734.3998,571.41543 734.60963,572.0831 734.81949,572.7889 C 735.02931,573.49473 735.22961,574.17193 735.42038,574.82051 C 735.61113,575.45003 735.77328,576.01278 735.90683,576.50875 C 736.04034,577.00474 736.13572,577.35765 736.19297,577.56748 C 736.25018,577.35765 736.33602,577.01428 736.4505,576.53736 C 736.58401,576.04139 736.72708,575.48819 736.87971,574.87774 C 737.05138,574.24824 737.2326,573.59011 737.42338,572.90336 C 737.61412,572.21663 737.79535,571.55851 737.96705,570.92898 C 738.13872,570.29948 738.29132,569.73674 738.42488,569.24074 C 738.57747,568.7257 738.69192,568.35372 738.76825,568.12479 L 743.34652,553.50293 L 751.7591,553.50293 L 739.51222,586.09451 M 751.73049,584.4635 L 751.73049,575.73617 L 759.99999,575.73617 L 759.99999,584.4635 L 751.73049,584.4635"
     id="text9949" />
  <rect
     style="opacity:1;fill:#ffffff;fill-opacity:1;stroke:none;stroke-opacity:1"
     id="rect5224"
     width="320"
     height="150"
     x="780"
     y="604" />
  <g
     id="g5219"
     transform="matrix(0.7560979,0,0,0.7198154,165.12154,344.34487)">
    <path
       id="path14153"
       d="M 1210,457.97176 L 1210,541.1296 L 1128,541.1296 L 1210,457.97176 z "
       style="fill:#e04613;fill-opacity:1;fill-rule:evenodd;stroke:none;stroke-width:1px;stroke-linecap:butt;stroke-linejoin:miter;stroke-opacity:1" />
    <path
       id="path13182"
       d="M 1210,470 L 1210,541.32647 L 1140,541.32647 L 1210,470 z "
       style="fill:#ffffff;fill-opacity:1;fill-rule:evenodd;stroke:none;stroke-width:1px;stroke-linecap:butt;stroke-linejoin:miter;stroke-opacity:1" />
    <path
       id="path15124"
       d="M 1210,480 L 1210,541.28039 L 1150,541.28039 L 1210,480 z "
       style="fill:#262729;fill-opacity:1;fill-rule:evenodd;stroke:none;stroke-width:1px;stroke-linecap:butt;stroke-linejoin:miter;stroke-opacity:1" />
  </g>
  <rect
     style="opacity:1;fill:#e04613;fill-opacity:1;stroke:none;stroke-opacity:1"
     id="rect5226"
     width="320"
     height="80"
     x="780"
     y="524" />
  <path
     style="font-size:56.54404449px;font-style:normal;font-weight:normal;fill:#ffffff;fill-opacity:1;stroke:none;stroke-width:1px;stroke-linecap:butt;stroke-linejoin:miter;stroke-opacity:1;font-family:FilosofiaUnicase"
     d="M 945.06906,584.46347 L 945.06906,541.99998 L 952.55487,541.99998 L 952.55487,584.46347 L 945.06906,584.46347 M 960.20051,547.92312 L 960.20051,541.99998 L 967.68631,541.99998 L 967.68631,547.92312 L 960.20051,547.92312 M 960.20051,584.46347 L 960.20051,553.5029 L 967.68631,553.5029 L 967.68631,584.46347 L 960.20051,584.46347 M 994.00651,584.46347 L 994.00651,567.09465 C 994.00648,565.89286 993.91768,564.79599 993.7401,563.80401 C 993.56249,562.793 993.26944,561.93458 992.86099,561.22873 C 992.4525,560.50387 991.9197,559.94111 991.2626,559.5405 C 990.60547,559.13992 989.80627,558.93963 988.86501,558.93959 C 987.95924,558.93963 987.13341,559.159 986.3875,559.59773 C 985.65934,560.01742 985.02886,560.62786 984.49607,561.42903 C 983.96326,562.21118 983.5459,563.15545 983.244,564.26184 C 982.95983,565.3492 982.81775,566.551 982.81776,567.86723 L 982.81776,584.46347 L 975.33196,584.46347 L 975.33196,560.42753 C 975.33195,559.7599 975.32307,559.07315 975.30532,558.36731 C 975.30532,557.66152 975.28755,556.99386 975.25204,556.36432 C 975.23427,555.71576 975.21651,555.14347 975.19876,554.64746 C 975.18099,554.13244 975.15435,553.75092 975.11884,553.5029 L 982.25832,553.5029 C 982.29383,553.73184 982.32936,554.10382 982.36488,554.61885 C 982.40039,555.11486 982.43591,555.66807 982.47144,556.27848 C 982.50695,556.88894 982.53359,557.49938 982.55137,558.10978 C 982.58687,558.72025 982.60463,559.2353 982.60464,559.65495 L 982.7112,559.65495 C 983.72351,557.28954 984.99333,555.57268 986.52071,554.5044 C 988.04804,553.43616 989.86843,552.90203 991.98187,552.902 C 993.72232,552.90203 995.18752,553.20725 996.37745,553.81765 C 997.5851,554.42812 998.56189,555.26746 999.30784,556.33571 C 1000.0715,557.40399 1000.622,558.66302 1000.9595,560.11278 C 1001.2969,561.56259 1001.4656,563.12683 1001.4657,564.80551 L 1001.4657,584.46347 L 994.00651,584.46347 M 1015.7446,553.5029 L 1015.7446,570.87172 C 1015.7446,572.07353 1015.8334,573.17995 1016.011,574.19097 C 1016.1886,575.18294 1016.4817,576.04137 1016.8901,576.76625 C 1017.2986,577.47207 1017.8225,578.02529 1018.4619,578.42587 C 1019.119,578.82648 1019.9182,579.02677 1020.8595,579.02677 C 1021.7652,579.02677 1022.5822,578.81695 1023.3104,578.39726 C 1024.0563,577.95851 1024.6956,577.34807 1025.2284,576.56595 C 1025.7612,575.76477 1026.1697,574.8205 1026.4539,573.73314 C 1026.7558,572.62674 1026.9067,571.4154 1026.9067,570.09914 L 1026.9067,553.5029 L 1034.3925,553.5029 L 1034.3925,577.53883 C 1034.3925,578.18743 1034.3925,578.87416 1034.3925,579.59906 C 1034.4103,580.30488 1034.428,580.98208 1034.4458,581.63066 C 1034.4813,582.26018 1034.508,582.83246 1034.5257,583.34752 C 1034.5612,583.8435 1034.5879,584.21548 1034.6057,584.46347 L 1027.4662,584.46347 C 1027.4484,584.23456 1027.4129,583.87211 1027.3596,583.37614 C 1027.3241,582.86108 1027.2886,582.29834 1027.2531,581.68789 C 1027.2353,581.07747 1027.2086,580.46703 1027.1731,579.85658 C 1027.1554,579.24616 1027.1465,578.7311 1027.1465,578.31141 L 1027.0133,578.31141 C 1026.0187,580.65779 1024.7489,582.3651 1023.2038,583.43337 C 1021.6764,584.50163 1019.856,585.03575 1017.7426,585.03575 C 1016.0199,585.03575 1014.5547,584.73054 1013.347,584.1201 C 1012.1394,583.50966 1011.1537,582.67985 1010.39,581.63066 C 1009.6441,580.56241 1009.1024,579.30338 1008.765,577.85359 C 1008.4275,576.40382 1008.2588,574.83957 1008.2588,573.16086 L 1008.2588,553.5029 L 1015.7446,553.5029 M 1060.0467,584.46347 L 1053.3335,573.2467 L 1046.567,584.46347 L 1038.6016,584.46347 L 1049.151,568.46813 L 1039.1078,553.5029 L 1047.1797,553.5029 L 1053.3335,563.63232 L 1059.4607,553.5029 L 1067.5858,553.5029 L 1057.5426,568.38228 L 1068.1719,584.46347 L 1060.0467,584.46347 M 1072.3011,584.46347 L 1072.3011,575.73614 L 1080,575.73614 L 1080,584.46347 L 1072.3011,584.46347"
     id="text8139" />
  <rect
     style="opacity:1;fill:#e06f13;fill-opacity:1;stroke:none;stroke-opacity:1"
     id="rect2217"
     width="200"
     height="200"
     x="500"
     y="104" />
  <rect
     style="opacity:1;fill:#277699;fill-opacity:1;stroke:none;stroke-opacity:1"
     id="rect2219"
     width="160"
     height="160"
     x="440"
     y="744"
     inkscape:export-filename="/home/fabio/FreeAsInBeauty2.png"
     inkscape:export-xdpi="90"
     inkscape:export-ydpi="90" />
  <rect
     style="opacity:1;fill:#277699;fill-opacity:1;stroke:none;stroke-opacity:1"
     id="rect2221"
     width="100"
     height="100"
     x="960"
     y="924"
     inkscape:export-filename="/home/fabio/FreeAsInBeauty2.png"
     inkscape:export-xdpi="90"
     inkscape:export-ydpi="90" />
  <rect
     style="opacity:1;fill:#6c9eab;fill-opacity:1;stroke:none;stroke-opacity:1"
     id="rect2223"
     width="140"
     height="140"
     x="1080"
     y="4" />
  <rect
     style="opacity:1;fill:#e04613;fill-opacity:1;stroke:none;stroke-opacity:1"
     id="rect2225"
     width="140"
     height="140"
     x="40"
     y="4" />
  <path
     style="font-size:58.60190201px;font-style:normal;font-weight:normal;fill:#262729;fill-opacity:1;stroke:none;stroke-width:1px;stroke-linecap:butt;stroke-linejoin:miter;stroke-opacity:1;font-family:FilosofiaUnicase"
     d="M 302.53303,558.31511 L 302.53303,583.83899 L 294.52105,583.83899 L 294.52105,558.31511 L 290,558.31511 L 290,552.87841 L 294.52105,552.87841 L 294.52105,549.64501 C 294.52104,548.46232 294.66411,547.37498 294.95026,546.38299 C 295.2364,545.37199 295.72284,544.49449 296.40959,543.75048 C 297.09632,543.00655 298.02151,542.42473 299.18516,542.00501 C 300.3488,541.58538 301.79858,541.37554 303.53452,541.3755 C 304.45016,541.37554 305.34674,541.42323 306.22426,541.51857 C 307.12082,541.614 307.92202,541.71891 308.62785,541.83333 L 308.62785,547.0125 C 308.28446,546.93623 307.8934,546.87901 307.45467,546.84082 C 307.03498,546.78362 306.64392,546.75501 306.28149,546.75497 C 305.5375,546.75501 304.91753,546.83131 304.42156,546.98389 C 303.94465,547.13653 303.56312,547.36545 303.277,547.67063 C 303.00992,547.97588 302.81915,548.36694 302.70471,548.84381 C 302.59024,549.30167 302.53301,549.8358 302.53303,550.44621 L 302.53303,552.87841 L 308.62785,552.87841 L 308.62785,558.31511 L 302.53303,558.31511 M 312.66246,583.83899 L 312.66246,560.14642 C 312.66245,559.47878 312.65291,558.77297 312.63384,558.02897 C 312.63384,557.28503 312.61476,556.57921 312.57661,555.91152 C 312.55753,555.22481 312.53846,554.61437 312.51938,554.08021 C 312.5003,553.52703 312.47169,553.12643 312.43354,552.87841 L 320.10215,552.87841 C 320.14029,553.10736 320.17844,553.50796 320.21661,554.08021 C 320.25475,554.63345 320.2929,555.24388 320.33106,555.91152 C 320.3692,556.57921 320.39782,557.24688 320.41691,557.91452 C 320.45505,558.56313 320.47412,559.08772 320.47413,559.4883 L 320.58859,559.4883 C 320.98918,558.36283 321.38978,557.36133 321.79039,556.4838 C 322.19097,555.58725 322.65834,554.83375 323.19248,554.22328 C 323.74568,553.5938 324.4038,553.1169 325.16687,552.79257 C 325.92989,552.44923 326.87416,552.27755 327.99967,552.27752 C 328.47656,552.27755 328.94392,552.32524 329.40177,552.42059 C 329.87865,552.49692 330.2411,552.5923 330.48911,552.70673 L 330.48911,559.43107 C 329.97403,559.31664 329.44944,559.22126 328.91533,559.14493 C 328.40025,559.04957 327.78028,559.00188 327.0554,559.00186 C 325.05239,559.00188 323.48815,559.81261 322.36267,561.43406 C 321.25624,563.05556 320.70304,565.45915 320.70305,568.64484 L 320.70305,583.83899 L 312.66246,583.83899 M 348.11546,584.41127 C 345.88354,584.41127 343.87101,584.08698 342.07786,583.43839 C 340.30377,582.77073 338.78722,581.76923 337.5282,580.4339 C 336.26917,579.0795 335.30583,577.39126 334.63817,575.36918 C 333.9705,573.32805 333.63667,570.94353 333.63667,568.21563 C 333.63667,565.25885 334.02773,562.76941 334.80985,560.74732 C 335.61105,558.72528 336.67931,557.09427 338.01465,555.85429 C 339.36904,554.5953 340.92375,553.68918 342.67876,553.13594 C 344.43375,552.58277 346.28414,552.30616 348.22992,552.30613 C 350.67164,552.30616 352.75094,552.73537 354.46782,553.59377 C 356.20372,554.43315 357.62489,555.61587 358.73133,557.14193 C 359.83772,558.66805 360.64846,560.49936 361.16354,562.63586 C 361.67857,564.75333 361.93609,567.09969 361.93612,569.67496 L 361.93612,569.90387 L 342.07786,569.90387 C 342.07785,571.20106 342.19231,572.41239 342.42123,573.53787 C 342.65014,574.6443 343.02212,575.60764 343.53719,576.42791 C 344.05223,577.22911 344.71989,577.86816 345.54018,578.34506 C 346.36044,578.80289 347.3524,579.03181 348.51606,579.0318 C 349.92768,579.03181 351.08178,578.73613 351.97838,578.14476 C 352.87494,577.53433 353.51399,576.5996 353.89553,575.34057 L 361.4783,575.9987 C 361.1349,576.87621 360.64846,577.81094 360.01897,578.80289 C 359.40851,579.79485 358.58823,580.71051 357.55815,581.54985 C 356.52801,582.37013 355.24038,583.05687 353.69523,583.61008 C 352.16912,584.14421 350.3092,584.41127 348.11546,584.41127 M 348.11546,557.37085 C 347.29517,557.37087 346.52259,557.51394 345.79771,557.80006 C 345.09188,558.06715 344.47191,558.5059 343.93779,559.11631 C 343.42272,559.7077 343.00304,560.48028 342.67876,561.43406 C 342.35446,562.38789 342.17323,563.53246 342.13509,564.86777 L 354.15306,564.86777 C 354.00043,562.36882 353.39953,560.49936 352.35036,559.25938 C 351.30116,558.00038 349.88952,557.37087 348.11546,557.37085 M 380.73566,584.41127 C 378.50374,584.41127 376.49121,584.08698 374.69806,583.43839 C 372.92397,582.77073 371.40742,581.76923 370.1484,580.4339 C 368.88937,579.0795 367.92603,577.39126 367.25837,575.36918 C 366.5907,573.32805 366.25687,570.94353 366.25687,568.21563 C 366.25687,565.25885 366.64793,562.76941 367.43005,560.74732 C 368.23125,558.72528 369.29951,557.09427 370.63485,555.85429 C 371.98924,554.5953 373.54395,553.68918 375.29896,553.13594 C 377.05395,552.58277 378.90434,552.30616 380.85012,552.30613 C 383.29185,552.30616 385.37114,552.73537 387.08802,553.59377 C 388.82392,554.43315 390.24509,555.61587 391.35153,557.14193 C 392.45792,558.66805 393.26866,560.49936 393.78374,562.63586 C 394.29877,564.75333 394.5563,567.09969 394.55633,569.67496 L 394.55633,569.90387 L 374.69806,569.90387 C 374.69805,571.20106 374.81251,572.41239 375.04143,573.53787 C 375.27034,574.6443 375.64232,575.60764 376.15739,576.42791 C 376.67243,577.22911 377.3401,577.86816 378.16038,578.34506 C 378.98064,578.80289 379.9726,579.03181 381.13626,579.0318 C 382.54788,579.03181 383.70198,578.73613 384.59858,578.14476 C 385.49514,577.53433 386.13419,576.5996 386.51573,575.34057 L 394.0985,575.9987 C 393.7551,576.87621 393.26866,577.81094 392.63917,578.80289 C 392.02871,579.79485 391.20844,580.71051 390.17835,581.54985 C 389.14821,582.37013 387.86058,583.05687 386.31543,583.61008 C 384.78932,584.14421 382.9294,584.41127 380.73566,584.41127 M 380.73566,557.37085 C 379.91537,557.37087 379.14279,557.51394 378.41791,557.80006 C 377.71208,558.06715 377.09211,558.5059 376.55799,559.11631 C 376.04292,559.7077 375.62325,560.48028 375.29896,561.43406 C 374.97466,562.38789 374.79343,563.53246 374.75529,564.86777 L 386.77326,564.86777 C 386.62063,562.36882 386.01973,560.49936 384.97057,559.25938 C 383.92136,558.00038 382.50972,557.37087 380.73566,557.37085 M 424.08619,584.41127 C 422.59824,584.41127 421.26291,584.21097 420.0802,583.81038 C 418.91655,583.3907 417.92459,582.7898 417.10432,582.00768 C 416.28404,581.20648 415.65453,580.22406 415.21578,579.06042 C 414.77703,577.89678 414.55766,576.57099 414.55766,575.08304 C 414.55766,573.25174 414.87241,571.71611 415.50193,570.47615 C 416.15051,569.21714 417.02801,568.20611 418.13443,567.44305 C 419.24084,566.66094 420.53802,566.0982 422.02597,565.75481 C 423.51389,565.39238 425.09721,565.20162 426.77593,565.18252 L 433.44304,565.06807 L 433.44304,563.49429 C 433.44302,562.36882 433.3381,561.43409 433.12828,560.69009 C 432.9375,559.92707 432.65136,559.3071 432.26985,558.83017 C 431.88831,558.35329 431.41141,558.01946 430.83914,557.82867 C 430.28592,557.61886 429.64687,557.51394 428.92199,557.51392 C 428.25431,557.51394 427.65341,557.58071 427.1193,557.71422 C 426.60423,557.84777 426.15594,558.08623 425.77443,558.42957 C 425.39289,558.75389 425.07814,559.20218 424.83016,559.77444 C 424.60123,560.32767 424.43909,561.03349 424.34372,561.89189 L 415.95975,561.49129 C 416.18866,560.13691 416.60834,558.9065 417.21878,557.80006 C 417.82921,556.67459 418.66856,555.70171 419.73683,554.88141 C 420.82416,554.06116 422.14995,553.43165 423.7142,552.99287 C 425.29751,552.53507 427.1479,552.30616 429.26536,552.30613 C 431.19203,552.30616 432.90888,552.54461 434.41592,553.02149 C 435.92291,553.49842 437.20101,554.21377 438.25022,555.16755 C 439.29938,556.10231 440.10058,557.25641 440.65382,558.62987 C 441.207,560.00338 441.4836,561.59623 441.48363,563.40844 L 441.48363,574.68244 C 441.4836,575.40734 441.51221,576.05593 441.56947,576.62821 C 441.64575,577.2005 441.76974,577.68694 441.94146,578.08753 C 442.13219,578.46906 442.38972,578.76474 442.71404,578.97457 C 443.05738,579.16534 443.49613,579.26072 444.03029,579.26072 C 444.6407,579.26072 445.23206,579.20349 445.80437,579.08903 L 445.80437,583.43839 C 445.32744,583.55285 444.89823,583.65777 444.51674,583.75315 C 444.13518,583.84853 443.75366,583.92483 443.37217,583.98206 C 442.99061,584.03929 442.58048,584.08698 442.14176,584.12513 C 441.72205,584.16328 441.22607,584.18236 440.65382,584.18236 C 438.63172,584.18236 437.13425,583.68638 436.16139,582.69442 C 435.20756,581.70246 434.63527,580.24314 434.44453,578.31645 L 434.27285,578.31645 C 433.20456,580.24314 431.83108,581.74062 430.1524,582.80888 C 428.49276,583.87714 426.47069,584.41127 424.08619,584.41127 M 433.44304,569.50327 L 429.32259,569.5605 C 428.46415,569.59867 427.64387,569.67497 426.86177,569.78941 C 426.09871,569.88481 425.42151,570.10418 424.83016,570.44754 C 424.25786,570.77185 423.80004,571.24875 423.45668,571.87825 C 423.1133,572.50777 422.94161,573.3662 422.94162,574.45353 C 422.94161,575.9224 423.27544,577.01928 423.94312,577.74416 C 424.62985,578.44999 425.53596,578.80289 426.66147,578.80289 C 427.69157,578.80289 428.6263,578.58352 429.46566,578.14476 C 430.30499,577.70602 431.01081,577.13373 431.58311,576.42791 C 432.17445,575.70302 432.63228,574.87321 432.95659,573.93847 C 433.28087,573.00375 433.44302,572.04995 433.44304,571.07705 L 433.44304,569.50327 M 475.64901,574.7969 C 475.64898,576.28485 475.33422,577.62017 474.70474,578.80289 C 474.09427,579.98561 473.19769,580.99665 472.015,581.83599 C 470.83225,582.65627 469.38247,583.29532 467.66564,583.75315 C 465.94877,584.1919 463.99347,584.41127 461.79973,584.41127 C 459.83487,584.41127 458.06079,584.2682 456.47748,583.98206 C 454.89416,583.69592 453.5016,583.22855 452.29981,582.57996 C 451.11708,581.9123 450.12513,581.05388 449.32393,580.00469 C 448.52273,578.9555 447.92183,577.65833 447.52124,576.11315 L 454.58895,575.05443 C 454.81785,575.91286 455.13261,576.60914 455.53322,577.14326 C 455.9338,577.6774 456.42978,578.08754 457.02115,578.37368 C 457.6125,578.65982 458.29924,578.85058 459.08138,578.94596 C 459.88256,579.04134 460.78868,579.08904 461.79973,579.08903 C 462.71537,579.08904 463.56425,579.04134 464.34639,578.94596 C 465.14757,578.83151 465.83431,578.65028 466.40662,578.40229 C 466.99795,578.13523 467.45578,577.77278 467.7801,577.31495 C 468.10437,576.83805 468.26652,576.24669 468.26654,575.54087 C 468.26652,574.73968 468.02806,574.11017 467.55118,573.65233 C 467.09333,573.17544 466.45428,572.79392 465.63403,572.50776 C 464.83281,572.20256 463.87901,571.94503 462.77261,571.73518 C 461.68525,571.50628 460.52161,571.24875 459.28168,570.96259 C 457.98449,570.67647 456.70639,570.3331 455.44737,569.93248 C 454.18834,569.5319 453.06285,568.98823 452.0709,568.30147 C 451.07893,567.61475 450.27773,566.74678 449.6673,565.69758 C 449.05686,564.62934 448.75164,563.28447 448.75165,561.66298 C 448.75164,560.19414 449.03779,558.88742 449.61007,557.74283 C 450.18235,556.57921 451.0217,555.59679 452.12812,554.79557 C 453.23453,553.97532 454.59848,553.35535 456.21996,552.93564 C 457.86049,552.49692 459.73949,552.27755 461.85696,552.27752 C 463.53564,552.27755 465.09988,552.43969 466.54969,552.76396 C 467.99945,553.06921 469.29663,553.56519 470.44122,554.2519 C 471.58576,554.91959 472.53957,555.77802 473.30264,556.82718 C 474.08473,557.87639 474.6284,559.14495 474.93365,560.63286 L 467.80871,561.37683 C 467.67516,560.63289 467.43671,560.02245 467.09336,559.54552 C 466.74996,559.04957 466.32075,558.65851 465.80572,558.37234 C 465.30972,558.08623 464.7279,557.89546 464.06025,557.80006 C 463.39257,557.68563 462.65814,557.6284 461.85696,557.62837 C 459.94933,557.6284 458.51862,557.87639 457.56482,558.37234 C 456.61101,558.84927 456.1341,559.66001 456.13411,560.80455 C 456.1341,561.51039 456.32486,562.07314 456.7064,562.49279 C 457.10699,562.91248 457.66019,563.26539 458.36602,563.55151 C 459.0909,563.8186 459.93979,564.05705 460.91269,564.26687 C 461.90463,564.45765 462.98243,564.6961 464.14609,564.98222 C 465.57678,565.28746 466.97888,565.64991 468.35238,566.06956 C 469.74492,566.47018 470.97533,567.03293 472.04361,567.7578 C 473.13093,568.46364 473.99889,569.37929 474.64751,570.50477 C 475.31514,571.63027 475.64898,573.06098 475.64901,574.7969 M 498.42591,547.29864 L 498.42591,541.3755 L 506.4665,541.3755 L 506.4665,547.29864 L 498.42591,547.29864 M 498.42591,583.83899 L 498.42591,552.87841 L 506.4665,552.87841 L 506.4665,583.83899 L 498.42591,583.83899 M 534.73734,583.83899 L 534.73734,566.47016 C 534.73731,565.26839 534.64193,564.17151 534.4512,563.17953 C 534.26041,562.16852 533.94565,561.31009 533.50693,560.60425 C 533.06815,559.87938 532.49587,559.31664 531.79007,558.91601 C 531.08424,558.51544 530.22581,558.31514 529.2148,558.31511 C 528.24189,558.31514 527.35485,558.53451 526.55367,558.97324 C 525.77154,559.39294 525.09433,560.00338 524.52206,560.80455 C 523.94977,561.58669 523.50148,562.53096 523.1772,563.63736 C 522.87197,564.72472 522.71936,565.92651 522.71937,567.24275 L 522.71937,583.83899 L 514.67878,583.83899 L 514.67878,559.80305 C 514.67877,559.13541 514.66923,558.44867 514.65016,557.74283 C 514.65016,557.03704 514.63108,556.36938 514.59293,555.73984 C 514.57385,555.09128 514.55478,554.51899 514.53571,554.02298 C 514.51663,553.50796 514.48801,553.12643 514.44986,552.87841 L 522.11847,552.87841 C 522.15661,553.10736 522.19476,553.47934 522.23293,553.99437 C 522.27107,554.49038 522.30922,555.04358 522.34738,555.65399 C 522.38553,556.26446 522.41414,556.87489 522.43323,557.4853 C 522.47137,558.09576 522.49044,558.61082 522.49046,559.03047 L 522.60491,559.03047 C 523.69224,556.66506 525.05618,554.9482 526.69674,553.87991 C 528.33728,552.81168 530.29258,552.27755 532.56266,552.27752 C 534.4321,552.27755 536.00588,552.58277 537.284,553.19317 C 538.58115,553.80364 539.63034,554.64299 540.43157,555.71122 C 541.25181,556.77951 541.84317,558.03854 542.20565,559.4883 C 542.56806,560.93811 542.74928,562.50235 542.74932,564.18103 L 542.74932,583.83899 L 534.73734,583.83899"
     id="text2218" />
  <path
     id="text2209"
     d="M 850.48371,595.46512 C 848.46644,595.46511 846.68486,595.25773 845.13894,594.84298 C 843.61185,594.44706 842.30158,593.88148 841.20813,593.14623 C 840.13351,592.42981 839.26629,591.56259 838.60645,590.54454 C 837.96544,589.54534 837.5224,588.44245 837.27732,587.23588 L 845.22378,586.30266 C 845.50656,587.52809 846.10984,588.48958 847.03365,589.18714 C 847.97627,589.88469 849.2017,590.23346 850.70994,590.23347 C 851.65256,590.23346 852.51037,590.1015 853.28335,589.83756 C 854.07515,589.57362 854.74442,589.12115 855.29117,588.48016 C 855.85673,587.85801 856.29034,587.02849 856.59201,585.99159 C 856.91249,584.95469 857.07274,583.6727 857.07276,582.14562 C 857.07274,581.61774 857.07274,581.08044 857.07276,580.53371 C 857.07274,579.98698 857.08217,579.48738 857.10104,579.03491 C 857.11987,578.50704 857.12929,577.99801 857.12932,577.50783 L 857.07276,577.50783 C 856.14895,579.48738 854.8481,580.92019 853.17023,581.80627 C 851.51117,582.69235 849.53163,583.13539 847.2316,583.13539 C 845.28975,583.13539 843.61185,582.75834 842.1979,582.00423 C 840.80278,581.23126 839.64334,580.16608 838.71956,578.80868 C 837.79577,577.43243 837.10764,575.80166 836.65518,573.91638 C 836.22156,572.01225 836.00476,569.91959 836.00476,567.63839 C 836.00476,565.28181 836.24042,563.15145 836.71174,561.24729 C 837.18305,559.32433 837.89946,557.67472 838.86096,556.29844 C 839.84129,554.92221 841.06673,553.86645 842.53725,553.13117 C 844.02661,552.37708 845.78935,552.00003 847.82546,552 C 849.86155,552.00003 851.68084,552.43364 853.28335,553.30084 C 854.90467,554.1681 856.1678,555.57263 857.07276,557.51444 L 857.21416,557.51444 C 857.21413,557.11856 857.22356,556.66609 857.24243,556.15704 C 857.28012,555.62919 857.31782,555.12959 857.35555,554.65824 C 857.39323,554.1681 857.43094,553.73448 857.46867,553.3574 C 857.52521,552.98037 857.57233,552.72586 857.61007,552.59386 L 865.13233,552.59386 C 865.09459,553.27259 865.05689,554.22466 865.01921,555.45006 C 864.98148,556.67552 864.96262,558.08005 864.96266,559.66366 L 864.96266,582.25874 C 864.96262,584.48337 864.64213,586.41578 864.00116,588.05597 C 863.36013,589.71501 862.4175,591.09127 861.17324,592.18474 C 859.94778,593.27819 858.43013,594.09828 856.6203,594.64503 C 854.82926,595.19175 852.78373,595.46511 850.48371,595.46512 M 857.12932,567.46872 C 857.12929,565.54575 856.94076,563.94326 856.56373,562.66125 C 856.18666,561.37929 855.69648,560.35181 855.09322,559.57882 C 854.4899,558.80588 853.79236,558.25915 853.00056,557.93863 C 852.22758,557.61816 851.44518,557.45791 850.65338,557.45788 C 849.63531,557.45791 848.73038,557.65586 847.93858,558.05175 C 847.1656,558.44768 846.50575,559.06039 845.95903,559.88989 C 845.41229,560.71944 844.99753,561.77519 844.71475,563.05716 C 844.43195,564.33917 844.29055,565.86625 844.29056,567.63839 C 844.29055,570.93764 844.81843,573.42621 845.8742,575.1041 C 846.92994,576.78201 848.50415,577.62095 850.59682,577.62095 C 851.38863,577.62095 852.17101,577.47013 852.94399,577.16848 C 853.73579,576.84799 854.44277,576.30126 855.06493,575.52829 C 855.68706,574.73648 856.18666,573.69015 856.56373,572.3893 C 856.94076,571.08847 857.12929,569.44828 857.12932,567.46872 M 892.90251,583.19195 L 892.90251,566.02648 C 892.90248,564.83877 892.80822,563.75474 892.61971,562.77437 C 892.43116,561.77519 892.12009,560.92682 891.6865,560.22924 C 891.25286,559.51286 890.68728,558.9567 889.98974,558.56077 C 889.29217,558.16489 888.44379,557.96693 887.44462,557.96691 C 886.4831,557.96693 885.60645,558.18374 884.81465,558.61733 C 884.04167,559.03211 883.3724,559.6354 882.80683,560.4272 C 882.24123,561.20018 881.79819,562.1334 881.47771,563.22684 C 881.17605,564.30147 881.02523,565.48919 881.02524,566.79002 L 881.02524,583.19195 L 873.07879,583.19195 L 873.07879,559.43743 C 873.07878,558.7776 873.06935,558.0989 873.05051,557.40132 C 873.0505,556.7038 873.03165,556.04395 872.99395,555.42178 C 872.97509,554.78081 872.95624,554.21523 872.93739,553.72503 C 872.91853,553.21603 872.89025,552.83898 872.85255,552.59386 L 880.43138,552.59386 C 880.46907,552.82012 880.50677,553.18775 880.54449,553.69675 C 880.58218,554.18695 880.61989,554.73368 880.65761,555.33694 C 880.6953,555.94026 880.72359,556.54355 880.74245,557.14681 C 880.78014,557.75013 880.799,558.25915 880.79901,558.67389 L 880.91213,558.67389 C 881.98672,556.33617 883.3347,554.63942 884.95605,553.58363 C 886.57737,552.52791 888.50978,552.00003 890.75328,552 C 892.60084,552.00003 894.15619,552.30167 895.41935,552.90493 C 896.70132,553.50825 897.73822,554.33777 898.53006,555.3935 C 899.3407,556.44928 899.92514,557.69357 900.28338,559.12636 C 900.64154,560.55919 900.82065,562.10512 900.82068,563.76414 L 900.82068,583.19195 L 892.90251,583.19195 M 915.97832,552.59386 L 915.97832,569.75933 C 915.97831,570.94707 916.07257,572.04053 916.26111,573.03972 C 916.44963,574.02007 916.7607,574.86845 917.19433,575.58485 C 917.62793,576.28241 918.18408,576.82914 918.8628,577.22504 C 919.56034,577.62095 920.40871,577.81891 921.40793,577.8189 C 922.3694,577.81891 923.23663,577.61153 924.00962,577.19676 C 924.80142,576.76315 925.48011,576.15986 926.04572,575.38689 C 926.61128,574.59508 927.0449,573.66187 927.34656,572.58725 C 927.66703,571.4938 927.82728,570.29665 927.82731,568.99579 L 927.82731,552.59386 L 935.77376,552.59386 L 935.77376,576.34839 C 935.77373,576.98939 935.77373,577.66809 935.77376,578.38449 C 935.79258,579.08205 935.81143,579.75132 935.83032,580.39231 C 935.86799,581.01446 935.89627,581.58004 935.91516,582.08906 C 935.95283,582.57924 935.98111,582.94687 936,583.19195 L 928.42117,583.19195 C 928.40229,582.96572 928.36459,582.60752 928.30806,582.11734 C 928.27032,581.60832 928.23262,581.05216 928.19494,580.44887 C 928.17606,579.84558 928.14778,579.24229 928.1101,578.639 C 928.09122,578.03572 928.0818,577.52669 928.08182,577.11192 L 927.94042,577.11192 C 926.88465,579.43082 925.53667,581.11815 923.8965,582.1739 C 922.27514,583.22966 920.34273,583.75753 918.09926,583.75754 C 916.27053,583.75753 914.71518,583.45589 913.4332,582.8526 C 912.1512,582.24931 911.10487,581.42922 910.2942,580.39231 C 909.50238,579.33656 908.92737,578.09227 908.56917,576.65946 C 908.21097,575.22665 908.03187,573.68072 908.03187,572.02167 L 908.03187,552.59386 L 915.97832,552.59386"
     style="font-size:72px;font-style:normal;font-weight:bold;fill:#e68924;fill-opacity:1;stroke:none;stroke-width:1px;stroke-linecap:butt;stroke-linejoin:miter;stroke-opacity:1;font-family:Liberation Sans" />
</svg>
