<?xml version="1.0" encoding="UTF-8" standalone="no"?>
<!-- Created with Inkscape (http://www.inkscape.org/) -->
<svg
   xmlns:dc="http://purl.org/dc/elements/1.1/"
   xmlns:cc="http://web.resource.org/cc/"
   xmlns:rdf="http://www.w3.org/1999/02/22-rdf-syntax-ns#"
   xmlns:svg="http://www.w3.org/2000/svg"
   xmlns="http://www.w3.org/2000/svg"
   xmlns:xlink="http://www.w3.org/1999/xlink"
   xmlns:sodipodi="http://sodipodi.sourceforge.net/DTD/sodipodi-0.dtd"
   xmlns:inkscape="http://www.inkscape.org/namespaces/inkscape"
   id="svg2"
   sodipodi:version="0.32"
   inkscape:version="0.45.1"
   width="1280"
   height="800"
   version="1.0"
   sodipodi:docbase="/home/fabio/Imagens/Wallpapers/Elegant Brit"
   sodipodi:docname="3wide.svg"
   inkscape:output_extension="org.inkscape.output.svg.inkscape">
  <metadata
     id="metadata7">
    <rdf:RDF>
      <cc:Work
         rdf:about="">
        <dc:format>image/svg+xml</dc:format>
        <dc:type
           rdf:resource="http://purl.org/dc/dcmitype/StillImage" />
      </cc:Work>
    </rdf:RDF>
  </metadata>
  <defs
     id="defs5">
    <linearGradient
       y2="803.17938"
       x2="959.54059"
       y1="771.59735"
       x1="959.54059"
       gradientUnits="userSpaceOnUse"
       id="linearGradient13429"
       xlink:href="#linearGradient5254"
       inkscape:collect="always" />
    <linearGradient
       y2="803.17938"
       x2="959.54059"
       y1="771.59735"
       x1="959.54059"
       gradientUnits="userSpaceOnUse"
       id="linearGradient5981"
       xlink:href="#linearGradient5254"
       inkscape:collect="always" />
    <linearGradient
       y2="810.34253"
       x2="959.54059"
       y1="771.60901"
       x1="959.54059"
       gradientUnits="userSpaceOnUse"
       id="linearGradient5885"
       xlink:href="#linearGradient5314"
       inkscape:collect="always" />
    <linearGradient
       y2="810.34253"
       x2="959.54059"
       y1="771.60901"
       x1="959.54059"
       gradientUnits="userSpaceOnUse"
       id="linearGradient5883"
       xlink:href="#linearGradient5320"
       inkscape:collect="always" />
    <linearGradient
       y2="803.17938"
       x2="959.54059"
       y1="771.59735"
       x1="959.54059"
       gradientUnits="userSpaceOnUse"
       id="linearGradient5881"
       xlink:href="#linearGradient5254"
       inkscape:collect="always" />
    <linearGradient
       y2="803.17938"
       x2="959.54059"
       y1="771.59735"
       x1="959.54059"
       gradientUnits="userSpaceOnUse"
       id="linearGradient4788"
       xlink:href="#linearGradient5254"
       inkscape:collect="always" />
    <linearGradient
       y2="803.17938"
       x2="959.54059"
       y1="771.59735"
       x1="959.54059"
       gradientUnits="userSpaceOnUse"
       id="linearGradient2689"
       xlink:href="#linearGradient5254"
       inkscape:collect="always" />
    <linearGradient
       y2="803.17938"
       x2="959.54059"
       y1="771.59735"
       x1="959.54059"
       gradientUnits="userSpaceOnUse"
       id="linearGradient2536"
       xlink:href="#linearGradient5254"
       inkscape:collect="always" />
    <linearGradient
       gradientUnits="userSpaceOnUse"
       y2="803.17938"
       x2="959.54059"
       y1="771.59735"
       x1="959.54059"
       id="linearGradient5260"
       xlink:href="#linearGradient5254"
       inkscape:collect="always" />
    <linearGradient
       id="linearGradient5254">
      <stop
         id="stop5256"
         offset="0"
         style="stop-color:#c0c0c0;stop-opacity:0.38403043" />
      <stop
         id="stop5258"
         offset="1"
         style="stop-color:#000000;stop-opacity:0" />
    </linearGradient>
    <linearGradient
       id="linearGradient5320">
      <stop
         style="stop-color:#c0c0c0;stop-opacity:0.30038023"
         offset="0"
         id="stop5322" />
      <stop
         style="stop-color:#000000;stop-opacity:0"
         offset="1"
         id="stop5324" />
    </linearGradient>
    <linearGradient
       id="linearGradient5314">
      <stop
         style="stop-color:#c0c0c0;stop-opacity:0.30038023"
         offset="0"
         id="stop5316" />
      <stop
         style="stop-color:#000000;stop-opacity:0"
         offset="1"
         id="stop5318" />
    </linearGradient>
    <linearGradient
       id="linearGradient3811">
      <stop
         id="stop3813"
         offset="0"
         style="stop-color:#5b5e63;stop-opacity:1;" />
      <stop
         style="stop-color:#404246;stop-opacity:0.49803922;"
         offset="0.5"
         id="stop8487" />
      <stop
         id="stop3815"
         offset="1"
         style="stop-color:#262729;stop-opacity:0;" />
    </linearGradient>
    <linearGradient
       id="linearGradient8490">
      <stop
         id="stop8492"
         offset="0"
         style="stop-color:#8e8e8e;stop-opacity:1;" />
      <stop
         id="stop8494"
         offset="1"
         style="stop-color:#262729;stop-opacity:0;" />
    </linearGradient>
    <linearGradient
       id="linearGradient13375">
      <stop
         id="stop13377"
         offset="0"
         style="stop-color:#5b5f62;stop-opacity:1;" />
      <stop
         id="stop13379"
         offset="1"
         style="stop-color:#666a6e;stop-opacity:0;" />
    </linearGradient>
    <linearGradient
       id="linearGradient13393">
      <stop
         id="stop13395"
         offset="0"
         style="stop-color:#95999d;stop-opacity:1;" />
      <stop
         id="stop13397"
         offset="1"
         style="stop-color:#676b70;stop-opacity:1;" />
    </linearGradient>
  </defs>
  <sodipodi:namedview
     inkscape:window-height="684"
     inkscape:window-width="995"
     inkscape:pageshadow="2"
     inkscape:pageopacity="0.0"
     guidetolerance="10.0"
     gridtolerance="10.0"
     objecttolerance="10.0"
     borderopacity="1.0"
     bordercolor="#666666"
     pagecolor="#ffffff"
     id="base"
     width="1280px"
     height="800px"
     showgrid="true"
     inkscape:zoom="1"
     inkscape:cx="1021.529"
     inkscape:cy="400"
     inkscape:window-x="245"
     inkscape:window-y="38"
     inkscape:current-layer="svg2"
     showguides="true"
     inkscape:guide-bbox="true" />
  <rect
     style="opacity:1;fill:#262729;fill-opacity:1;stroke:none;stroke-opacity:1"
     id="rect2159"
     width="1279.8892"
     height="799.99994"
     x="0.11081791"
     y="0"
     inkscape:export-filename="/home/fabio/FreeAsInBeauty2.png"
     inkscape:export-xdpi="90"
     inkscape:export-ydpi="90" />
  <rect
     style="opacity:1;fill:#e06f13;fill-opacity:1;stroke:none;stroke-opacity:1"
     id="rect6197"
     width="139.99994"
     height="140"
     x="560.00006"
     y="380" />
  <rect
     style="opacity:1;fill:#e04613;fill-opacity:1;stroke:none;stroke-opacity:1"
     id="rect8151"
     width="120"
     height="120"
     x="440"
     y="260" />
  <rect
     style="opacity:1;fill:#6c9eab;fill-opacity:1;stroke:none;stroke-opacity:1"
     id="rect8153"
     width="220"
     height="220"
     x="220"
     y="380" />
  <rect
     style="opacity:1;fill:#277699;fill-opacity:1;stroke:none;stroke-opacity:1"
     id="rect2207"
     width="220"
     height="220"
     x="700"
     y="160"
     inkscape:export-filename="/home/fabio/FreeAsInBeauty2.png"
     inkscape:export-xdpi="90"
     inkscape:export-ydpi="90" />
  <rect
     style="opacity:1;fill:#e04613;fill-opacity:1;stroke:none;stroke-opacity:1"
     id="rect2210"
     width="260"
     height="260"
     x="700"
     y="520" />
  <rect
     style="opacity:1;fill:#6c9eab;fill-opacity:1;stroke:none;stroke-opacity:1"
     id="rect2212"
     width="220"
     height="220"
     x="960"
     y="300" />
  <rect
     style="opacity:1;fill:#277699;fill-opacity:1;stroke:none;stroke-opacity:1"
     id="rect2214"
     width="160"
     height="160"
     x="280"
     y="100"
     inkscape:export-filename="/home/fabio/FreeAsInBeauty2.png"
     inkscape:export-xdpi="90"
     inkscape:export-ydpi="90" />
  <rect
     style="opacity:1;fill:#e06f13;fill-opacity:1;stroke:none;stroke-opacity:1"
     id="rect2216"
     width="200"
     height="200"
     x="20"
     y="600" />
  <rect
     style="opacity:1;fill:#e04613;fill-opacity:1;stroke:none;stroke-opacity:1"
     id="rect2220"
     width="160"
     height="160"
     x="920"
     y="-4.0856207e-14" />
  <rect
     style="opacity:1;fill:#e06f13;fill-opacity:1;stroke:none;stroke-opacity:1"
     id="rect2224"
     width="99.999939"
     height="100"
     x="1180"
     y="520" />
  <rect
     style="opacity:1;fill:#6c9eab;fill-opacity:1;stroke:none;stroke-opacity:1"
     id="rect2226"
     width="100.00001"
     height="100"
     x="180"
     y="0" />
  <rect
     style="opacity:1;fill:#e04613;fill-opacity:1;stroke:none;stroke-opacity:1"
     id="rect2228"
     width="120"
     height="120"
     x="100"
     y="260" />
  <rect
     style="opacity:1;fill:#ffffff;fill-opacity:1;stroke:none;stroke-opacity:1"
     id="rect44296"
     width="560"
     height="80"
     x="220"
     y="380" />
  <path
     style="font-size:58.60190201px;font-style:normal;font-weight:normal;fill:#262729;fill-opacity:1;stroke:none;stroke-width:1px;stroke-linecap:butt;stroke-linejoin:miter;stroke-opacity:1;font-family:FilosofiaUnicase"
     d="M 302.88804,414.93963 L 302.88804,440.4635 L 294.87606,440.4635 L 294.87606,414.93963 L 290.35501,414.93963 L 290.35501,409.50293 L 294.87606,409.50293 L 294.87606,406.26952 C 294.87605,405.08683 295.01912,403.9995 295.30527,403.0075 C 295.59141,401.9965 296.07785,401.119 296.7646,400.37499 C 297.45133,399.63106 298.37652,399.04924 299.54017,398.62953 C 300.70381,398.20989 302.15359,398.00006 303.88953,398.00001 C 304.80517,398.00006 305.70175,398.04775 306.57927,398.14308 C 307.47583,398.23851 308.27703,398.34343 308.98286,398.45784 L 308.98286,403.63701 C 308.63947,403.56075 308.24841,403.50352 307.80968,403.46533 C 307.38999,403.40814 306.99893,403.37952 306.6365,403.37948 C 305.89251,403.37952 305.27254,403.45583 304.77657,403.6084 C 304.29966,403.76104 303.91813,403.98996 303.63201,404.29514 C 303.36493,404.60039 303.17417,404.99145 303.05972,405.46832 C 302.94525,405.92618 302.88802,406.46032 302.88804,407.07072 L 302.88804,409.50293 L 308.98286,409.50293 L 308.98286,414.93963 L 302.88804,414.93963 M 313.01747,440.4635 L 313.01747,416.77094 C 313.01746,416.10329 313.00792,415.39748 312.98885,414.65348 C 312.98885,413.90954 312.96977,413.20372 312.93162,412.53603 C 312.91254,411.84932 312.89347,411.23888 312.8744,410.70472 C 312.85532,410.15154 312.8267,409.75095 312.78855,409.50293 L 320.45716,409.50293 C 320.4953,409.73187 320.53345,410.13247 320.57162,410.70472 C 320.60976,411.25796 320.64791,411.8684 320.68607,412.53603 C 320.72422,413.20372 320.75283,413.87139 320.77192,414.53903 C 320.81006,415.18764 320.82913,415.71223 320.82915,416.11281 L 320.9436,416.11281 C 321.34419,414.98734 321.74479,413.98585 322.1454,413.10832 C 322.54598,412.21177 323.01335,411.45826 323.5475,410.84779 C 324.10069,410.21831 324.75881,409.74141 325.52188,409.41708 C 326.2849,409.07374 327.22917,408.90206 328.35468,408.90203 C 328.83157,408.90206 329.29893,408.94975 329.75678,409.0451 C 330.23366,409.12143 330.59611,409.21681 330.84412,409.33124 L 330.84412,416.05558 C 330.32904,415.94115 329.80445,415.84577 329.27034,415.76944 C 328.75526,415.67408 328.13529,415.62639 327.41041,415.62637 C 325.4074,415.62639 323.84316,416.43713 322.71768,418.05857 C 321.61125,419.68007 321.05805,422.08366 321.05806,425.26936 L 321.05806,440.4635 L 313.01747,440.4635 M 348.47047,441.03579 C 346.23855,441.03578 344.22602,440.71149 342.43287,440.0629 C 340.65878,439.39524 339.14223,438.39374 337.88321,437.05841 C 336.62418,435.70401 335.66084,434.01577 334.99318,431.99369 C 334.32551,429.95256 333.99168,427.56804 333.99168,424.84014 C 333.99168,421.88336 334.38274,419.39393 335.16486,417.37183 C 335.96606,415.34979 337.03432,413.71878 338.36966,412.4788 C 339.72405,411.21981 341.27876,410.31369 343.03377,409.76045 C 344.78876,409.20728 346.63915,408.93067 348.58493,408.93064 C 351.02666,408.93067 353.10595,409.35989 354.82283,410.21828 C 356.55873,411.05766 357.9799,412.24038 359.08634,413.76644 C 360.19273,415.29256 361.00347,417.12387 361.51855,419.26037 C 362.03358,421.37784 362.29111,423.7242 362.29114,426.29947 L 362.29114,426.52838 L 342.43287,426.52838 C 342.43286,427.82557 342.54732,429.0369 342.77624,430.16239 C 343.00515,431.26881 343.37713,432.23215 343.8922,433.05242 C 344.40724,433.85363 345.07491,434.49268 345.89519,434.96957 C 346.71545,435.42741 347.70741,435.65632 348.87107,435.65631 C 350.28269,435.65632 351.43679,435.36064 352.33339,434.76927 C 353.22995,434.15884 353.869,433.22411 354.25054,431.96508 L 361.83331,432.62321 C 361.48991,433.50072 361.00347,434.43545 360.37398,435.4274 C 359.76352,436.41936 358.94325,437.33502 357.91316,438.17436 C 356.88302,438.99464 355.59539,439.68138 354.05024,440.23459 C 352.52413,440.76872 350.66421,441.03578 348.47047,441.03579 M 348.47047,413.99536 C 347.65018,413.99538 346.8776,414.13845 346.15272,414.42457 C 345.44689,414.69166 344.82692,415.13041 344.2928,415.74082 C 343.77773,416.33221 343.35806,417.10479 343.03377,418.05857 C 342.70947,419.0124 342.52824,420.15697 342.4901,421.49228 L 354.50807,421.49228 C 354.35544,418.99333 353.75454,417.12387 352.70538,415.88389 C 351.65617,414.6249 350.24453,413.99538 348.47047,413.99536 M 381.09067,441.03579 C 378.85875,441.03578 376.84622,440.71149 375.05308,440.0629 C 373.27899,439.39524 371.76243,438.39374 370.50342,437.05841 C 369.24439,435.70401 368.28104,434.01577 367.61338,431.99369 C 366.94571,429.95256 366.61188,427.56804 366.61188,424.84014 C 366.61188,421.88336 367.00294,419.39393 367.78507,417.37183 C 368.58626,415.34979 369.65452,413.71878 370.98986,412.4788 C 372.34426,411.21981 373.89896,410.31369 375.65397,409.76045 C 377.40897,409.20728 379.25935,408.93067 381.20513,408.93064 C 383.64686,408.93067 385.72615,409.35989 387.44303,410.21828 C 389.17893,411.05766 390.6001,412.24038 391.70655,413.76644 C 392.81293,415.29256 393.62367,417.12387 394.13875,419.26037 C 394.65378,421.37784 394.91131,423.7242 394.91134,426.29947 L 394.91134,426.52838 L 375.05308,426.52838 C 375.05306,427.82557 375.16752,429.0369 375.39645,430.16239 C 375.62535,431.26881 375.99733,432.23215 376.5124,433.05242 C 377.02744,433.85363 377.69511,434.49268 378.51539,434.96957 C 379.33565,435.42741 380.32761,435.65632 381.49127,435.65631 C 382.90289,435.65632 384.05699,435.36064 384.95359,434.76927 C 385.85015,434.15884 386.4892,433.22411 386.87074,431.96508 L 394.45351,432.62321 C 394.11011,433.50072 393.62367,434.43545 392.99418,435.4274 C 392.38372,436.41936 391.56345,437.33502 390.53336,438.17436 C 389.50323,438.99464 388.21559,439.68138 386.67044,440.23459 C 385.14433,440.76872 383.28441,441.03578 381.09067,441.03579 M 381.09067,413.99536 C 380.27038,413.99538 379.4978,414.13845 378.77292,414.42457 C 378.06709,414.69166 377.44712,415.13041 376.913,415.74082 C 376.39793,416.33221 375.97826,417.10479 375.65397,418.05857 C 375.32967,419.0124 375.14844,420.15697 375.1103,421.49228 L 387.12827,421.49228 C 386.97564,418.99333 386.37474,417.12387 385.32558,415.88389 C 384.27637,414.6249 382.86474,413.99538 381.09067,413.99536 M 424.4412,441.03579 C 422.95325,441.03578 421.61792,440.83549 420.43521,440.43489 C 419.27156,440.01521 418.2796,439.41431 417.45933,438.63219 C 416.63906,437.831 416.00954,436.84858 415.5708,435.68493 C 415.13204,434.52129 414.91267,433.1955 414.91267,431.70755 C 414.91267,429.87625 415.22742,428.34063 415.85694,427.10066 C 416.50552,425.84165 417.38302,424.83062 418.48944,424.06756 C 419.59585,423.28545 420.89303,422.72271 422.38098,422.37932 C 423.86891,422.01689 425.45222,421.82613 427.13094,421.80704 L 433.79805,421.69258 L 433.79805,420.1188 C 433.79803,418.99333 433.69311,418.0586 433.48329,417.31461 C 433.29251,416.55158 433.00637,415.93161 432.62486,415.45468 C 432.24332,414.9778 431.76642,414.64397 431.19415,414.45318 C 430.64093,414.24337 430.00188,414.13845 429.277,414.13843 C 428.60932,414.13845 428.00842,414.20522 427.47431,414.33873 C 426.95924,414.47229 426.51095,414.71074 426.12944,415.05408 C 425.7479,415.3784 425.43315,415.82669 425.18517,416.39895 C 424.95624,416.95218 424.7941,417.658 424.69873,418.5164 L 416.31476,418.1158 C 416.54368,416.76142 416.96335,415.53101 417.57379,414.42457 C 418.18422,413.2991 419.02357,412.32622 420.09184,411.50592 C 421.17917,410.68568 422.50496,410.05616 424.06922,409.61738 C 425.65252,409.15959 427.50291,408.93067 429.62037,408.93064 C 431.54704,408.93067 433.2639,409.16912 434.77093,409.646 C 436.27792,410.12293 437.55602,410.83829 438.60523,411.79206 C 439.6544,412.72682 440.45559,413.88093 441.00883,415.25438 C 441.56201,416.62789 441.83861,418.22074 441.83864,420.03296 L 441.83864,431.30695 C 441.83861,432.03186 441.86723,432.68044 441.92448,433.25272 C 442.00076,433.82501 442.12475,434.31145 442.29647,434.71204 C 442.4872,435.09357 442.74473,435.38925 443.06905,435.59909 C 443.41239,435.78985 443.85114,435.88523 444.3853,435.88523 C 444.99571,435.88523 445.58707,435.828 446.15939,435.71354 L 446.15939,440.0629 C 445.68245,440.17736 445.25324,440.28228 444.87175,440.37766 C 444.49019,440.47304 444.10867,440.54934 443.72718,440.60657 C 443.34563,440.6638 442.93549,440.71149 442.49677,440.74964 C 442.07706,440.7878 441.58108,440.80687 441.00883,440.80687 C 438.98673,440.80687 437.48926,440.31089 436.5164,439.31893 C 435.56257,438.32698 434.99028,436.86765 434.79954,434.94096 L 434.62786,434.94096 C 433.55958,436.86765 432.18609,438.36513 430.50741,439.43339 C 428.84777,440.50165 426.8257,441.03578 424.4412,441.03579 M 433.79805,426.12778 L 429.6776,426.18501 C 428.81916,426.22318 427.99889,426.29948 427.21678,426.41392 C 426.45372,426.50932 425.77652,426.72869 425.18517,427.07205 C 424.61287,427.39636 424.15505,427.87326 423.81169,428.50276 C 423.46831,429.13229 423.29662,429.99071 423.29663,431.07804 C 423.29662,432.54691 423.63045,433.64379 424.29813,434.36867 C 424.98486,435.0745 425.89097,435.42741 427.01648,435.4274 C 428.04658,435.42741 428.98131,435.20803 429.82067,434.76927 C 430.66,434.33053 431.36582,433.75824 431.93812,433.05242 C 432.52946,432.32754 432.98729,431.49772 433.31161,430.56298 C 433.63588,429.62826 433.79803,428.67446 433.79805,427.70156 L 433.79805,426.12778 M 476.00402,431.42141 C 476.00399,432.90936 475.68923,434.24469 475.05975,435.4274 C 474.44928,436.61012 473.5527,437.62116 472.37001,438.46051 C 471.18727,439.28078 469.73748,439.91983 468.02065,440.37766 C 466.30378,440.81641 464.34848,441.03578 462.15474,441.03579 C 460.18988,441.03578 458.4158,440.89271 456.8325,440.60657 C 455.24917,440.32043 453.85661,439.85307 452.65482,439.20448 C 451.47209,438.53681 450.48014,437.67839 449.67894,436.6292 C 448.87774,435.58001 448.27684,434.28284 447.87625,432.73766 L 454.94396,431.67894 C 455.17286,432.53737 455.48762,433.23365 455.88823,433.76778 C 456.28882,434.30191 456.78479,434.71205 457.37617,434.99819 C 457.96751,435.28433 458.65425,435.4751 459.43639,435.57047 C 460.23757,435.66586 461.14369,435.71355 462.15474,435.71354 C 463.07038,435.71355 463.91926,435.66586 464.7014,435.57047 C 465.50258,435.45602 466.18932,435.2748 466.76163,435.0268 C 467.35297,434.75974 467.81079,434.39729 468.13511,433.93946 C 468.45938,433.46256 468.62153,432.8712 468.62155,432.16538 C 468.62153,431.36419 468.38308,430.73468 467.90619,430.27684 C 467.44835,429.79995 466.8093,429.41843 465.98904,429.13227 C 465.18783,428.82707 464.23402,428.56954 463.12762,428.35969 C 462.04027,428.13079 460.87662,427.87326 459.63669,427.58711 C 458.3395,427.30098 457.0614,426.95761 455.80238,426.55699 C 454.54335,426.15641 453.41786,425.61274 452.42591,424.92598 C 451.43394,424.23926 450.63275,423.3713 450.02231,422.32209 C 449.41187,421.25385 449.10666,419.90898 449.10666,418.28749 C 449.10666,416.81865 449.3928,415.51193 449.96509,414.36734 C 450.53736,413.20372 451.37671,412.2213 452.48314,411.42008 C 453.58954,410.59983 454.95349,409.97986 456.57497,409.56015 C 458.2155,409.12143 460.0945,408.90206 462.21197,408.90203 C 463.89065,408.90206 465.45489,409.06421 466.9047,409.38847 C 468.35446,409.69372 469.65164,410.1897 470.79623,410.87641 C 471.94077,411.5441 472.89458,412.40253 473.65765,413.45169 C 474.43974,414.5009 474.98341,415.76946 475.28866,417.25738 L 468.16372,418.00135 C 468.03017,417.2574 467.79172,416.64696 467.44837,416.17004 C 467.10498,415.67408 466.67576,415.28302 466.16073,414.99685 C 465.66473,414.71074 465.08291,414.51998 464.41526,414.42457 C 463.74758,414.31014 463.01315,414.25291 462.21197,414.25288 C 460.30434,414.25291 458.87363,414.5009 457.91984,414.99685 C 456.96602,415.47378 456.48911,416.28452 456.48913,417.42906 C 456.48911,418.1349 456.67988,418.69765 457.06141,419.1173 C 457.462,419.537 458.0152,419.8899 458.72103,420.17603 C 459.44591,420.44311 460.2948,420.68156 461.2677,420.89138 C 462.25964,421.08216 463.33744,421.32061 464.5011,421.60674 C 465.93179,421.91197 467.33389,422.27442 468.70739,422.69408 C 470.09993,423.09469 471.33034,423.65744 472.39863,424.38231 C 473.48594,425.08815 474.3539,426.0038 475.00252,427.12928 C 475.67015,428.25478 476.00399,429.68549 476.00402,431.42141 M 498.78092,403.92315 L 498.78092,398.00001 L 506.82151,398.00001 L 506.82151,403.92315 L 498.78092,403.92315 M 498.78092,440.4635 L 498.78092,409.50293 L 506.82151,409.50293 L 506.82151,440.4635 L 498.78092,440.4635 M 535.09235,440.4635 L 535.09235,423.09468 C 535.09232,421.8929 534.99694,420.79602 534.80621,419.80404 C 534.61542,418.79303 534.30067,417.9346 533.86194,417.22876 C 533.42316,416.50389 532.85088,415.94115 532.14509,415.54052 C 531.43925,415.13995 530.58082,414.93965 529.56981,414.93963 C 528.59691,414.93965 527.70987,415.15903 526.90868,415.59775 C 526.12655,416.01745 525.44935,416.62789 524.87708,417.42906 C 524.30478,418.21121 523.85649,419.15547 523.53221,420.26187 C 523.22698,421.34923 523.07437,422.55102 523.07438,423.86726 L 523.07438,440.4635 L 515.03379,440.4635 L 515.03379,416.42756 C 515.03378,415.75992 515.02425,415.07318 515.00517,414.36734 C 515.00517,413.66155 514.98609,412.99389 514.94794,412.36435 C 514.92886,411.71579 514.90979,411.1435 514.89072,410.64749 C 514.87164,410.13247 514.84302,409.75095 514.80487,409.50293 L 522.47348,409.50293 C 522.51162,409.73187 522.54978,410.10385 522.58794,410.61888 C 522.62608,411.11489 522.66423,411.6681 522.7024,412.2785 C 522.74054,412.88897 522.76915,413.4994 522.78824,414.10981 C 522.82638,414.72028 522.84546,415.23533 522.84547,415.65498 L 522.95992,415.65498 C 524.04725,413.28957 525.41119,411.57272 527.05176,410.50442 C 528.69229,409.43619 530.64759,408.90206 532.91767,408.90203 C 534.78711,408.90206 536.36089,409.20728 537.63901,409.81768 C 538.93616,410.42815 539.98535,411.2675 540.78658,412.33573 C 541.60682,413.40402 542.19818,414.66305 542.56066,416.11281 C 542.92307,417.56262 543.1043,419.12686 543.10433,420.80554 L 543.10433,440.4635 L 535.09235,440.4635"
     id="text9949" />
  <rect
     style="opacity:1;fill:#ffffff;fill-opacity:1;stroke:none;stroke-opacity:1"
     id="rect5224"
     width="320"
     height="150"
     x="780"
     y="460" />
  <g
     id="g5219"
     transform="matrix(0.7560979,0,0,0.7198154,165.12154,200.34487)">
    <path
       id="path14153"
       d="M 1210,457.97176 L 1210,541.1296 L 1128,541.1296 L 1210,457.97176 z "
       style="fill:#e04613;fill-opacity:1;fill-rule:evenodd;stroke:none;stroke-width:1px;stroke-linecap:butt;stroke-linejoin:miter;stroke-opacity:1" />
    <path
       id="path13182"
       d="M 1210,470 L 1210,541.32647 L 1140,541.32647 L 1210,470 z "
       style="fill:#ffffff;fill-opacity:1;fill-rule:evenodd;stroke:none;stroke-width:1px;stroke-linecap:butt;stroke-linejoin:miter;stroke-opacity:1" />
    <path
       id="path15124"
       d="M 1210,480 L 1210,541.28039 L 1150,541.28039 L 1210,480 z "
       style="fill:#262729;fill-opacity:1;fill-rule:evenodd;stroke:none;stroke-width:1px;stroke-linecap:butt;stroke-linejoin:miter;stroke-opacity:1" />
  </g>
  <rect
     style="opacity:1;fill:#e04613;fill-opacity:1;stroke:none;stroke-opacity:1"
     id="rect5226"
     width="320"
     height="80"
     x="780"
     y="380" />
  <path
     style="font-size:56.54404449px;font-style:normal;font-weight:normal;fill:#ffffff;fill-opacity:1;stroke:none;stroke-width:1px;stroke-linecap:butt;stroke-linejoin:miter;stroke-opacity:1;font-family:FilosofiaUnicase"
     d="M 944.06908,439.42772 L 944.06908,396.96423 L 951.55488,396.96423 L 951.55488,439.42772 L 944.06908,439.42772 M 959.20052,402.88737 L 959.20052,396.96423 L 966.68633,396.96423 L 966.68633,402.88737 L 959.20052,402.88737 M 959.20052,439.42772 L 959.20052,408.46714 L 966.68633,408.46714 L 966.68633,439.42772 L 959.20052,439.42772 M 993.00652,439.42772 L 993.00652,422.05889 C 993.00649,420.85712 992.9177,419.76024 992.74012,418.76825 C 992.5625,417.75724 992.26946,416.89882 991.861,416.19298 C 991.45251,415.46811 990.91971,414.90537 990.26261,414.50474 C 989.60548,414.10416 988.80629,413.90387 987.86502,413.90384 C 986.95926,413.90387 986.13342,414.12324 985.38752,414.56197 C 984.65935,414.98166 984.02887,415.5921 983.49608,416.39327 C 982.96328,417.17542 982.54592,418.11969 982.24401,419.22608 C 981.95984,420.31345 981.81777,421.51524 981.81777,422.83148 L 981.81777,439.42772 L 974.33197,439.42772 L 974.33197,415.39178 C 974.33196,414.72414 974.32309,414.0374 974.30533,413.33156 C 974.30533,412.62577 974.28757,411.9581 974.25205,411.32856 C 974.23429,410.68 974.21652,410.10772 974.19877,409.6117 C 974.18101,409.09668 974.15437,408.71516 974.11885,408.46714 L 981.25834,408.46714 C 981.29384,408.69608 981.32937,409.06807 981.3649,409.5831 C 981.4004,410.07911 981.43592,410.63231 981.47146,411.24272 C 981.50697,411.85319 981.53361,412.46362 981.55138,413.07403 C 981.58689,413.68449 981.60464,414.19955 981.60465,414.6192 L 981.71121,414.6192 C 982.72352,412.25378 983.99335,410.53693 985.52072,409.46864 C 987.04805,408.40041 988.86844,407.86627 990.98189,407.86624 C 992.72234,407.86627 994.18753,408.17149 995.37746,408.78189 C 996.58511,409.39236 997.5619,410.23172 998.30786,411.29995 C 999.0715,412.36824 999.62206,413.62726 999.95953,415.07702 C 1000.2969,416.52683 1000.4657,418.09107 1000.4657,419.76975 L 1000.4657,439.42772 L 993.00652,439.42772 M 1014.7446,408.46714 L 1014.7446,425.83596 C 1014.7446,427.03778 1014.8334,428.14419 1015.011,429.15521 C 1015.1886,430.14719 1015.4817,431.00561 1015.8902,431.73049 C 1016.2986,432.43632 1016.8225,432.98953 1017.4619,433.39011 C 1018.119,433.79072 1018.9182,433.99103 1019.8595,433.99102 C 1020.7652,433.99103 1021.5822,433.78119 1022.3104,433.3615 C 1023.0563,432.92276 1023.6956,432.31233 1024.2284,431.53019 C 1024.7612,430.72901 1025.1697,429.78474 1025.4539,428.69738 C 1025.7558,427.59098 1025.9067,426.37965 1025.9067,425.06338 L 1025.9067,408.46714 L 1033.3926,408.46714 L 1033.3926,432.50307 C 1033.3925,433.15167 1033.3925,433.83842 1033.3926,434.5633 C 1033.4103,435.26912 1033.4281,435.94633 1033.4458,436.59491 C 1033.4813,437.22442 1033.508,437.79671 1033.5258,438.31176 C 1033.5613,438.80774 1033.5879,439.17972 1033.6057,439.42772 L 1026.4662,439.42772 C 1026.4484,439.1988 1026.4129,438.83635 1026.3596,438.34038 C 1026.3241,437.82532 1026.2886,437.26258 1026.2531,436.65213 C 1026.2353,436.04171 1026.2087,435.43127 1026.1731,434.82082 C 1026.1554,434.2104 1026.1465,433.69534 1026.1465,433.27567 L 1026.0133,433.27567 C 1025.0187,435.62203 1023.7489,437.32934 1022.2038,438.39761 C 1020.6765,439.46587 1018.856,440 1016.7426,440 C 1015.0199,440 1013.5547,439.69478 1012.3471,439.08434 C 1011.1394,438.47391 1010.1537,437.6441 1009.39,436.59491 C 1008.6441,435.52665 1008.1024,434.26763 1007.765,432.81784 C 1007.4276,431.36806 1007.2589,429.80381 1007.2589,428.1251 L 1007.2589,408.46714 L 1014.7446,408.46714 M 1059.0467,439.42772 L 1052.3335,428.21094 L 1045.567,439.42772 L 1037.6017,439.42772 L 1048.151,423.43237 L 1038.1078,408.46714 L 1046.1797,408.46714 L 1052.3335,418.59658 L 1058.4607,408.46714 L 1066.5858,408.46714 L 1056.5426,423.34652 L 1067.1719,439.42772 L 1059.0467,439.42772 M 1071.3011,439.42772 L 1071.3011,430.70038 L 1079,430.70038 L 1079,439.42772 L 1071.3011,439.42772"
     id="text8139" />
  <path
     style="font-size:58.60190201px;font-style:normal;font-weight:normal;fill:#e04613;fill-opacity:1;stroke:none;stroke-width:1px;stroke-linecap:butt;stroke-linejoin:miter;stroke-opacity:1;font-family:FilosofiaUnicase"
     d="M 597.39132,424.24421 C 597.39128,426.59059 597.15283,428.75573 596.67596,430.73964 C 596.2181,432.70449 595.50275,434.4118 594.5299,435.86158 C 593.55698,437.2923 592.31704,438.40825 590.81005,439.20945 C 589.32209,440.01064 587.55754,440.41124 585.51642,440.41124 C 584.60075,440.41124 583.68509,440.31586 582.76946,440.1251 C 581.85378,439.93434 580.98582,439.61958 580.16556,439.18083 C 579.34527,438.74208 578.59177,438.1698 577.90504,437.46398 C 577.21829,436.75817 576.62693,435.8902 576.13096,434.86009 L 576.07373,434.86009 C 576.07372,435.26069 576.05464,435.71852 576.0165,436.23357 C 575.99742,436.74863 575.9688,437.25414 575.93066,437.75012 C 575.8925,438.22703 575.84481,438.65624 575.78759,439.03776 C 575.74943,439.41928 575.71127,439.68635 575.67313,439.83896 L 567.86145,439.83896 C 567.91868,439.17129 567.96637,438.22703 568.00452,437.00615 C 568.06175,435.76621 568.09036,434.35457 568.09037,432.77125 L 568.09037,397.37547 L 576.13096,397.37547 L 576.13096,409.22175 C 576.13095,409.83222 576.12141,410.43312 576.10235,411.02445 C 576.10233,411.59676 576.0928,412.13089 576.07373,412.62685 C 576.05464,413.19916 576.03557,413.74283 576.0165,414.25786 L 576.13096,414.25786 C 577.10383,412.12136 578.43916,410.59527 580.13695,409.67958 C 581.83471,408.76396 583.79955,408.30613 586.03148,408.3061 C 588.01537,408.30613 589.72268,408.70673 591.15342,409.5079 C 592.5841,410.29005 593.75728,411.39646 594.67297,412.82714 C 595.60767,414.2388 596.29441,415.9175 596.73319,417.86325 C 597.17191,419.80903 597.39128,421.93602 597.39132,424.24421 M 589.00735,424.24421 C 589.00733,420.73422 588.49227,418.13033 587.46219,416.43253 C 586.43205,414.73478 584.8392,413.8859 582.68361,413.88587 C 581.86332,413.8859 581.05259,414.04804 580.25141,414.37231 C 579.45019,414.69663 578.73484,415.26892 578.10534,416.08916 C 577.47581,416.89039 576.9703,417.97772 576.58879,419.35118 C 576.20725,420.70561 576.01649,422.42246 576.0165,424.50174 C 576.01649,426.52383 576.20725,428.20252 576.58879,429.53784 C 576.9703,430.87318 577.46628,431.94144 578.07673,432.74263 C 578.68715,433.54384 579.39296,434.10658 580.19418,434.43087 C 580.99536,434.75517 581.80609,434.91732 582.62639,434.91731 C 584.66751,434.91732 586.24129,434.07797 587.34773,432.39926 C 588.45412,430.7015 589.00733,427.98315 589.00735,424.24421 M 616.59145,440.41124 C 614.35953,440.41124 612.347,440.08695 610.55385,439.43836 C 608.77976,438.7707 607.26321,437.7692 606.00419,436.43387 C 604.74516,435.07947 603.78182,433.39123 603.11416,431.36915 C 602.44649,429.32802 602.11266,426.9435 602.11266,424.2156 C 602.11266,421.25882 602.50372,418.76938 603.28584,416.74729 C 604.08704,414.72525 605.1553,413.09424 606.49064,411.85426 C 607.84503,410.59527 609.39974,409.68915 611.15475,409.13591 C 612.90974,408.58273 614.76013,408.30613 616.70591,408.3061 C 619.14763,408.30613 621.22693,408.73534 622.94381,409.59374 C 624.67971,410.43312 626.10088,411.61584 627.20732,413.1419 C 628.31371,414.66802 629.12445,416.49932 629.63953,418.63583 C 630.15456,420.7533 630.41208,423.09966 630.41211,425.67492 L 630.41211,425.90384 L 610.55385,425.90384 C 610.55384,427.20103 610.6683,428.41236 610.89722,429.53784 C 611.12613,430.64427 611.49811,431.60761 612.01318,432.42788 C 612.52822,433.22908 613.19589,433.86813 614.01617,434.34503 C 614.83643,434.80286 615.82839,435.03178 616.99205,435.03177 C 618.40367,435.03178 619.55777,434.7361 620.45437,434.14473 C 621.35093,433.5343 621.98998,432.59957 622.37152,431.34054 L 629.95429,431.99867 C 629.61089,432.87617 629.12445,433.8109 628.49496,434.80286 C 627.8845,435.79482 627.06423,436.71047 626.03414,437.54982 C 625.004,438.3701 623.71637,439.05684 622.17122,439.61005 C 620.64511,440.14418 618.78519,440.41124 616.59145,440.41124 M 616.59145,413.37081 C 615.77116,413.37084 614.99858,413.51391 614.2737,413.80003 C 613.56787,414.06712 612.9479,414.50587 612.41378,415.11628 C 611.89871,415.70767 611.47903,416.48025 611.15475,417.43403 C 610.83045,418.38786 610.64922,419.53243 610.61108,420.86774 L 622.62905,420.86774 C 622.47642,418.36878 621.87552,416.49932 620.82635,415.25935 C 619.77715,414.00035 618.36551,413.37084 616.59145,413.37081 M 643.68911,440.41124 C 642.20116,440.41124 640.86583,440.21094 639.68312,439.81034 C 638.51947,439.39067 637.52751,438.78977 636.70724,438.00765 C 635.88697,437.20645 635.25745,436.22403 634.81871,435.06039 C 634.37995,433.89675 634.16058,432.57096 634.16058,431.08301 C 634.16058,429.25171 634.47533,427.71608 635.10485,426.47612 C 635.75343,425.21711 636.63093,424.20608 637.73735,423.44302 C 638.84376,422.66091 640.14094,422.09817 641.62889,421.75478 C 643.11682,421.39235 644.70013,421.20159 646.37885,421.18249 L 653.04596,421.06804 L 653.04596,419.49426 C 653.04594,418.36878 652.94102,417.43405 652.7312,416.69006 C 652.54042,415.92704 652.25428,415.30707 651.87277,414.83014 C 651.49123,414.35326 651.01433,414.01943 650.44206,413.82864 C 649.88884,413.61883 649.24979,413.51391 648.52491,413.51389 C 647.85723,413.51391 647.25633,413.58068 646.72222,413.71419 C 646.20715,413.84774 645.75886,414.0862 645.37735,414.42954 C 644.99581,414.75386 644.68106,415.20215 644.43308,415.77441 C 644.20415,416.32764 644.04201,417.03346 643.94664,417.89186 L 635.56267,417.49126 C 635.79158,416.13688 636.21126,414.90647 636.8217,413.80003 C 637.43213,412.67456 638.27148,411.70168 639.33975,410.88138 C 640.42708,410.06113 641.75287,409.43162 643.31713,408.99284 C 644.90043,408.53504 646.75082,408.30613 648.86828,408.3061 C 650.79495,408.30613 652.5118,408.54458 654.01884,409.02145 C 655.52583,409.49839 656.80393,410.21374 657.85314,411.16752 C 658.90231,412.10228 659.7035,413.25638 660.25674,414.62984 C 660.80992,416.00335 661.08652,417.5962 661.08655,419.40841 L 661.08655,430.68241 C 661.08652,431.40731 661.11514,432.0559 661.17239,432.62818 C 661.24867,433.20047 661.37266,433.68691 661.54438,434.0875 C 661.73511,434.46903 661.99264,434.76471 662.31696,434.97454 C 662.6603,435.16531 663.09905,435.26069 663.63321,435.26069 C 664.24362,435.26069 664.83498,435.20346 665.4073,435.089 L 665.4073,439.43836 C 664.93036,439.55282 664.50115,439.65774 664.11966,439.75312 C 663.7381,439.8485 663.35658,439.9248 662.97509,439.98203 C 662.59353,440.03926 662.1834,440.08695 661.74468,440.1251 C 661.32497,440.16325 660.82899,440.18233 660.25674,440.18233 C 658.23464,440.18233 656.73717,439.68635 655.76431,438.69439 C 654.81048,437.70243 654.23819,436.24311 654.04745,434.31642 L 653.87577,434.31642 C 652.80748,436.24311 651.434,437.74059 649.75532,438.80885 C 648.09568,439.87711 646.07361,440.41124 643.68911,440.41124 M 653.04596,425.50324 L 648.92551,425.56047 C 648.06707,425.59863 647.2468,425.67494 646.46469,425.78938 C 645.70163,425.88478 645.02443,426.10415 644.43308,426.44751 C 643.86078,426.77182 643.40296,427.24872 643.0596,427.87822 C 642.71622,428.50774 642.54453,429.36617 642.54454,430.4535 C 642.54453,431.92237 642.87836,433.01925 643.54604,433.74413 C 644.23277,434.44995 645.13888,434.80286 646.26439,434.80286 C 647.29449,434.80286 648.22922,434.58349 649.06858,434.14473 C 649.90791,433.70599 650.61373,433.1337 651.18603,432.42788 C 651.77737,431.70299 652.2352,430.87318 652.55952,429.93844 C 652.88379,429.00372 653.04594,428.04992 653.04596,427.07702 L 653.04596,425.50324 M 676.73852,408.87838 L 676.73852,426.24721 C 676.73851,427.44902 676.83389,428.55543 677.02467,429.56646 C 677.21542,430.55843 677.53017,431.41685 677.96894,432.14174 C 678.40767,432.84756 678.97042,433.40077 679.65717,433.80136 C 680.36298,434.20197 681.2214,434.40226 682.23245,434.40226 C 683.20532,434.40226 684.08282,434.19243 684.86496,433.77275 C 685.66614,433.334 686.35288,432.72357 686.92518,431.94144 C 687.49744,431.14025 687.9362,430.19598 688.24144,429.10863 C 688.56571,428.00223 688.72785,426.79089 688.72788,425.47463 L 688.72788,408.87838 L 696.76847,408.87838 L 696.76847,432.91432 C 696.76844,433.56291 696.76844,434.24966 696.76847,434.97454 C 696.78752,435.68036 696.80659,436.35757 696.8257,437.00615 C 696.86382,437.63567 696.89243,438.20795 696.91154,438.723 C 696.94966,439.21898 696.97828,439.59097 696.99739,439.83896 L 689.32878,439.83896 C 689.30968,439.61005 689.27152,439.2476 689.21432,438.75162 C 689.17614,438.23656 689.13799,437.67382 689.09986,437.06338 C 689.08076,436.45295 689.05215,435.84251 689.01402,435.23207 C 688.99492,434.62164 688.98538,434.10658 688.98541,433.6869 L 688.84234,433.6869 C 687.77405,436.03327 686.41011,437.74059 684.7505,438.80885 C 683.10994,439.87711 681.15463,440.41124 678.88459,440.41124 C 677.03419,440.41124 675.46041,440.10602 674.16325,439.49559 C 672.86606,438.88515 671.80734,438.05534 670.98707,437.00615 C 670.18587,435.93789 669.60404,434.67887 669.2416,433.22908 C 668.87915,431.7793 668.69793,430.21506 668.69793,428.53635 L 668.69793,408.87838 L 676.73852,408.87838 M 712.90688,440.35401 C 710.54143,440.35401 708.71966,439.71496 707.44157,438.43686 C 706.16346,437.13969 705.52441,435.18439 705.52442,432.57095 L 705.52442,414.31508 L 701.60427,414.31508 L 701.60427,408.87838 L 705.92502,408.87838 L 708.44307,401.61037 L 713.47917,401.61037 L 713.47917,408.87838 L 719.34508,408.87838 L 719.34508,414.31508 L 713.47917,414.31508 L 713.47917,430.39627 C 713.47916,431.90329 713.7653,433.01925 714.33759,433.74413 C 714.90986,434.44995 715.7969,434.80286 716.99872,434.80286 C 717.49468,434.80286 717.94297,434.76471 718.34358,434.6884 C 718.74417,434.6121 719.19245,434.51672 719.68845,434.40226 L 719.68845,439.38113 C 718.69647,439.70543 717.64729,439.94388 716.54089,440.09649 C 715.43446,440.26817 714.22312,440.35401 712.90688,440.35401 M 740.49098,441.46997 C 739.74699,443.2822 738.99348,444.84644 738.23045,446.1627 C 737.46739,447.47895 736.6185,448.56628 735.68379,449.42472 C 734.76812,450.30221 733.72847,450.9508 732.56484,451.37049 C 731.42026,451.79015 730.08493,451.99999 728.55885,452 C 727.71949,451.99999 726.86107,451.97137 725.98357,451.91416 C 725.10606,451.85691 724.27625,451.76153 723.49414,451.62801 L 723.49414,445.90517 C 723.87565,445.96239 724.33348,446.01008 724.86762,446.04824 C 725.42082,446.10546 725.88819,446.13408 726.26971,446.13408 C 727.05183,446.13408 727.74811,446.04824 728.35855,445.87656 C 728.96898,445.70487 729.52219,445.41872 730.01818,445.01813 C 730.51414,444.61753 730.97197,444.0834 731.39166,443.41573 C 731.8304,442.74807 732.25007,441.90872 732.65068,440.89768 L 733.16574,439.5242 L 720.91886,408.87838 L 729.41728,408.87838 L 734.28169,423.38579 C 734.35798,423.59564 734.47244,423.94855 734.62506,424.44451 C 734.79673,424.94051 734.97796,425.51279 735.16873,426.16137 C 735.37856,426.79089 735.58839,427.45856 735.79825,428.16436 C 736.00807,428.87019 736.20837,429.54739 736.39914,430.19597 C 736.58989,430.82549 736.75204,431.38824 736.88559,431.88421 C 737.0191,432.3802 737.11448,432.7331 737.17173,432.94293 C 737.22894,432.7331 737.31478,432.38973 737.42926,431.91282 C 737.56277,431.41685 737.70584,430.86364 737.85847,430.2532 C 738.03014,429.6237 738.21136,428.96557 738.40214,428.27882 C 738.59288,427.59209 738.77411,426.93396 738.94581,426.30444 C 739.11748,425.67494 739.27008,425.11219 739.40364,424.6162 C 739.55623,424.10116 739.67068,423.72917 739.74701,423.50024 L 744.32528,408.87838 L 752.73786,408.87838 L 740.49098,441.46997 M 752.70925,439.83896 L 752.70925,431.11162 L 760.97875,431.11162 L 760.97875,439.83896 L 752.70925,439.83896"
     id="text2221" />
  <path
     id="text2209"
     d="M 849.48371,451.46513 C 847.46644,451.46512 845.68486,451.25774 844.13894,450.84299 C 842.61185,450.44707 841.30158,449.88149 840.20813,449.14624 C 839.13351,448.42982 838.26629,447.5626 837.60645,446.54455 C 836.96544,445.54535 836.5224,444.44246 836.27732,443.23589 L 844.22378,442.30267 C 844.50656,443.5281 845.10984,444.48959 846.03365,445.18715 C 846.97627,445.8847 848.2017,446.23347 849.70994,446.23348 C 850.65256,446.23347 851.51037,446.10151 852.28335,445.83757 C 853.07515,445.57363 853.74442,445.12116 854.29117,444.48017 C 854.85673,443.85802 855.29034,443.0285 855.59201,441.9916 C 855.91249,440.9547 856.07274,439.67271 856.07276,438.14563 C 856.07274,437.61775 856.07274,437.08045 856.07276,436.53372 C 856.07274,435.98699 856.08217,435.48739 856.10104,435.03492 C 856.11987,434.50705 856.12929,433.99802 856.12932,433.50784 L 856.07276,433.50784 C 855.14895,435.48739 853.8481,436.9202 852.17023,437.80628 C 850.51116,438.69236 848.53163,439.1354 846.2316,439.1354 C 844.28975,439.1354 842.61185,438.75835 841.1979,438.00424 C 839.80278,437.23127 838.64334,436.16609 837.71956,434.80869 C 836.79577,433.43244 836.10764,431.80167 835.65518,429.91639 C 835.22156,428.01226 835.00476,425.9196 835.00476,423.6384 C 835.00476,421.28182 835.24042,419.15146 835.71174,417.2473 C 836.18305,415.32434 836.89946,413.67473 837.86096,412.29845 C 838.84129,410.92222 840.06673,409.86646 841.53725,409.13118 C 843.02661,408.37709 844.78935,408.00004 846.82546,408.00001 C 848.86155,408.00004 850.68084,408.43365 852.28335,409.30085 C 853.90467,410.16811 855.1678,411.57264 856.07276,413.51445 L 856.21416,413.51445 C 856.21413,413.11857 856.22356,412.6661 856.24243,412.15705 C 856.28012,411.6292 856.31782,411.1296 856.35555,410.65825 C 856.39323,410.16811 856.43094,409.73449 856.46866,409.35741 C 856.52521,408.98038 856.57233,408.72587 856.61007,408.59387 L 864.13233,408.59387 C 864.09459,409.2726 864.05689,410.22467 864.01921,411.45007 C 863.98148,412.67553 863.96262,414.08006 863.96265,415.66367 L 863.96265,438.25875 C 863.96262,440.48338 863.64213,442.41579 863.00116,444.05598 C 862.36013,445.71502 861.4175,447.09128 860.17324,448.18475 C 858.94778,449.2782 857.43013,450.09829 855.62029,450.64504 C 853.82926,451.19176 851.78373,451.46512 849.48371,451.46513 M 856.12932,423.46873 C 856.12929,421.54576 855.94076,419.94327 855.56373,418.66126 C 855.18666,417.3793 854.69648,416.35182 854.09322,415.57883 C 853.4899,414.80589 852.79236,414.25916 852.00056,413.93864 C 851.22757,413.61817 850.44518,413.45792 849.65338,413.45789 C 848.63531,413.45792 847.73038,413.65587 846.93858,414.05176 C 846.1656,414.44769 845.50575,415.0604 844.95903,415.8899 C 844.41229,416.71945 843.99753,417.7752 843.71475,419.05717 C 843.43195,420.33918 843.29055,421.86626 843.29056,423.6384 C 843.29055,426.93765 843.81843,429.42622 844.8742,431.10411 C 845.92994,432.78202 847.50414,433.62096 849.59682,433.62096 C 850.38862,433.62096 851.17101,433.47014 851.94399,433.16849 C 852.73579,432.848 853.44277,432.30127 854.06493,431.5283 C 854.68705,430.73649 855.18666,429.69016 855.56373,428.38931 C 855.94076,427.08848 856.12929,425.44829 856.12932,423.46873 M 891.90251,439.19196 L 891.90251,422.02649 C 891.90248,420.83878 891.80822,419.75475 891.61971,418.77438 C 891.43116,417.7752 891.12009,416.92683 890.6865,416.22925 C 890.25286,415.51287 889.68727,414.95671 888.98974,414.56078 C 888.29217,414.1649 887.44379,413.96694 886.44462,413.96692 C 885.4831,413.96694 884.60645,414.18375 883.81465,414.61734 C 883.04167,415.03212 882.3724,415.63541 881.80682,416.42721 C 881.24123,417.20019 880.79819,418.13341 880.47771,419.22685 C 880.17605,420.30148 880.02523,421.4892 880.02524,422.79003 L 880.02524,439.19196 L 872.07879,439.19196 L 872.07879,415.43744 C 872.07878,414.77761 872.06935,414.09891 872.0505,413.40133 C 872.0505,412.70381 872.03165,412.04396 871.99395,411.42179 C 871.97509,410.78082 871.95624,410.21524 871.93739,409.72504 C 871.91853,409.21604 871.89025,408.83899 871.85255,408.59387 L 879.43138,408.59387 C 879.46907,408.82013 879.50677,409.18776 879.54449,409.69676 C 879.58218,410.18696 879.61989,410.73369 879.65761,411.33695 C 879.6953,411.94027 879.72359,412.54356 879.74245,413.14682 C 879.78014,413.75014 879.799,414.25916 879.79901,414.6739 L 879.91213,414.6739 C 880.98672,412.33618 882.3347,410.63943 883.95605,409.58364 C 885.57737,408.52792 887.50978,408.00004 889.75328,408.00001 C 891.60084,408.00004 893.15619,408.30168 894.41935,408.90494 C 895.70132,409.50826 896.73822,410.33778 897.53006,411.39351 C 898.3407,412.44929 898.92514,413.69358 899.28337,415.12637 C 899.64154,416.5592 899.82065,418.10513 899.82068,419.76415 L 899.82068,439.19196 L 891.90251,439.19196 M 914.97832,408.59387 L 914.97832,425.75934 C 914.97831,426.94708 915.07257,428.04054 915.26111,429.03973 C 915.44963,430.02008 915.7607,430.86846 916.19433,431.58486 C 916.62793,432.28242 917.18408,432.82915 917.8628,433.22505 C 918.56034,433.62096 919.40871,433.81892 920.40793,433.81891 C 921.3694,433.81892 922.23663,433.61154 923.00962,433.19677 C 923.80142,432.76316 924.48011,432.15987 925.04572,431.3869 C 925.61128,430.59509 926.0449,429.66188 926.34656,428.58726 C 926.66703,427.49381 926.82728,426.29666 926.82731,424.9958 L 926.82731,408.59387 L 934.77376,408.59387 L 934.77376,432.3484 C 934.77373,432.9894 934.77373,433.6681 934.77376,434.3845 C 934.79258,435.08206 934.81143,435.75133 934.83032,436.39232 C 934.86799,437.01447 934.89627,437.58005 934.91516,438.08907 C 934.95283,438.57925 934.98111,438.94688 935,439.19196 L 927.42117,439.19196 C 927.40229,438.96573 927.36459,438.60753 927.30806,438.11735 C 927.27032,437.60833 927.23262,437.05217 927.19493,436.44888 C 927.17606,435.84559 927.14778,435.2423 927.1101,434.63901 C 927.09122,434.03573 927.0818,433.5267 927.08182,433.11193 L 926.94042,433.11193 C 925.88465,435.43083 924.53667,437.11816 922.8965,438.17391 C 921.27514,439.22967 919.34273,439.75754 917.09926,439.75755 C 915.27053,439.75754 913.71518,439.4559 912.4332,438.85261 C 911.1512,438.24932 910.10487,437.42923 909.2942,436.39232 C 908.50238,435.33657 907.92737,434.09228 907.56917,432.65947 C 907.21097,431.22666 907.03187,429.68073 907.03187,428.02168 L 907.03187,408.59387 L 914.97832,408.59387"
     style="font-size:72px;font-style:normal;font-weight:bold;fill:#e68924;fill-opacity:1;stroke:none;stroke-width:1px;stroke-linecap:butt;stroke-linejoin:miter;stroke-opacity:1;font-family:Liberation Sans" />
</svg>
