<?xml version="1.0" encoding="UTF-8" standalone="no"?>
<!-- Created with Inkscape (http://www.inkscape.org/) -->
<svg
   xmlns:dc="http://purl.org/dc/elements/1.1/"
   xmlns:cc="http://web.resource.org/cc/"
   xmlns:rdf="http://www.w3.org/1999/02/22-rdf-syntax-ns#"
   xmlns:svg="http://www.w3.org/2000/svg"
   xmlns="http://www.w3.org/2000/svg"
   xmlns:xlink="http://www.w3.org/1999/xlink"
   xmlns:sodipodi="http://sodipodi.sourceforge.net/DTD/sodipodi-0.dtd"
   xmlns:inkscape="http://www.inkscape.org/namespaces/inkscape"
   id="svg2"
   sodipodi:version="0.32"
   inkscape:version="0.45.1"
   width="1280"
   height="1024"
   version="1.0"
   sodipodi:docbase="/home/fabio/Imagens/Wallpapers/Elegant Brit"
   sodipodi:docname="4.svg"
   inkscape:output_extension="org.inkscape.output.svg.inkscape">
  <metadata
     id="metadata7">
    <rdf:RDF>
      <cc:Work
         rdf:about="">
        <dc:format>image/svg+xml</dc:format>
        <dc:type
           rdf:resource="http://purl.org/dc/dcmitype/StillImage" />
      </cc:Work>
    </rdf:RDF>
  </metadata>
  <defs
     id="defs5">
    <linearGradient
       y2="803.17938"
       x2="959.54059"
       y1="771.59735"
       x1="959.54059"
       gradientUnits="userSpaceOnUse"
       id="linearGradient13429"
       xlink:href="#linearGradient5254"
       inkscape:collect="always" />
    <linearGradient
       y2="803.17938"
       x2="959.54059"
       y1="771.59735"
       x1="959.54059"
       gradientUnits="userSpaceOnUse"
       id="linearGradient5981"
       xlink:href="#linearGradient5254"
       inkscape:collect="always" />
    <linearGradient
       y2="810.34253"
       x2="959.54059"
       y1="771.60901"
       x1="959.54059"
       gradientUnits="userSpaceOnUse"
       id="linearGradient5885"
       xlink:href="#linearGradient5314"
       inkscape:collect="always" />
    <linearGradient
       y2="810.34253"
       x2="959.54059"
       y1="771.60901"
       x1="959.54059"
       gradientUnits="userSpaceOnUse"
       id="linearGradient5883"
       xlink:href="#linearGradient5320"
       inkscape:collect="always" />
    <linearGradient
       y2="803.17938"
       x2="959.54059"
       y1="771.59735"
       x1="959.54059"
       gradientUnits="userSpaceOnUse"
       id="linearGradient5881"
       xlink:href="#linearGradient5254"
       inkscape:collect="always" />
    <linearGradient
       y2="803.17938"
       x2="959.54059"
       y1="771.59735"
       x1="959.54059"
       gradientUnits="userSpaceOnUse"
       id="linearGradient4788"
       xlink:href="#linearGradient5254"
       inkscape:collect="always" />
    <linearGradient
       y2="803.17938"
       x2="959.54059"
       y1="771.59735"
       x1="959.54059"
       gradientUnits="userSpaceOnUse"
       id="linearGradient2689"
       xlink:href="#linearGradient5254"
       inkscape:collect="always" />
    <linearGradient
       y2="803.17938"
       x2="959.54059"
       y1="771.59735"
       x1="959.54059"
       gradientUnits="userSpaceOnUse"
       id="linearGradient2536"
       xlink:href="#linearGradient5254"
       inkscape:collect="always" />
    <linearGradient
       gradientUnits="userSpaceOnUse"
       y2="803.17938"
       x2="959.54059"
       y1="771.59735"
       x1="959.54059"
       id="linearGradient5260"
       xlink:href="#linearGradient5254"
       inkscape:collect="always" />
    <linearGradient
       id="linearGradient5254">
      <stop
         id="stop5256"
         offset="0"
         style="stop-color:#c0c0c0;stop-opacity:0.38403043" />
      <stop
         id="stop5258"
         offset="1"
         style="stop-color:#000000;stop-opacity:0" />
    </linearGradient>
    <linearGradient
       id="linearGradient5320">
      <stop
         style="stop-color:#c0c0c0;stop-opacity:0.30038023"
         offset="0"
         id="stop5322" />
      <stop
         style="stop-color:#000000;stop-opacity:0"
         offset="1"
         id="stop5324" />
    </linearGradient>
    <linearGradient
       id="linearGradient5314">
      <stop
         style="stop-color:#c0c0c0;stop-opacity:0.30038023"
         offset="0"
         id="stop5316" />
      <stop
         style="stop-color:#000000;stop-opacity:0"
         offset="1"
         id="stop5318" />
    </linearGradient>
    <linearGradient
       id="linearGradient3811">
      <stop
         id="stop3813"
         offset="0"
         style="stop-color:#5b5e63;stop-opacity:1;" />
      <stop
         style="stop-color:#404246;stop-opacity:0.49803922;"
         offset="0.5"
         id="stop8487" />
      <stop
         id="stop3815"
         offset="1"
         style="stop-color:#262729;stop-opacity:0;" />
    </linearGradient>
    <linearGradient
       id="linearGradient8490">
      <stop
         id="stop8492"
         offset="0"
         style="stop-color:#8e8e8e;stop-opacity:1;" />
      <stop
         id="stop8494"
         offset="1"
         style="stop-color:#262729;stop-opacity:0;" />
    </linearGradient>
    <linearGradient
       id="linearGradient13375">
      <stop
         id="stop13377"
         offset="0"
         style="stop-color:#5b5f62;stop-opacity:1;" />
      <stop
         id="stop13379"
         offset="1"
         style="stop-color:#666a6e;stop-opacity:0;" />
    </linearGradient>
    <linearGradient
       id="linearGradient13393">
      <stop
         id="stop13395"
         offset="0"
         style="stop-color:#95999d;stop-opacity:1;" />
      <stop
         id="stop13397"
         offset="1"
         style="stop-color:#676b70;stop-opacity:1;" />
    </linearGradient>
  </defs>
  <sodipodi:namedview
     inkscape:window-height="684"
     inkscape:window-width="995"
     inkscape:pageshadow="2"
     inkscape:pageopacity="0.0"
     guidetolerance="10.0"
     gridtolerance="10.0"
     objecttolerance="10.0"
     borderopacity="1.0"
     bordercolor="#666666"
     pagecolor="#ffffff"
     id="base"
     width="1280px"
     height="1024px"
     showgrid="true"
     inkscape:zoom="1"
     inkscape:cx="640"
     inkscape:cy="512"
     inkscape:window-x="204"
     inkscape:window-y="49"
     inkscape:current-layer="svg2"
     showguides="true"
     inkscape:guide-bbox="true" />
  <rect
     style="opacity:1;fill:#262729;fill-opacity:1;stroke:none;stroke-opacity:1"
     id="rect2159"
     width="1279.8892"
     height="1024"
     x="0.11081791"
     y="0"
     inkscape:export-filename="/home/fabio/FreeAsInBeauty.png"
     inkscape:export-xdpi="90"
     inkscape:export-ydpi="90" />
  <rect
     style="opacity:1;fill:#ffffff;fill-opacity:1;stroke:none;stroke-opacity:1"
     id="rect44296"
     width="340"
     height="339.99997"
     x="300"
     y="344.00003" />
  <rect
     style="opacity:1;fill:#e04613;fill-opacity:1;stroke:none;stroke-opacity:1"
     id="rect5226"
     width="339.99994"
     height="339.99997"
     x="640.00006"
     y="344" />
  <rect
     style="opacity:1;fill:#e06f13;fill-opacity:1;stroke:none;stroke-opacity:1"
     id="rect6197"
     width="39.999939"
     height="340"
     x="1240"
     y="344" />
  <rect
     style="opacity:1;fill:#277699;fill-opacity:1;stroke:none;stroke-opacity:1"
     id="rect6199"
     width="100"
     height="340"
     x="4"
     y="-980"
     transform="matrix(0,1,-1,0,0,0)" />
  <path
     style="font-size:58.60190201px;font-style:normal;font-weight:normal;fill:#ffffff;fill-opacity:1;stroke:none;stroke-width:1px;stroke-linecap:butt;stroke-linejoin:miter;stroke-opacity:1;font-family:FilosofiaUnicase"
     d="M 689.99998,633.28952 L 689.99998,580.57133 L 699.98232,580.57133 L 699.98232,633.28952 L 689.99998,633.28952 M 710.17782,587.92488 L 710.17782,580.57133 L 720.16017,580.57133 L 720.16017,587.92488 L 710.17782,587.92488 M 710.17782,633.28952 L 710.17782,594.85214 L 720.16017,594.85214 L 720.16017,633.28952 L 710.17782,633.28952 M 755.25826,633.28952 L 755.25826,611.72623 C 755.25822,610.23422 755.13981,608.87245 754.90302,607.64091 C 754.66615,606.38575 754.27539,605.32001 753.73071,604.44372 C 753.18597,603.5438 752.47549,602.84516 751.59924,602.34778 C 750.72296,601.85047 749.65722,601.6018 748.40206,601.60178 C 747.19419,601.6018 746.09295,601.87416 745.09828,602.41883 C 744.12727,602.93988 743.28652,603.69774 742.57606,604.69239 C 741.86555,605.66342 741.309,606.83572 740.90641,608.20931 C 740.52747,609.55926 740.338,611.05127 740.33802,612.68538 L 740.33802,633.28952 L 730.35567,633.28952 L 730.35567,603.44903 C 730.35566,602.62016 730.34381,601.76758 730.32014,600.89128 C 730.32014,600.01505 730.29645,599.18615 730.24909,598.40458 C 730.2254,597.5994 730.20172,596.8889 730.17805,596.27311 C 730.15436,595.63371 730.11883,595.16006 730.07147,594.85214 L 739.592,594.85214 C 739.63935,595.13637 739.68672,595.59818 739.7341,596.23759 C 739.78145,596.85338 739.82882,597.54019 739.8762,598.298 C 739.92356,599.05589 739.95907,599.81374 739.98277,600.57156 C 740.03013,601.32945 740.0538,601.96889 740.05383,602.48988 L 740.19591,602.48988 C 741.54583,599.55324 743.23915,597.42178 745.27591,596.09549 C 747.31262,594.76929 749.74011,594.10617 752.55841,594.10613 C 754.8793,594.10617 756.83314,594.4851 758.41992,595.2429 C 760.03033,596.0008 761.33289,597.04285 762.32761,598.36905 C 763.34594,599.69533 764.08011,601.2584 764.53012,603.05827 C 764.98005,604.8582 765.20504,606.8002 765.20509,608.88427 L 765.20509,633.28952 L 755.25826,633.28952 M 784.24616,594.85214 L 784.24616,616.41544 C 784.24613,617.90748 784.36455,619.28108 784.6014,620.53627 C 784.83821,621.76779 785.22898,622.83352 785.77371,623.73346 C 786.31839,624.60973 787.01704,625.29654 787.86965,625.79387 C 788.74589,626.29123 789.81162,626.5399 791.06683,626.53989 C 792.27464,626.5399 793.36405,626.27938 794.33508,625.75835 C 795.32974,625.21365 796.18232,624.4558 796.89283,623.48479 C 797.6033,622.49012 798.148,621.31781 798.52696,619.96787 C 798.92954,618.59428 799.13084,617.09041 799.13087,615.45628 L 799.13087,594.85214 L 809.11322,594.85214 L 809.11322,624.69262 C 809.11318,625.49785 809.11318,626.35043 809.11322,627.25037 C 809.13687,628.12665 809.16054,628.96739 809.18427,629.7726 C 809.23159,630.55415 809.26712,631.26463 809.29084,631.90407 C 809.33816,632.51983 809.37369,632.98164 809.39742,633.28952 L 799.87688,633.28952 C 799.85317,633.00533 799.80581,632.55535 799.73478,631.93959 C 799.68738,631.30016 799.64002,630.60151 799.59268,629.84365 C 799.56897,629.08581 799.53345,628.32795 799.48611,627.57009 C 799.4624,626.81224 799.45055,626.17281 799.45059,625.65178 L 799.27297,625.65178 C 797.94669,628.56477 796.25337,630.6844 794.19297,632.01064 C 792.15623,633.33688 789.72873,634 786.91048,634 C 784.61322,634 782.65938,633.62108 781.04896,632.86323 C 779.43851,632.10537 778.12411,631.07516 777.10575,629.7726 C 776.11107,628.44636 775.38873,626.88329 774.93876,625.08339 C 774.48878,623.2835 774.2638,621.3415 774.2638,619.25739 L 774.2638,594.85214 L 784.24616,594.85214 M 843.3232,633.28952 L 834.37103,619.36396 L 825.34785,633.28952 L 814.72606,633.28952 L 828.79372,613.43139 L 815.40103,594.85214 L 826.16491,594.85214 L 834.37103,607.42777 L 842.54168,594.85214 L 853.37658,594.85214 L 839.98396,613.32481 L 854.1581,633.28952 L 843.3232,633.28952 M 859.66437,633.28952 L 859.66437,622.45459 L 869.93091,622.45459 L 869.93091,633.28952 L 859.66437,633.28952"
     id="text8139" />
  <rect
     style="opacity:1;fill:#6c9eab;fill-opacity:1;stroke:none;stroke-opacity:1"
     id="rect8153"
     width="39.999939"
     height="340"
     x="6.1035156e-05"
     y="344" />
  <path
     style="font-size:58.60190201px;font-style:normal;font-weight:normal;fill:#e04613;fill-opacity:1;stroke:none;stroke-width:1px;stroke-linecap:butt;stroke-linejoin:miter;stroke-opacity:1;font-family:FilosofiaUnicase"
     d="M 383.21106,615.53876 C 383.21103,618.50479 382.90959,621.2417 382.30679,623.74954 C 381.72801,626.23329 380.82375,628.39148 379.59398,630.22413 C 378.36412,632.03268 376.79672,633.44334 374.89176,634.45613 C 373.01084,635.46891 370.78029,635.97529 368.20014,635.9753 C 367.04265,635.97529 365.88518,635.85473 364.72774,635.61359 C 363.57024,635.37245 362.47307,634.97458 361.43618,634.41995 C 360.39927,633.86533 359.44678,633.14191 358.57868,632.24969 C 357.71057,631.3575 356.96304,630.2603 356.33609,628.95815 L 356.26375,628.95815 C 356.26374,629.46455 356.23961,630.04329 356.1914,630.69435 C 356.16729,631.34543 356.13111,631.98446 356.0829,632.61141 C 356.03466,633.21426 355.97437,633.75682 355.90204,634.2391 C 355.85381,634.72138 355.80557,635.05897 355.75736,635.25188 L 345.8827,635.25188 C 345.95505,634.40791 346.01533,633.21426 346.06355,631.67097 C 346.1359,630.10357 346.17206,628.31914 346.17208,626.31768 L 346.17208,581.57429 L 356.33609,581.57429 L 356.33609,596.54904 C 356.33608,597.32072 356.32402,598.08031 356.29993,598.82781 C 356.29991,599.55125 356.28785,600.22645 356.26375,600.85338 C 356.23961,601.57683 356.21551,602.26407 356.1914,602.91511 L 356.33609,602.91511 C 357.56589,600.2144 359.25386,598.28528 361.40002,597.12777 C 363.54614,595.97034 366.02987,595.3916 368.85123,595.39157 C 371.35903,595.3916 373.51722,595.898 375.32581,596.91075 C 377.13432,597.89945 378.61732,599.29805 379.77483,601.10657 C 380.95638,602.89104 381.82447,605.01306 382.37912,607.47265 C 382.93371,609.93228 383.21103,612.62099 383.21106,615.53876 M 372.61298,615.53876 C 372.61296,611.10181 371.96188,607.81027 370.65977,605.66411 C 369.35758,603.518 367.34407,602.44493 364.61922,602.44489 C 363.5823,602.44493 362.55747,602.6499 361.5447,603.0598 C 360.5319,603.46976 359.62763,604.19319 358.83188,605.23006 C 358.0361,606.24287 357.39709,607.61736 356.91483,609.35354 C 356.43252,611.06564 356.19139,613.23589 356.1914,615.86428 C 356.19139,618.42038 356.43252,620.54241 356.91483,622.23037 C 357.39709,623.91834 358.02406,625.26873 358.79572,626.28151 C 359.56734,627.29429 360.45955,628.00566 361.47236,628.41559 C 362.48512,628.82552 363.50996,629.0305 364.54689,629.0305 C 367.12704,629.0305 369.11644,627.96948 370.51508,625.84746 C 371.91366,623.70133 372.61296,620.26509 372.61298,615.53876 M 407.48172,635.9753 C 404.66038,635.97529 402.11636,635.56536 399.84966,634.74549 C 397.60706,633.90151 395.69,632.63552 394.09849,630.94755 C 392.50697,629.23547 391.28921,627.10138 390.44524,624.54529 C 389.60124,621.96513 389.17926,618.95089 389.17926,615.50258 C 389.17926,611.76495 389.67359,608.61809 390.66226,606.06197 C 391.67504,603.50594 393.02542,601.4442 394.71341,599.87676 C 396.42548,598.28528 398.39076,597.13986 400.60925,596.44052 C 402.82771,595.74126 405.16677,595.3916 407.62641,595.39157 C 410.71297,595.3916 413.34138,595.93417 415.51166,597.01925 C 417.706,598.08031 419.50248,599.57537 420.90112,601.50444 C 422.29969,603.43359 423.32454,605.74854 423.97564,608.44925 C 424.62668,611.12593 424.95222,614.09193 424.95227,617.3473 L 424.95227,617.63667 L 399.84966,617.63667 C 399.84965,619.27642 399.99434,620.80765 400.28371,622.23037 C 400.57307,623.62898 401.04329,624.84673 401.69438,625.88362 C 402.34544,626.89643 403.18943,627.70424 404.22634,628.30707 C 405.26322,628.88582 406.51715,629.17518 407.98812,629.17517 C 409.77252,629.17518 411.23141,628.80142 412.36479,628.05387 C 413.49812,627.28224 414.30594,626.10066 414.78824,624.50913 L 424.37353,625.34107 C 423.93944,626.45032 423.32454,627.6319 422.52881,628.88581 C 421.75713,630.13974 420.72024,631.2972 419.41811,632.35821 C 418.11593,633.39511 416.48825,634.26321 414.53504,634.96252 C 412.6059,635.63771 410.2548,635.97529 407.48172,635.9753 M 407.48172,601.79382 C 406.4448,601.79385 405.4682,601.9747 404.55188,602.33637 C 403.65964,602.674 402.87595,603.22862 402.20078,604.00023 C 401.54969,604.7478 401.01917,605.72441 400.60925,606.93008 C 400.19931,608.13581 399.97021,609.58264 399.922,611.27059 L 415.11378,611.27059 C 414.92084,608.11169 414.16125,605.74854 412.835,604.18108 C 411.50873,602.58961 409.72429,601.79385 407.48172,601.79382 M 441.73555,635.9753 C 439.85465,635.97529 438.16668,635.72211 436.67162,635.21571 C 435.20067,634.68521 433.94675,633.92562 432.90985,632.93695 C 431.87296,631.92417 431.07719,630.68231 430.52259,629.21135 C 429.96795,627.7404 429.69065,626.06449 429.69065,624.18359 C 429.69065,621.86867 430.08852,619.92751 430.88429,618.36008 C 431.70415,616.76857 432.81339,615.49054 434.21201,614.52596 C 435.6106,613.53732 437.25035,612.82596 439.13125,612.39188 C 441.01213,611.93374 443.01357,611.69261 445.13562,611.66847 L 453.56344,611.52379 L 453.56344,609.53439 C 453.56341,608.11169 453.43078,606.93012 453.16555,605.98965 C 452.92439,605.0251 452.56269,604.24141 452.08042,603.63852 C 451.59812,603.03571 450.99528,602.61372 450.27188,602.37254 C 449.57256,602.10733 448.76474,601.9747 447.84843,601.97467 C 447.00442,601.9747 446.24483,602.05911 445.56967,602.22787 C 444.91858,602.3967 444.3519,602.69813 443.86963,603.13213 C 443.38734,603.5421 442.98947,604.10878 442.676,604.83217 C 442.3866,605.5315 442.18165,606.42372 442.06109,607.50881 L 431.46302,607.00242 C 431.75239,605.29036 432.28289,603.73502 433.05454,602.33637 C 433.82618,600.91369 434.88719,599.68388 436.23758,598.64694 C 437.61206,597.6101 439.28798,596.81432 441.26534,596.25966 C 443.26677,595.68098 445.60582,595.3916 448.28247,595.39157 C 450.71796,595.3916 452.88822,595.69303 454.79324,596.29584 C 456.69821,596.89873 458.31384,597.80301 459.64013,599.00866 C 460.96637,600.19027 461.97915,601.64917 462.6785,603.38533 C 463.37777,605.12157 463.72742,607.13507 463.72745,609.42588 L 463.72745,623.6772 C 463.72742,624.59354 463.76359,625.41341 463.83596,626.13683 C 463.93238,626.86025 464.08912,627.47515 464.30619,627.98153 C 464.54729,628.46381 464.87283,628.83759 465.28279,629.10284 C 465.71681,629.34398 466.27143,629.46455 466.94665,629.46455 C 467.71826,629.46455 468.4658,629.3922 469.18926,629.24752 L 469.18926,634.74549 C 468.58637,634.89017 468.04381,635.0228 467.56157,635.14338 C 467.07924,635.26395 466.59696,635.3604 466.11473,635.43273 C 465.63241,635.50508 465.11397,635.56536 464.55938,635.61359 C 464.02883,635.66182 463.40187,635.68593 462.6785,635.68593 C 460.12239,635.68593 458.22945,635.05897 456.99967,633.80504 C 455.79394,632.55113 455.07052,630.70641 454.82941,628.2709 L 454.61239,628.2709 C 453.26197,630.70641 451.52577,632.59936 449.40377,633.94973 C 447.30585,635.3001 444.74977,635.97529 441.73555,635.9753 M 453.56344,617.13026 L 448.35482,617.20261 C 447.26968,617.25086 446.23279,617.34731 445.24413,617.49197 C 444.27955,617.61257 443.42351,617.88987 442.676,618.32391 C 441.95256,618.73386 441.37383,619.3367 440.93979,620.13245 C 440.50574,620.92824 440.2887,622.01335 440.28872,623.38784 C 440.2887,625.24462 440.71069,626.63117 441.5547,627.54748 C 442.42278,628.43971 443.56819,628.88582 444.99093,628.88581 C 446.29307,628.88582 447.47466,628.60851 448.53567,628.05387 C 449.59667,627.49927 450.48888,626.77584 451.21232,625.88362 C 451.95982,624.96732 452.53856,623.91834 452.94853,622.73675 C 453.35844,621.55519 453.56341,620.3495 453.56344,619.11967 L 453.56344,617.13026 M 483.51292,596.11499 L 483.51292,618.07071 C 483.51291,619.5899 483.63347,620.98852 483.87464,622.26654 C 484.11576,623.52048 484.51364,624.6056 485.06828,625.52192 C 485.62288,626.41414 486.33424,627.11344 487.20235,627.61983 C 488.09456,628.12623 489.17968,628.37943 490.45773,628.37941 C 491.68752,628.37943 492.79676,628.11417 493.78546,627.58366 C 494.79821,627.02904 495.66632,626.2574 496.38976,625.26872 C 497.11316,624.25595 497.66777,623.0623 498.05363,621.6878 C 498.46353,620.28922 498.6685,618.75798 498.66853,617.09411 L 498.66853,596.11499 L 508.83255,596.11499 L 508.83255,626.49853 C 508.8325,627.31842 508.8325,628.18651 508.83255,629.10284 C 508.85662,629.99505 508.88074,630.85109 508.90489,631.67097 C 508.95307,632.46673 508.98924,633.19014 509.0134,633.84122 C 509.06159,634.46819 509.09776,634.9384 509.12192,635.25188 L 499.42812,635.25188 C 499.40398,634.96252 499.35574,634.50436 499.28343,633.87739 C 499.23517,633.22632 499.18694,632.51495 499.13874,631.7433 C 499.1146,630.97167 499.07844,630.20002 499.03024,629.42837 C 499.00609,628.65673 498.99403,628.00566 498.99407,627.47515 L 498.81322,627.47515 C 497.46281,630.44115 495.73866,632.59936 493.64077,633.94973 C 491.56696,635.3001 489.09528,635.97529 486.22574,635.9753 C 483.88667,635.97529 481.89728,635.58949 480.25755,634.81784 C 478.61779,634.04618 477.27947,632.99723 476.24258,631.67097 C 475.2298,630.32059 474.49431,628.72907 474.03615,626.89642 C 473.57799,625.06376 473.34891,623.08643 473.34891,620.96439 L 473.34891,596.11499 L 483.51292,596.11499 M 529.23292,635.90297 C 526.24278,635.90297 523.9399,635.09515 522.32429,633.47951 C 520.70864,631.83976 519.90083,629.36809 519.90084,626.06448 L 519.90084,602.98746 L 514.94543,602.98746 L 514.94543,596.11499 L 520.40723,596.11499 L 523.59027,586.92759 L 529.95634,586.92759 L 529.95634,596.11499 L 537.37137,596.11499 L 537.37137,602.98746 L 529.95634,602.98746 L 529.95634,623.31549 C 529.95633,625.22049 530.31803,626.63117 531.04146,627.54748 C 531.76487,628.43971 532.88615,628.88582 534.40536,628.88581 C 535.0323,628.88582 535.59898,628.83759 536.10539,628.74113 C 536.61177,628.64467 537.17844,628.52411 537.80542,628.37941 L 537.80542,634.67314 C 536.55148,635.08308 535.22521,635.38451 533.82662,635.57743 C 532.428,635.79444 530.89676,635.90297 529.23292,635.90297 M 564.10165,637.31362 C 563.16118,639.60444 562.20868,641.58178 561.24415,643.24565 C 560.27957,644.9095 559.20649,646.28399 558.02494,647.36913 C 556.86745,648.47835 555.55324,649.29822 554.08232,649.82875 C 552.63546,650.35924 550.94749,650.6245 549.01839,650.62451 C 547.95736,650.6245 546.87224,650.58832 545.76301,650.516 C 544.65376,650.44365 543.60481,650.32307 542.61615,650.1543 L 542.61615,642.92011 C 543.09841,642.99245 543.67715,643.05274 544.35234,643.10096 C 545.05164,643.1733 545.64244,643.20947 546.12472,643.20948 C 547.11339,643.20947 547.99354,643.10096 548.76519,642.88394 C 549.53682,642.66691 550.23613,642.3052 550.86311,641.79881 C 551.49006,641.29242 552.06879,640.61722 552.59931,639.77325 C 553.15392,638.92925 553.68442,637.86824 554.19082,636.59021 L 554.8419,634.85399 L 539.36076,596.11499 L 550.10352,596.11499 L 556.25256,614.45363 C 556.349,614.7189 556.49369,615.16501 556.68661,615.79196 C 556.90362,616.41893 557.13271,617.14234 557.37386,617.9622 C 557.63911,618.75798 557.90434,619.60196 558.16962,620.49416 C 558.43486,621.38639 558.68806,622.24243 558.9292,623.06229 C 559.17033,623.85806 559.3753,624.56943 559.54412,625.19638 C 559.71289,625.82336 559.83346,626.26947 559.90583,626.5347 C 559.97814,626.26947 560.08666,625.83541 560.23137,625.23254 C 560.40014,624.6056 560.58099,623.9063 560.77392,623.13464 C 560.99093,622.33889 561.22001,621.50696 561.46118,620.63884 C 561.70229,619.77076 561.93138,618.93884 562.14842,618.14306 C 562.36543,617.34731 562.55833,616.63595 562.72716,616.00897 C 562.92005,615.35792 563.06472,614.8877 563.1612,614.59831 L 568.94855,596.11499 L 579.58278,596.11499 L 564.10165,637.31362 M 579.54663,635.25188 L 579.54663,624.21977 L 590,624.21977 L 590,635.25188 L 579.54663,635.25188"
     id="text2205" />
  <path
     style="font-size:74.72340393px;font-style:normal;font-weight:normal;fill:#262729;fill-opacity:1;stroke:none;stroke-width:1px;stroke-linecap:butt;stroke-linejoin:miter;stroke-opacity:1;font-family:FilosofiaUnicase"
     d="M 462.66091,487.59973 L 462.66091,520.14527 L 452.44482,520.14527 L 452.44482,487.59973 L 446.68003,487.59973 L 446.68003,480.66738 L 452.44482,480.66738 L 452.44482,476.54446 C 452.44481,475.03642 452.62724,473.64995 452.99211,472.38505 C 453.35696,471.09593 453.97723,469.97702 454.8529,469.02834 C 455.72855,468.07975 456.90827,467.33787 458.39204,466.80269 C 459.8758,466.26761 461.72442,466.00005 463.93792,466 C 465.10546,466.00005 466.24868,466.06086 467.36761,466.18243 C 468.51082,466.3041 469.53242,466.43788 470.43244,466.58377 L 470.43244,473.18774 C 469.99458,473.0905 469.49594,473.01752 468.93651,472.96883 C 468.40136,472.8959 467.90272,472.85942 467.44058,472.85937 C 466.49192,472.85942 465.70139,472.95671 465.06899,473.15126 C 464.46087,473.3459 463.97439,473.63779 463.60955,474.02692 C 463.26899,474.41615 463.02575,474.9148 462.87983,475.52285 C 462.73387,476.10667 462.66089,476.78774 462.66091,477.56607 L 462.66091,480.66738 L 470.43244,480.66738 L 470.43244,487.59973 L 462.66091,487.59973 M 475.57697,520.14527 L 475.57697,489.93484 C 475.57696,489.08353 475.5648,488.18354 475.54048,487.23487 C 475.54048,486.28627 475.51615,485.38628 475.46751,484.5349 C 475.44318,483.65927 475.41886,482.88091 475.39454,482.1998 C 475.37021,481.49444 475.33372,480.98363 475.28508,480.66738 L 485.06334,480.66738 C 485.11197,480.95931 485.16062,481.47011 485.20928,482.1998 C 485.25791,482.90523 485.30656,483.6836 485.35523,484.5349 C 485.40386,485.38628 485.44034,486.23762 485.46468,487.08892 C 485.51332,487.91597 485.53764,488.58488 485.53766,489.09566 L 485.6836,489.09566 C 486.19439,487.66057 486.70519,486.38356 487.21601,485.26462 C 487.7268,484.12143 488.32274,483.16063 489.00383,482.38223 C 489.70921,481.57957 490.54838,480.97147 491.52137,480.55792 C 492.49431,480.12013 493.69834,479.90122 495.13348,479.90118 C 495.74156,479.90122 496.3375,479.96203 496.9213,480.08361 C 497.52937,480.18094 497.99153,480.30256 498.30777,480.44847 L 498.30777,489.02268 C 497.65099,488.87677 496.98208,488.75515 496.30104,488.65782 C 495.64426,488.53624 494.85373,488.47543 493.92944,488.47539 C 491.3754,488.47543 489.38083,489.5092 487.94573,491.57671 C 486.53492,493.64428 485.82953,496.7091 485.82954,500.77119 L 485.82954,520.14527 L 475.57697,520.14527 M 520.78317,520.87499 C 517.93724,520.87499 515.37106,520.46149 513.08462,519.63447 C 510.82247,518.78313 508.88871,517.50612 507.28334,515.80344 C 505.67794,514.07644 504.44958,511.92376 503.59825,509.34541 C 502.7469,506.74275 502.32123,503.70225 502.32123,500.2239 C 502.32123,496.4537 502.81987,493.27942 503.81716,490.70104 C 504.83877,488.12273 506.20091,486.04303 507.9036,484.46193 C 509.63059,482.85658 511.613,481.70119 513.85082,480.99576 C 516.08862,480.2904 518.44804,479.9377 520.92911,479.93766 C 524.04256,479.9377 526.69388,480.48499 528.88307,481.57953 C 531.09652,482.64983 532.90866,484.15792 534.31949,486.1038 C 535.73025,488.04976 536.76402,490.38486 537.4208,493.10912 C 538.07751,495.80911 538.40589,498.80096 538.40593,502.08469 L 538.40593,502.37657 L 513.08462,502.37657 C 513.0846,504.03062 513.23055,505.5752 513.52245,507.0103 C 513.81432,508.42111 514.28864,509.64947 514.9454,510.69539 C 515.60214,511.71701 516.45348,512.53186 517.49943,513.13996 C 518.54534,513.72374 519.81019,514.01563 521.29397,514.01562 C 523.09393,514.01563 524.56553,513.6386 525.70878,512.88455 C 526.85199,512.10619 527.66684,510.91432 528.15335,509.30892 L 537.82215,510.1481 C 537.38428,511.26701 536.76402,512.45889 535.96136,513.72373 C 535.18296,514.98859 534.13702,516.15614 532.82356,517.22639 C 531.51003,518.27233 529.86816,519.14799 527.89795,519.85339 C 525.952,520.53446 523.58041,520.87499 520.78317,520.87499 M 520.78317,486.39569 C 519.73722,486.39572 518.75209,486.57815 517.8278,486.94298 C 516.92779,487.28355 516.13726,487.843 515.45621,488.62134 C 514.79944,489.37541 514.26432,490.36054 513.85082,491.57671 C 513.4373,492.79294 513.20622,494.25238 513.15759,495.95503 L 528.48172,495.95503 C 528.2871,492.76861 527.5209,490.38486 526.1831,488.80377 C 524.84526,487.19842 523.04528,486.39572 520.78317,486.39569 M 562.37725,520.87499 C 559.53132,520.87499 556.96514,520.46149 554.67869,519.63447 C 552.41655,518.78313 550.48279,517.50612 548.87741,515.80344 C 547.27202,514.07644 546.04366,511.92376 545.19232,509.34541 C 544.34098,506.74275 543.91531,503.70225 543.91531,500.2239 C 543.91531,496.4537 544.41395,493.27942 545.41124,490.70104 C 546.43284,488.12273 547.79499,486.04303 549.49768,484.46193 C 551.22467,482.85658 553.20708,481.70119 555.4449,480.99576 C 557.68269,480.2904 560.04212,479.9377 562.52319,479.93766 C 565.63664,479.9377 568.28796,480.48499 570.47715,481.57953 C 572.6906,482.64983 574.50274,484.15792 575.91357,486.1038 C 577.32432,488.04976 578.35809,490.38486 579.01488,493.10912 C 579.67159,495.80911 579.99996,498.80096 580,502.08469 L 580,502.37657 L 554.67869,502.37657 C 554.67868,504.03062 554.82462,505.5752 555.11653,507.0103 C 555.4084,508.42111 555.88272,509.64947 556.53948,510.69539 C 557.19621,511.71701 558.04755,512.53186 559.0935,513.13996 C 560.13942,513.72374 561.40427,514.01563 562.88805,514.01562 C 564.68801,514.01563 566.15961,513.6386 567.30286,512.88455 C 568.44606,512.10619 569.26092,510.91432 569.74743,509.30892 L 579.41623,510.1481 C 578.97836,511.26701 578.35809,512.45889 577.55544,513.72373 C 576.77703,514.98859 575.7311,516.15614 574.41764,517.22639 C 573.10411,518.27233 571.46224,519.14799 569.49202,519.85339 C 567.54608,520.53446 565.17449,520.87499 562.37725,520.87499 M 562.37725,486.39569 C 561.33129,486.39572 560.34617,486.57815 559.42188,486.94298 C 558.52187,487.28355 557.73134,487.843 557.05029,488.62134 C 556.39352,489.37541 555.85839,490.36054 555.4449,491.57671 C 555.03138,492.79294 554.8003,494.25238 554.75167,495.95503 L 570.0758,495.95503 C 569.88118,492.76861 569.11497,490.38486 567.77718,488.80377 C 566.43933,487.19842 564.63936,486.39572 562.37725,486.39569"
     id="text2202" />
  <path
     style="font-size:76.13373566px;font-style:normal;font-weight:bold;fill:#262729;fill-opacity:1;stroke:none;stroke-width:1px;stroke-linecap:butt;stroke-linejoin:miter;stroke-opacity:1;font-family:Liberation Sans"
     d="M 425.83661,581.91068 C 423.90351,581.91068 422.16869,581.65046 420.63215,581.13001 C 419.12037,580.58478 417.83165,579.80412 416.76599,578.78801 C 415.70031,577.74712 414.88247,576.47079 414.31246,574.95901 C 413.74244,573.44725 413.45744,571.72483 413.45744,569.79174 C 413.45744,567.41257 413.86636,565.41753 414.6842,563.80661 C 415.52683,562.17095 416.66685,560.85744 418.10427,559.8661 C 419.54169,558.85001 421.22694,558.11891 423.16003,557.67279 C 425.0931,557.20194 427.1501,556.9541 429.33103,556.9293 L 437.99273,556.7806 L 437.99273,554.73599 C 437.9927,553.27382 437.85639,552.05944 437.5838,551.09287 C 437.33595,550.10158 436.9642,549.29613 436.46856,548.67652 C 435.97288,548.05697 435.3533,547.62327 434.60983,547.37541 C 433.8911,547.10283 433.06086,546.96652 432.11913,546.96648 C 431.2517,546.96652 430.47103,547.05326 429.77712,547.22671 C 429.10796,547.40022 428.52556,547.71001 428.02991,548.15607 C 427.53423,548.57742 427.12531,549.15982 426.80315,549.90328 C 426.50574,550.62202 426.29508,551.539 426.17118,552.65421 L 415.279,552.13376 C 415.57639,550.37419 416.12162,548.77568 416.91468,547.33823 C 417.70774,545.87606 418.79819,544.61212 420.18606,543.54641 C 421.59868,542.48078 423.32111,541.66294 425.35334,541.09289 C 427.41032,540.49813 429.81428,540.20073 432.56522,540.20069 C 435.06829,540.20073 437.29877,540.51052 439.25666,541.13006 C 441.2145,541.74968 442.87497,542.67904 444.23807,543.91816 C 445.60111,545.13257 446.642,546.63195 447.36074,548.4163 C 448.07942,550.20071 448.43877,552.2701 448.43881,554.62447 L 448.43881,569.27129 C 448.43877,570.21306 448.47595,571.05568 448.55033,571.79917 C 448.64943,572.54267 448.81052,573.17464 449.0336,573.69508 C 449.2814,574.19075 449.61597,574.57488 450.03732,574.84749 C 450.48338,575.09533 451.05339,575.21924 451.74736,575.21924 C 452.54037,575.21924 453.30865,575.14489 454.05219,574.99619 L 454.05219,580.64674 C 453.43257,580.79544 452.87495,580.93175 452.37933,581.05566 C 451.88362,581.17958 451.38796,581.27871 450.89234,581.35306 C 450.39664,581.42741 449.8638,581.48937 449.29383,581.53893 C 448.74856,581.5885 448.1042,581.61328 447.36074,581.61328 C 444.7337,581.61328 442.78823,580.96892 441.52432,579.6802 C 440.28513,578.39148 439.54164,576.49557 439.29384,573.99247 L 439.07079,573.99247 C 437.68291,576.49557 435.89853,578.44105 433.71764,579.8289 C 431.56149,581.21675 428.93448,581.91068 425.83661,581.91068 M 437.99273,562.54267 L 432.63957,562.61702 C 431.52431,562.66661 430.45864,562.76574 429.44255,562.91442 C 428.45121,563.03835 427.57141,563.32336 426.80315,563.76944 C 426.05964,564.19077 425.46485,564.81034 425.01876,565.62817 C 424.57265,566.44603 424.34961,567.56127 424.34962,568.97389 C 424.34961,570.8822 424.78331,572.30723 425.65073,573.24898 C 426.54291,574.16596 427.72011,574.62445 429.18233,574.62444 C 430.5206,574.62445 431.73497,574.33944 432.82545,573.76943 C 433.91588,573.19942 434.83285,572.45593 435.57637,571.53894 C 436.34462,570.5972 436.93942,569.51913 437.36076,568.30475 C 437.78204,567.09039 437.9927,565.85123 437.99273,564.58728 L 437.99273,562.54267 M 492.82537,569.41999 C 492.82533,571.35308 492.41641,573.0879 491.59861,574.62444 C 490.80551,576.161 489.64071,577.47451 488.10419,578.56496 C 486.5676,579.63063 484.68409,580.46087 482.45364,581.05566 C 480.22313,581.62567 477.68286,581.91068 474.83283,581.91068 C 472.28015,581.91068 469.97532,581.72481 467.91834,581.35306 C 465.86133,580.98131 464.05216,580.37413 462.49084,579.5315 C 460.95428,578.66409 459.66556,577.54885 458.62467,576.18578 C 457.58378,574.82271 456.80311,573.13746 456.28267,571.13002 L 465.46481,569.75456 C 465.7622,570.86981 466.17112,571.77439 466.69158,572.46831 C 467.21201,573.16225 467.85637,573.69508 468.62466,574.06682 C 469.39292,574.43858 470.28511,574.68641 471.30124,574.81032 C 472.34211,574.93424 473.51931,574.9962 474.83283,574.99619 C 476.0224,574.9962 477.12525,574.93424 478.14138,574.81032 C 479.18224,574.66162 480.07443,574.42618 480.81795,574.104 C 481.5862,573.75704 482.181,573.28616 482.60234,572.69136 C 483.02362,572.07179 483.23428,571.30352 483.23431,570.38653 C 483.23428,569.34565 482.92449,568.52781 482.30494,567.933 C 481.71012,567.31344 480.87988,566.81778 479.81424,566.44601 C 478.77332,566.0495 477.53417,565.71493 476.09677,565.4423 C 474.68411,565.14492 473.17234,564.81034 471.56146,564.43858 C 469.87619,564.06685 468.21572,563.62076 466.58005,563.10029 C 464.94436,562.57987 463.48215,561.87355 462.19344,560.98134 C 460.90471,560.08917 459.86382,558.96154 459.07077,557.59844 C 458.2777,556.21061 457.88117,554.4634 457.88118,552.35681 C 457.88117,550.44854 458.25292,548.7509 458.99642,547.26388 C 459.73991,545.75215 460.83036,544.47582 462.26779,543.43489 C 463.7052,542.36925 465.47719,541.5638 467.58377,541.01854 C 469.7151,540.44857 472.15624,540.16356 474.90718,540.16352 C 477.08807,540.16356 479.12028,540.37422 481.00383,540.79549 C 482.88731,541.19206 484.57256,541.83642 486.05958,542.72857 C 487.54654,543.59602 488.78569,544.71126 489.77705,546.07429 C 490.79312,547.4374 491.49944,549.08547 491.89601,551.01852 L 482.63951,551.98507 C 482.466,551.01855 482.15621,550.2255 481.71015,549.60589 C 481.26402,548.96156 480.7064,548.4535 480.03728,548.08172 C 479.3929,547.71001 478.63701,547.46218 477.76963,547.33823 C 476.9022,547.18957 475.94805,547.11522 474.90718,547.11518 C 472.42885,547.11522 470.57012,547.4374 469.33098,548.08172 C 468.09181,548.70133 467.47223,549.75462 467.47224,551.24157 C 467.47223,552.15858 467.72006,552.88968 468.21574,553.43488 C 468.73617,553.98013 469.45488,554.43862 470.37187,554.81034 C 471.31361,555.15733 472.41646,555.46712 473.68042,555.73971 C 474.96912,555.98756 476.36936,556.29735 477.88115,556.66907 C 479.73986,557.06563 481.56142,557.53651 483.34583,558.08171 C 485.15497,558.60218 486.75348,559.33328 488.14136,560.27502 C 489.55397,561.19201 490.6816,562.3816 491.52426,563.84379 C 492.39163,565.30601 492.82533,567.16474 492.82537,569.41999 M 522.41641,533.69513 L 522.41641,525.99997 L 532.8625,525.99997 L 532.8625,533.69513 L 522.41641,533.69513 M 522.41641,581.16719 L 522.41641,540.94419 L 532.8625,540.94419 L 532.8625,581.16719 L 522.41641,581.16719 M 569.59108,581.16719 L 569.59108,558.60216 C 569.59105,557.04085 569.46713,555.61582 569.21933,554.32707 C 568.97147,553.01359 568.56255,551.89835 567.99257,550.98135 C 567.42253,550.03962 566.67903,549.30852 565.76209,548.78804 C 564.84509,548.26763 563.72985,548.00741 562.41637,548.00738 C 561.1524,548.00741 559.99999,548.29241 558.95912,548.86239 C 557.94299,549.40765 557.06319,550.20071 556.31972,551.24157 C 555.57621,552.25771 554.99381,553.48447 554.57251,554.92186 C 554.17596,556.33453 553.9777,557.89586 553.97771,559.60587 L 553.97771,581.16719 L 543.53163,581.16719 L 543.53163,549.94046 C 543.53163,549.07308 543.51923,548.18089 543.49446,547.26388 C 543.49445,546.34694 543.46967,545.47953 543.42011,544.66165 C 543.39532,543.81907 543.37054,543.07557 543.34576,542.43117 C 543.32097,541.76207 543.28379,541.26641 543.23423,540.94419 L 553.19705,540.94419 C 553.2466,541.24162 553.29616,541.72489 553.34575,542.394 C 553.3953,543.0384 553.44486,543.75711 553.49444,544.55013 C 553.544,545.34323 553.58117,546.13628 553.60597,546.92931 C 553.65552,547.7224 553.6803,548.39155 553.68032,548.93674 L 553.82902,548.93674 C 555.24164,545.86367 557.01363,543.63319 559.14499,542.2453 C 561.27632,540.85749 563.81659,540.16356 566.7658,540.16352 C 569.19452,540.16356 571.23912,540.56009 572.89962,541.35311 C 574.58484,542.14621 575.94791,543.23666 576.98884,544.62448 C 578.05447,546.01237 578.82275,547.64805 579.29367,549.53154 C 579.76451,551.41508 579.99995,553.4473 579.99999,555.62818 L 579.99999,581.16719 L 569.59108,581.16719"
     id="text2210" />
  <rect
     style="opacity:1;fill:#e04613;fill-opacity:1;stroke:none;stroke-opacity:1"
     id="rect4157"
     width="339.99994"
     height="39.999969"
     x="300.00006"
     y="304" />
  <rect
     style="opacity:1;fill:#ffffff;fill-opacity:1;stroke:none;stroke-opacity:1"
     id="rect5139"
     width="340"
     height="120"
     x="640"
     y="684" />
  <g
     id="g5219"
     transform="translate(-250,244.02824)">
    <path
       id="path14153"
       d="M 1210,457.97176 L 1210,541.1296 L 1128,541.1296 L 1210,457.97176 z "
       style="fill:#e04613;fill-opacity:1;fill-rule:evenodd;stroke:none;stroke-width:1px;stroke-linecap:butt;stroke-linejoin:miter;stroke-opacity:1" />
    <path
       id="path13182"
       d="M 1210,470 L 1210,541.32647 L 1140,541.32647 L 1210,470 z "
       style="fill:#ffffff;fill-opacity:1;fill-rule:evenodd;stroke:none;stroke-width:1px;stroke-linecap:butt;stroke-linejoin:miter;stroke-opacity:1" />
    <path
       id="path15124"
       d="M 1210,480 L 1210,541.28039 L 1150,541.28039 L 1210,480 z "
       style="fill:#262729;fill-opacity:1;fill-rule:evenodd;stroke:none;stroke-width:1px;stroke-linecap:butt;stroke-linejoin:miter;stroke-opacity:1" />
  </g>
  <path
     id="text2209"
     d="M 766.47892,596 C 764.46166,595.99999 762.68007,595.79261 761.13415,595.37786 C 759.60707,594.98194 758.2968,594.41636 757.20335,593.68111 C 756.12873,592.96469 755.2615,592.09746 754.60166,591.07942 C 753.96066,590.08022 753.51762,588.97733 753.27254,587.77076 L 761.21899,586.83754 C 761.50178,588.06297 762.10506,589.02446 763.02886,589.72202 C 763.97148,590.41957 765.19692,590.76834 766.70516,590.76835 C 767.64778,590.76834 768.50558,590.63637 769.27856,590.37244 C 770.07036,590.1085 770.73963,589.65603 771.28638,589.01504 C 771.85195,588.39289 772.28556,587.56337 772.58723,586.52647 C 772.9077,585.48957 773.06795,584.20758 773.06798,582.6805 C 773.06795,582.15262 773.06795,581.61532 773.06798,581.06859 C 773.06795,580.52186 773.07738,580.02226 773.09625,579.56979 C 773.11508,579.04191 773.12451,578.53289 773.12453,578.04271 L 773.06798,578.04271 C 772.14416,580.02226 770.84332,581.45507 769.16544,582.34115 C 767.50638,583.22723 765.52684,583.67027 763.22681,583.67027 C 761.28496,583.67027 759.60707,583.29322 758.19312,582.5391 C 756.798,581.76614 755.63856,580.70096 754.71478,579.34355 C 753.79099,577.96731 753.10286,576.33654 752.65039,574.45125 C 752.21678,572.54713 751.99997,570.45447 751.99997,568.17327 C 751.99997,565.81669 752.23563,563.68633 752.70696,561.78217 C 753.17827,559.85921 753.89467,558.20959 754.85617,556.83331 C 755.83651,555.45709 757.06194,554.40133 758.53246,553.66604 C 760.02183,552.91196 761.78457,552.53491 763.82068,552.53488 C 765.85676,552.53491 767.67606,552.96852 769.27856,553.83572 C 770.89988,554.70298 772.16302,556.10751 773.06798,558.04932 L 773.20937,558.04932 C 773.20935,557.65344 773.21878,557.20097 773.23765,556.69192 C 773.27533,556.16407 773.31303,555.66447 773.35077,555.19312 C 773.38845,554.70298 773.42616,554.26936 773.46388,553.89228 C 773.52042,553.51525 773.56755,553.26074 773.60528,553.12874 L 781.12755,553.12874 C 781.08981,553.80747 781.0521,554.75954 781.01443,555.98494 C 780.97669,557.2104 780.95784,558.61493 780.95787,560.19854 L 780.95787,582.79362 C 780.95784,585.01825 780.63734,586.95066 779.99638,588.59085 C 779.35535,590.24989 778.41271,591.62614 777.16846,592.71962 C 775.943,593.81307 774.42535,594.63316 772.61551,595.17991 C 770.82447,595.72662 768.77894,595.99999 766.47892,596 M 773.12453,568.0036 C 773.12451,566.08063 772.93598,564.47814 772.55895,563.19613 C 772.18187,561.91417 771.6917,560.88669 771.08843,560.1137 C 770.48512,559.34076 769.78757,558.79403 768.99577,558.47351 C 768.22279,558.15304 767.4404,557.99279 766.6486,557.99276 C 765.63053,557.99279 764.72559,558.19074 763.9338,558.58662 C 763.16081,558.98256 762.50097,559.59527 761.95425,560.42477 C 761.40751,561.25432 760.99274,562.31007 760.70996,563.59204 C 760.42716,564.87405 760.28577,566.40113 760.28578,568.17327 C 760.28577,571.47252 760.81365,573.96109 761.86941,575.63898 C 762.92515,577.31689 764.49936,578.15583 766.59203,578.15583 C 767.38384,578.15583 768.16623,578.00501 768.93921,577.70336 C 769.73101,577.38287 770.43799,576.83614 771.06015,576.06317 C 771.68227,575.27136 772.18187,574.22503 772.55895,572.92418 C 772.93598,571.62335 773.12451,569.98315 773.12453,568.0036 M 808.89772,583.72683 L 808.89772,566.56136 C 808.8977,565.37365 808.80343,564.28961 808.61492,563.30925 C 808.42638,562.31007 808.1153,561.4617 807.68171,560.76412 C 807.24808,560.04774 806.68249,559.49158 805.98496,559.09565 C 805.28739,558.69977 804.43901,558.50181 803.43983,558.50179 C 802.47832,558.50181 801.60167,558.71862 800.80987,559.15221 C 800.03689,559.56699 799.36761,560.17028 798.80204,560.96208 C 798.23645,561.73506 797.79341,562.66828 797.47292,563.76172 C 797.17127,564.83635 797.02045,566.02407 797.02045,567.3249 L 797.02045,583.72683 L 789.074,583.72683 L 789.074,559.97231 C 789.074,559.31248 789.06457,558.63378 789.04572,557.9362 C 789.04572,557.23868 789.02686,556.57883 788.98916,555.95666 C 788.97031,555.31569 788.95145,554.75011 788.9326,554.25991 C 788.91375,553.75091 788.88547,553.37386 788.84777,553.12874 L 796.42659,553.12874 C 796.46429,553.355 796.50199,553.72263 796.53971,554.23163 C 796.5774,554.72183 796.61511,555.26856 796.65283,555.87182 C 796.69052,556.47514 796.7188,557.07843 796.73766,557.68169 C 796.77536,558.28501 796.79421,558.79403 796.79422,559.20877 L 796.90734,559.20877 C 797.98194,556.87105 799.32991,555.1743 800.95126,554.11851 C 802.57258,553.06279 804.50499,552.53491 806.7485,552.53488 C 808.59605,552.53491 810.15141,552.83655 811.41456,553.43981 C 812.69653,554.04313 813.73343,554.87265 814.52528,555.92838 C 815.33591,556.98416 815.92036,558.22845 816.27859,559.66123 C 816.63676,561.09407 816.81586,562.64 816.8159,564.29902 L 816.8159,583.72683 L 808.89772,583.72683 M 831.97354,553.12874 L 831.97354,570.29421 C 831.97353,571.48195 832.06779,572.57541 832.25633,573.5746 C 832.44484,574.55495 832.75592,575.40333 833.18954,576.11973 C 833.62315,576.81729 834.1793,577.36402 834.85802,577.75992 C 835.55556,578.15583 836.40393,578.35379 837.40314,578.35378 C 838.36462,578.35379 839.23184,578.14641 840.00483,577.73164 C 840.79663,577.29803 841.47532,576.69474 842.04094,575.92177 C 842.60649,575.12996 843.04011,574.19675 843.34177,573.12213 C 843.66225,572.02868 843.8225,570.83153 843.82252,569.53067 L 843.82252,553.12874 L 851.76898,553.12874 L 851.76898,576.88326 C 851.76895,577.52427 851.76895,578.20297 851.76898,578.91937 C 851.7878,579.61692 851.80665,580.2862 851.82554,580.92719 C 851.8632,581.54933 851.89148,582.11492 851.91037,582.62394 C 851.94804,583.11411 851.97633,583.48174 851.99522,583.72683 L 844.41638,583.72683 C 844.39751,583.5006 844.3598,583.14239 844.30327,582.65222 C 844.26554,582.1432 844.22784,581.58704 844.19015,580.98375 C 844.17127,580.38046 844.143,579.77717 844.10531,579.17388 C 844.08643,578.5706 844.07701,578.06157 844.07704,577.6468 L 843.93563,577.6468 C 842.87986,579.9657 841.53189,581.65302 839.89171,582.70878 C 838.27035,583.76454 836.33794,584.29241 834.09448,584.29241 C 832.26575,584.29241 830.71039,583.99077 829.42841,583.38748 C 828.14641,582.78419 827.10008,581.9641 826.28942,580.92719 C 825.49759,579.87144 824.92259,578.62715 824.56439,577.19434 C 824.20618,575.76153 824.02708,574.2156 824.02708,572.55655 L 824.02708,553.12874 L 831.97354,553.12874"
     style="font-size:72px;font-style:normal;font-weight:bold;fill:#e68924;fill-opacity:1;stroke:none;stroke-width:1px;stroke-linecap:butt;stroke-linejoin:miter;stroke-opacity:1;font-family:Liberation Sans" />
</svg>
