<?xml version="1.0" encoding="UTF-8" standalone="no"?>
<!-- Created with Inkscape (http://www.inkscape.org/) -->
<svg
   xmlns:dc="http://purl.org/dc/elements/1.1/"
   xmlns:cc="http://web.resource.org/cc/"
   xmlns:rdf="http://www.w3.org/1999/02/22-rdf-syntax-ns#"
   xmlns:svg="http://www.w3.org/2000/svg"
   xmlns="http://www.w3.org/2000/svg"
   xmlns:xlink="http://www.w3.org/1999/xlink"
   xmlns:sodipodi="http://sodipodi.sourceforge.net/DTD/sodipodi-0.dtd"
   xmlns:inkscape="http://www.inkscape.org/namespaces/inkscape"
   id="svg2"
   sodipodi:version="0.32"
   inkscape:version="0.45.1"
   width="1280"
   height="800"
   version="1.0"
   sodipodi:docbase="/home/fabio/Imagens/Wallpapers/Elegant Brit"
   sodipodi:docname="4wide.svg"
   inkscape:output_extension="org.inkscape.output.svg.inkscape">
  <metadata
     id="metadata7">
    <rdf:RDF>
      <cc:Work
         rdf:about="">
        <dc:format>image/svg+xml</dc:format>
        <dc:type
           rdf:resource="http://purl.org/dc/dcmitype/StillImage" />
      </cc:Work>
    </rdf:RDF>
  </metadata>
  <defs
     id="defs5">
    <linearGradient
       y2="803.17938"
       x2="959.54059"
       y1="771.59735"
       x1="959.54059"
       gradientUnits="userSpaceOnUse"
       id="linearGradient13429"
       xlink:href="#linearGradient5254"
       inkscape:collect="always" />
    <linearGradient
       y2="803.17938"
       x2="959.54059"
       y1="771.59735"
       x1="959.54059"
       gradientUnits="userSpaceOnUse"
       id="linearGradient5981"
       xlink:href="#linearGradient5254"
       inkscape:collect="always" />
    <linearGradient
       y2="810.34253"
       x2="959.54059"
       y1="771.60901"
       x1="959.54059"
       gradientUnits="userSpaceOnUse"
       id="linearGradient5885"
       xlink:href="#linearGradient5314"
       inkscape:collect="always" />
    <linearGradient
       y2="810.34253"
       x2="959.54059"
       y1="771.60901"
       x1="959.54059"
       gradientUnits="userSpaceOnUse"
       id="linearGradient5883"
       xlink:href="#linearGradient5320"
       inkscape:collect="always" />
    <linearGradient
       y2="803.17938"
       x2="959.54059"
       y1="771.59735"
       x1="959.54059"
       gradientUnits="userSpaceOnUse"
       id="linearGradient5881"
       xlink:href="#linearGradient5254"
       inkscape:collect="always" />
    <linearGradient
       y2="803.17938"
       x2="959.54059"
       y1="771.59735"
       x1="959.54059"
       gradientUnits="userSpaceOnUse"
       id="linearGradient4788"
       xlink:href="#linearGradient5254"
       inkscape:collect="always" />
    <linearGradient
       y2="803.17938"
       x2="959.54059"
       y1="771.59735"
       x1="959.54059"
       gradientUnits="userSpaceOnUse"
       id="linearGradient2689"
       xlink:href="#linearGradient5254"
       inkscape:collect="always" />
    <linearGradient
       y2="803.17938"
       x2="959.54059"
       y1="771.59735"
       x1="959.54059"
       gradientUnits="userSpaceOnUse"
       id="linearGradient2536"
       xlink:href="#linearGradient5254"
       inkscape:collect="always" />
    <linearGradient
       gradientUnits="userSpaceOnUse"
       y2="803.17938"
       x2="959.54059"
       y1="771.59735"
       x1="959.54059"
       id="linearGradient5260"
       xlink:href="#linearGradient5254"
       inkscape:collect="always" />
    <linearGradient
       id="linearGradient5254">
      <stop
         id="stop5256"
         offset="0"
         style="stop-color:#c0c0c0;stop-opacity:0.38403043" />
      <stop
         id="stop5258"
         offset="1"
         style="stop-color:#000000;stop-opacity:0" />
    </linearGradient>
    <linearGradient
       id="linearGradient5320">
      <stop
         style="stop-color:#c0c0c0;stop-opacity:0.30038023"
         offset="0"
         id="stop5322" />
      <stop
         style="stop-color:#000000;stop-opacity:0"
         offset="1"
         id="stop5324" />
    </linearGradient>
    <linearGradient
       id="linearGradient5314">
      <stop
         style="stop-color:#c0c0c0;stop-opacity:0.30038023"
         offset="0"
         id="stop5316" />
      <stop
         style="stop-color:#000000;stop-opacity:0"
         offset="1"
         id="stop5318" />
    </linearGradient>
    <linearGradient
       id="linearGradient3811">
      <stop
         id="stop3813"
         offset="0"
         style="stop-color:#5b5e63;stop-opacity:1;" />
      <stop
         style="stop-color:#404246;stop-opacity:0.49803922;"
         offset="0.5"
         id="stop8487" />
      <stop
         id="stop3815"
         offset="1"
         style="stop-color:#262729;stop-opacity:0;" />
    </linearGradient>
    <linearGradient
       id="linearGradient8490">
      <stop
         id="stop8492"
         offset="0"
         style="stop-color:#8e8e8e;stop-opacity:1;" />
      <stop
         id="stop8494"
         offset="1"
         style="stop-color:#262729;stop-opacity:0;" />
    </linearGradient>
    <linearGradient
       id="linearGradient13375">
      <stop
         id="stop13377"
         offset="0"
         style="stop-color:#5b5f62;stop-opacity:1;" />
      <stop
         id="stop13379"
         offset="1"
         style="stop-color:#666a6e;stop-opacity:0;" />
    </linearGradient>
    <linearGradient
       id="linearGradient13393">
      <stop
         id="stop13395"
         offset="0"
         style="stop-color:#95999d;stop-opacity:1;" />
      <stop
         id="stop13397"
         offset="1"
         style="stop-color:#676b70;stop-opacity:1;" />
    </linearGradient>
  </defs>
  <sodipodi:namedview
     inkscape:window-height="684"
     inkscape:window-width="995"
     inkscape:pageshadow="2"
     inkscape:pageopacity="0.0"
     guidetolerance="10.0"
     gridtolerance="10.0"
     objecttolerance="10.0"
     borderopacity="1.0"
     bordercolor="#666666"
     pagecolor="#ffffff"
     id="base"
     width="1280px"
     height="800px"
     showgrid="true"
     inkscape:zoom="1"
     inkscape:cx="640"
     inkscape:cy="400"
     inkscape:window-x="-198"
     inkscape:window-y="95"
     inkscape:current-layer="svg2"
     showguides="true"
     inkscape:guide-bbox="true" />
  <rect
     style="opacity:1;fill:#262729;fill-opacity:1;stroke:none;stroke-opacity:1"
     id="rect2159"
     width="1279.8892"
     height="799.99994"
     x="0.11081791"
     y="0"
     inkscape:export-filename="/home/fabio/FreeAsInBeauty.png"
     inkscape:export-xdpi="90"
     inkscape:export-ydpi="90" />
  <rect
     style="opacity:1;fill:#ffffff;fill-opacity:1;stroke:none;stroke-opacity:1"
     id="rect44296"
     width="340"
     height="339.99997"
     x="300"
     y="240.00003" />
  <rect
     style="opacity:1;fill:#e04613;fill-opacity:1;stroke:none;stroke-opacity:1"
     id="rect5226"
     width="339.99994"
     height="339.99997"
     x="640.00006"
     y="240" />
  <rect
     style="opacity:1;fill:#e06f13;fill-opacity:1;stroke:none;stroke-opacity:1"
     id="rect6197"
     width="39.999939"
     height="340"
     x="1240"
     y="240" />
  <rect
     style="opacity:1;fill:#277699;fill-opacity:1;stroke:none;stroke-opacity:1"
     id="rect6199"
     width="100"
     height="340"
     x="-5.475221e-17"
     y="-980"
     transform="matrix(0,1,-1,0,0,0)" />
  <path
     style="font-size:58.60190201px;font-style:normal;font-weight:normal;fill:#ffffff;fill-opacity:1;stroke:none;stroke-width:1px;stroke-linecap:butt;stroke-linejoin:miter;stroke-opacity:1;font-family:FilosofiaUnicase"
     d="M 689.99998,529.28952 L 689.99998,476.57133 L 699.98232,476.57133 L 699.98232,529.28952 L 689.99998,529.28952 M 710.17782,483.92488 L 710.17782,476.57133 L 720.16017,476.57133 L 720.16017,483.92488 L 710.17782,483.92488 M 710.17782,529.28952 L 710.17782,490.85214 L 720.16017,490.85214 L 720.16017,529.28952 L 710.17782,529.28952 M 755.25826,529.28952 L 755.25826,507.72623 C 755.25822,506.23422 755.13981,504.87245 754.90302,503.64091 C 754.66615,502.38575 754.27539,501.32001 753.73071,500.44372 C 753.18597,499.5438 752.47549,498.84516 751.59924,498.34778 C 750.72296,497.85047 749.65722,497.6018 748.40206,497.60178 C 747.19419,497.6018 746.09295,497.87416 745.09828,498.41883 C 744.12727,498.93988 743.28652,499.69774 742.57606,500.69239 C 741.86555,501.66342 741.309,502.83572 740.90641,504.20931 C 740.52747,505.55926 740.338,507.05127 740.33802,508.68538 L 740.33802,529.28952 L 730.35567,529.28952 L 730.35567,499.44903 C 730.35566,498.62016 730.34381,497.76758 730.32014,496.89128 C 730.32014,496.01505 730.29645,495.18615 730.24909,494.40458 C 730.2254,493.5994 730.20172,492.8889 730.17805,492.27311 C 730.15436,491.63371 730.11883,491.16006 730.07147,490.85214 L 739.592,490.85214 C 739.63935,491.13637 739.68672,491.59818 739.7341,492.23759 C 739.78145,492.85338 739.82882,493.54019 739.8762,494.298 C 739.92356,495.05589 739.95907,495.81374 739.98277,496.57156 C 740.03013,497.32945 740.0538,497.96889 740.05383,498.48988 L 740.19591,498.48988 C 741.54583,495.55324 743.23915,493.42178 745.27591,492.09549 C 747.31262,490.76929 749.74011,490.10617 752.55841,490.10613 C 754.8793,490.10617 756.83314,490.4851 758.41992,491.2429 C 760.03033,492.0008 761.33289,493.04285 762.32761,494.36905 C 763.34594,495.69533 764.08011,497.2584 764.53012,499.05827 C 764.98005,500.8582 765.20504,502.8002 765.20509,504.88427 L 765.20509,529.28952 L 755.25826,529.28952 M 784.24616,490.85214 L 784.24616,512.41544 C 784.24613,513.90748 784.36455,515.28108 784.6014,516.53627 C 784.83821,517.76779 785.22898,518.83352 785.77371,519.73346 C 786.31839,520.60973 787.01704,521.29654 787.86965,521.79387 C 788.74589,522.29123 789.81162,522.5399 791.06683,522.53989 C 792.27464,522.5399 793.36405,522.27938 794.33508,521.75835 C 795.32974,521.21365 796.18232,520.4558 796.89283,519.48479 C 797.6033,518.49012 798.148,517.31781 798.52696,515.96787 C 798.92954,514.59428 799.13084,513.09041 799.13087,511.45628 L 799.13087,490.85214 L 809.11322,490.85214 L 809.11322,520.69262 C 809.11318,521.49785 809.11318,522.35043 809.11322,523.25037 C 809.13687,524.12665 809.16054,524.96739 809.18427,525.7726 C 809.23159,526.55415 809.26712,527.26463 809.29084,527.90407 C 809.33816,528.51983 809.37369,528.98164 809.39742,529.28952 L 799.87688,529.28952 C 799.85317,529.00533 799.80581,528.55535 799.73478,527.93959 C 799.68738,527.30016 799.64002,526.60151 799.59268,525.84365 C 799.56897,525.08581 799.53345,524.32795 799.48611,523.57009 C 799.4624,522.81224 799.45055,522.17281 799.45059,521.65178 L 799.27297,521.65178 C 797.94669,524.56477 796.25337,526.6844 794.19297,528.01064 C 792.15623,529.33688 789.72873,530 786.91048,530 C 784.61322,530 782.65938,529.62108 781.04896,528.86323 C 779.43851,528.10537 778.12411,527.07516 777.10575,525.7726 C 776.11107,524.44636 775.38873,522.88329 774.93876,521.08339 C 774.48878,519.2835 774.2638,517.3415 774.2638,515.25739 L 774.2638,490.85214 L 784.24616,490.85214 M 843.3232,529.28952 L 834.37103,515.36396 L 825.34785,529.28952 L 814.72606,529.28952 L 828.79372,509.43139 L 815.40103,490.85214 L 826.16491,490.85214 L 834.37103,503.42777 L 842.54168,490.85214 L 853.37658,490.85214 L 839.98396,509.32481 L 854.1581,529.28952 L 843.3232,529.28952 M 859.66437,529.28952 L 859.66437,518.45459 L 869.93091,518.45459 L 869.93091,529.28952 L 859.66437,529.28952"
     id="text8139" />
  <rect
     style="opacity:1;fill:#6c9eab;fill-opacity:1;stroke:none;stroke-opacity:1"
     id="rect8153"
     width="39.999939"
     height="340"
     x="6.1035156e-05"
     y="240" />
  <path
     style="font-size:58.60190201px;font-style:normal;font-weight:normal;fill:#e04613;fill-opacity:1;stroke:none;stroke-width:1px;stroke-linecap:butt;stroke-linejoin:miter;stroke-opacity:1;font-family:FilosofiaUnicase"
     d="M 383.21106,511.53876 C 383.21103,514.50479 382.90959,517.2417 382.30679,519.74954 C 381.72801,522.23329 380.82375,524.39148 379.59398,526.22413 C 378.36412,528.03268 376.79672,529.44334 374.89176,530.45613 C 373.01084,531.46891 370.78029,531.97529 368.20014,531.9753 C 367.04265,531.97529 365.88518,531.85473 364.72774,531.61359 C 363.57024,531.37245 362.47307,530.97458 361.43618,530.41995 C 360.39927,529.86533 359.44678,529.14191 358.57868,528.24969 C 357.71057,527.3575 356.96304,526.2603 356.33609,524.95815 L 356.26375,524.95815 C 356.26374,525.46455 356.23961,526.04329 356.1914,526.69435 C 356.16729,527.34543 356.13111,527.98446 356.0829,528.61141 C 356.03466,529.21426 355.97437,529.75682 355.90204,530.2391 C 355.85381,530.72138 355.80557,531.05897 355.75736,531.25188 L 345.8827,531.25188 C 345.95505,530.40791 346.01533,529.21426 346.06355,527.67097 C 346.1359,526.10357 346.17206,524.31914 346.17208,522.31768 L 346.17208,477.57429 L 356.33609,477.57429 L 356.33609,492.54904 C 356.33608,493.32072 356.32402,494.08031 356.29993,494.82781 C 356.29991,495.55125 356.28785,496.22645 356.26375,496.85338 C 356.23961,497.57683 356.21551,498.26407 356.1914,498.91511 L 356.33609,498.91511 C 357.56589,496.2144 359.25386,494.28528 361.40002,493.12777 C 363.54614,491.97034 366.02987,491.3916 368.85123,491.39157 C 371.35903,491.3916 373.51722,491.898 375.32581,492.91075 C 377.13432,493.89945 378.61732,495.29805 379.77483,497.10657 C 380.95638,498.89104 381.82447,501.01306 382.37912,503.47265 C 382.93371,505.93228 383.21103,508.62099 383.21106,511.53876 M 372.61298,511.53876 C 372.61296,507.10181 371.96188,503.81027 370.65977,501.66411 C 369.35758,499.518 367.34407,498.44493 364.61922,498.44489 C 363.5823,498.44493 362.55747,498.6499 361.5447,499.0598 C 360.5319,499.46976 359.62763,500.19319 358.83188,501.23006 C 358.0361,502.24287 357.39709,503.61736 356.91483,505.35354 C 356.43252,507.06564 356.19139,509.23589 356.1914,511.86428 C 356.19139,514.42038 356.43252,516.54241 356.91483,518.23037 C 357.39709,519.91834 358.02406,521.26873 358.79572,522.28151 C 359.56734,523.29429 360.45955,524.00566 361.47236,524.41559 C 362.48512,524.82552 363.50996,525.0305 364.54689,525.0305 C 367.12704,525.0305 369.11644,523.96948 370.51508,521.84746 C 371.91366,519.70133 372.61296,516.26509 372.61298,511.53876 M 407.48172,531.9753 C 404.66038,531.97529 402.11636,531.56536 399.84966,530.74549 C 397.60706,529.90151 395.69,528.63552 394.09849,526.94755 C 392.50697,525.23547 391.28921,523.10138 390.44524,520.54529 C 389.60124,517.96513 389.17926,514.95089 389.17926,511.50258 C 389.17926,507.76495 389.67359,504.61809 390.66226,502.06197 C 391.67504,499.50594 393.02542,497.4442 394.71341,495.87676 C 396.42548,494.28528 398.39076,493.13986 400.60925,492.44052 C 402.82771,491.74126 405.16677,491.3916 407.62641,491.39157 C 410.71297,491.3916 413.34138,491.93417 415.51166,493.01925 C 417.706,494.08031 419.50248,495.57537 420.90112,497.50444 C 422.29969,499.43359 423.32454,501.74854 423.97564,504.44925 C 424.62668,507.12593 424.95222,510.09193 424.95227,513.3473 L 424.95227,513.63667 L 399.84966,513.63667 C 399.84965,515.27642 399.99434,516.80765 400.28371,518.23037 C 400.57307,519.62898 401.04329,520.84673 401.69438,521.88362 C 402.34544,522.89643 403.18943,523.70424 404.22634,524.30707 C 405.26322,524.88582 406.51715,525.17518 407.98812,525.17517 C 409.77252,525.17518 411.23141,524.80142 412.36479,524.05387 C 413.49812,523.28224 414.30594,522.10066 414.78824,520.50913 L 424.37353,521.34107 C 423.93944,522.45032 423.32454,523.6319 422.52881,524.88581 C 421.75713,526.13974 420.72024,527.2972 419.41811,528.35821 C 418.11593,529.39511 416.48825,530.26321 414.53504,530.96252 C 412.6059,531.63771 410.2548,531.97529 407.48172,531.9753 M 407.48172,497.79382 C 406.4448,497.79385 405.4682,497.9747 404.55188,498.33637 C 403.65964,498.674 402.87595,499.22862 402.20078,500.00023 C 401.54969,500.7478 401.01917,501.72441 400.60925,502.93008 C 400.19931,504.13581 399.97021,505.58264 399.922,507.27059 L 415.11378,507.27059 C 414.92084,504.11169 414.16125,501.74854 412.835,500.18108 C 411.50873,498.58961 409.72429,497.79385 407.48172,497.79382 M 441.73555,531.9753 C 439.85465,531.97529 438.16668,531.72211 436.67162,531.21571 C 435.20067,530.68521 433.94675,529.92562 432.90985,528.93695 C 431.87296,527.92417 431.07719,526.68231 430.52259,525.21135 C 429.96795,523.7404 429.69065,522.06449 429.69065,520.18359 C 429.69065,517.86867 430.08852,515.92751 430.88429,514.36008 C 431.70415,512.76857 432.81339,511.49054 434.21201,510.52596 C 435.6106,509.53732 437.25035,508.82596 439.13125,508.39188 C 441.01213,507.93374 443.01357,507.69261 445.13562,507.66847 L 453.56344,507.52379 L 453.56344,505.53439 C 453.56341,504.11169 453.43078,502.93012 453.16555,501.98965 C 452.92439,501.0251 452.56269,500.24141 452.08042,499.63852 C 451.59812,499.03571 450.99528,498.61372 450.27188,498.37254 C 449.57256,498.10733 448.76474,497.9747 447.84843,497.97467 C 447.00442,497.9747 446.24483,498.05911 445.56967,498.22787 C 444.91858,498.3967 444.3519,498.69813 443.86963,499.13213 C 443.38734,499.5421 442.98947,500.10878 442.676,500.83217 C 442.3866,501.5315 442.18165,502.42372 442.06109,503.50881 L 431.46302,503.00242 C 431.75239,501.29036 432.28289,499.73502 433.05454,498.33637 C 433.82618,496.91369 434.88719,495.68388 436.23758,494.64694 C 437.61206,493.6101 439.28798,492.81432 441.26534,492.25966 C 443.26677,491.68098 445.60582,491.3916 448.28247,491.39157 C 450.71796,491.3916 452.88822,491.69303 454.79324,492.29584 C 456.69821,492.89873 458.31384,493.80301 459.64013,495.00866 C 460.96637,496.19027 461.97915,497.64917 462.6785,499.38533 C 463.37777,501.12157 463.72742,503.13507 463.72745,505.42588 L 463.72745,519.6772 C 463.72742,520.59354 463.76359,521.41341 463.83596,522.13683 C 463.93238,522.86025 464.08912,523.47515 464.30619,523.98153 C 464.54729,524.46381 464.87283,524.83759 465.28279,525.10284 C 465.71681,525.34398 466.27143,525.46455 466.94665,525.46455 C 467.71826,525.46455 468.4658,525.3922 469.18926,525.24752 L 469.18926,530.74549 C 468.58637,530.89017 468.04381,531.0228 467.56157,531.14338 C 467.07924,531.26395 466.59696,531.3604 466.11473,531.43273 C 465.63241,531.50508 465.11397,531.56536 464.55938,531.61359 C 464.02883,531.66182 463.40187,531.68593 462.6785,531.68593 C 460.12239,531.68593 458.22945,531.05897 456.99967,529.80504 C 455.79394,528.55113 455.07052,526.70641 454.82941,524.2709 L 454.61239,524.2709 C 453.26197,526.70641 451.52577,528.59936 449.40377,529.94973 C 447.30585,531.3001 444.74977,531.97529 441.73555,531.9753 M 453.56344,513.13026 L 448.35482,513.20261 C 447.26968,513.25086 446.23279,513.34731 445.24413,513.49197 C 444.27955,513.61257 443.42351,513.88987 442.676,514.32391 C 441.95256,514.73386 441.37383,515.3367 440.93979,516.13245 C 440.50574,516.92824 440.2887,518.01335 440.28872,519.38784 C 440.2887,521.24462 440.71069,522.63117 441.5547,523.54748 C 442.42278,524.43971 443.56819,524.88582 444.99093,524.88581 C 446.29307,524.88582 447.47466,524.60851 448.53567,524.05387 C 449.59667,523.49927 450.48888,522.77584 451.21232,521.88362 C 451.95982,520.96732 452.53856,519.91834 452.94853,518.73675 C 453.35844,517.55519 453.56341,516.3495 453.56344,515.11967 L 453.56344,513.13026 M 483.51292,492.11499 L 483.51292,514.07071 C 483.51291,515.5899 483.63347,516.98852 483.87464,518.26654 C 484.11576,519.52048 484.51364,520.6056 485.06828,521.52192 C 485.62288,522.41414 486.33424,523.11344 487.20235,523.61983 C 488.09456,524.12623 489.17968,524.37943 490.45773,524.37941 C 491.68752,524.37943 492.79676,524.11417 493.78546,523.58366 C 494.79821,523.02904 495.66632,522.2574 496.38976,521.26872 C 497.11316,520.25595 497.66777,519.0623 498.05363,517.6878 C 498.46353,516.28922 498.6685,514.75798 498.66853,513.09411 L 498.66853,492.11499 L 508.83255,492.11499 L 508.83255,522.49853 C 508.8325,523.31842 508.8325,524.18651 508.83255,525.10284 C 508.85662,525.99505 508.88074,526.85109 508.90489,527.67097 C 508.95307,528.46673 508.98924,529.19014 509.0134,529.84122 C 509.06159,530.46819 509.09776,530.9384 509.12192,531.25188 L 499.42812,531.25188 C 499.40398,530.96252 499.35574,530.50436 499.28343,529.87739 C 499.23517,529.22632 499.18694,528.51495 499.13874,527.7433 C 499.1146,526.97167 499.07844,526.20002 499.03024,525.42837 C 499.00609,524.65673 498.99403,524.00566 498.99407,523.47515 L 498.81322,523.47515 C 497.46281,526.44115 495.73866,528.59936 493.64077,529.94973 C 491.56696,531.3001 489.09528,531.97529 486.22574,531.9753 C 483.88667,531.97529 481.89728,531.58949 480.25755,530.81784 C 478.61779,530.04618 477.27947,528.99723 476.24258,527.67097 C 475.2298,526.32059 474.49431,524.72907 474.03615,522.89642 C 473.57799,521.06376 473.34891,519.08643 473.34891,516.96439 L 473.34891,492.11499 L 483.51292,492.11499 M 529.23292,531.90297 C 526.24278,531.90297 523.9399,531.09515 522.32429,529.47951 C 520.70864,527.83976 519.90083,525.36809 519.90084,522.06448 L 519.90084,498.98746 L 514.94543,498.98746 L 514.94543,492.11499 L 520.40723,492.11499 L 523.59027,482.92759 L 529.95634,482.92759 L 529.95634,492.11499 L 537.37137,492.11499 L 537.37137,498.98746 L 529.95634,498.98746 L 529.95634,519.31549 C 529.95633,521.22049 530.31803,522.63117 531.04146,523.54748 C 531.76487,524.43971 532.88615,524.88582 534.40536,524.88581 C 535.0323,524.88582 535.59898,524.83759 536.10539,524.74113 C 536.61177,524.64467 537.17844,524.52411 537.80542,524.37941 L 537.80542,530.67314 C 536.55148,531.08308 535.22521,531.38451 533.82662,531.57743 C 532.428,531.79444 530.89676,531.90297 529.23292,531.90297 M 564.10165,533.31362 C 563.16118,535.60444 562.20868,537.58178 561.24415,539.24565 C 560.27957,540.9095 559.20649,542.28399 558.02494,543.36913 C 556.86745,544.47835 555.55324,545.29822 554.08232,545.82875 C 552.63546,546.35924 550.94749,546.6245 549.01839,546.62451 C 547.95736,546.6245 546.87224,546.58832 545.76301,546.516 C 544.65376,546.44365 543.60481,546.32307 542.61615,546.1543 L 542.61615,538.92011 C 543.09841,538.99245 543.67715,539.05274 544.35234,539.10096 C 545.05164,539.1733 545.64244,539.20947 546.12472,539.20948 C 547.11339,539.20947 547.99354,539.10096 548.76519,538.88394 C 549.53682,538.66691 550.23613,538.3052 550.86311,537.79881 C 551.49006,537.29242 552.06879,536.61722 552.59931,535.77325 C 553.15392,534.92925 553.68442,533.86824 554.19082,532.59021 L 554.8419,530.85399 L 539.36076,492.11499 L 550.10352,492.11499 L 556.25256,510.45363 C 556.349,510.7189 556.49369,511.16501 556.68661,511.79196 C 556.90362,512.41893 557.13271,513.14234 557.37386,513.9622 C 557.63911,514.75798 557.90434,515.60196 558.16962,516.49416 C 558.43486,517.38639 558.68806,518.24243 558.9292,519.06229 C 559.17033,519.85806 559.3753,520.56943 559.54412,521.19638 C 559.71289,521.82336 559.83346,522.26947 559.90583,522.5347 C 559.97814,522.26947 560.08666,521.83541 560.23137,521.23254 C 560.40014,520.6056 560.58099,519.9063 560.77392,519.13464 C 560.99093,518.33889 561.22001,517.50696 561.46118,516.63884 C 561.70229,515.77076 561.93138,514.93884 562.14842,514.14306 C 562.36543,513.34731 562.55833,512.63595 562.72716,512.00897 C 562.92005,511.35792 563.06472,510.8877 563.1612,510.59831 L 568.94855,492.11499 L 579.58278,492.11499 L 564.10165,533.31362 M 579.54663,531.25188 L 579.54663,520.21977 L 590,520.21977 L 590,531.25188 L 579.54663,531.25188"
     id="text2205" />
  <path
     style="font-size:74.72340393px;font-style:normal;font-weight:normal;fill:#262729;fill-opacity:1;stroke:none;stroke-width:1px;stroke-linecap:butt;stroke-linejoin:miter;stroke-opacity:1;font-family:FilosofiaUnicase"
     d="M 462.66091,383.59973 L 462.66091,416.14527 L 452.44482,416.14527 L 452.44482,383.59973 L 446.68003,383.59973 L 446.68003,376.66738 L 452.44482,376.66738 L 452.44482,372.54446 C 452.44481,371.03642 452.62724,369.64995 452.99211,368.38505 C 453.35696,367.09593 453.97723,365.97702 454.8529,365.02834 C 455.72855,364.07975 456.90827,363.33787 458.39204,362.80269 C 459.8758,362.26761 461.72442,362.00005 463.93792,362 C 465.10546,362.00005 466.24868,362.06086 467.36761,362.18243 C 468.51082,362.3041 469.53242,362.43788 470.43244,362.58377 L 470.43244,369.18774 C 469.99458,369.0905 469.49594,369.01752 468.93651,368.96883 C 468.40136,368.8959 467.90272,368.85942 467.44058,368.85937 C 466.49192,368.85942 465.70139,368.95671 465.06899,369.15126 C 464.46087,369.3459 463.97439,369.63779 463.60955,370.02692 C 463.26899,370.41615 463.02575,370.9148 462.87983,371.52285 C 462.73387,372.10667 462.66089,372.78774 462.66091,373.56607 L 462.66091,376.66738 L 470.43244,376.66738 L 470.43244,383.59973 L 462.66091,383.59973 M 475.57697,416.14527 L 475.57697,385.93484 C 475.57696,385.08353 475.5648,384.18354 475.54048,383.23487 C 475.54048,382.28627 475.51615,381.38628 475.46751,380.5349 C 475.44318,379.65927 475.41886,378.88091 475.39454,378.1998 C 475.37021,377.49444 475.33372,376.98363 475.28508,376.66738 L 485.06334,376.66738 C 485.11197,376.95931 485.16062,377.47011 485.20928,378.1998 C 485.25791,378.90523 485.30656,379.6836 485.35523,380.5349 C 485.40386,381.38628 485.44034,382.23762 485.46468,383.08892 C 485.51332,383.91597 485.53764,384.58488 485.53766,385.09566 L 485.6836,385.09566 C 486.19439,383.66057 486.70519,382.38356 487.21601,381.26462 C 487.7268,380.12143 488.32274,379.16063 489.00383,378.38223 C 489.70921,377.57957 490.54838,376.97147 491.52137,376.55792 C 492.49431,376.12013 493.69834,375.90122 495.13348,375.90118 C 495.74156,375.90122 496.3375,375.96203 496.9213,376.08361 C 497.52937,376.18094 497.99153,376.30256 498.30777,376.44847 L 498.30777,385.02268 C 497.65099,384.87677 496.98208,384.75515 496.30104,384.65782 C 495.64426,384.53624 494.85373,384.47543 493.92944,384.47539 C 491.3754,384.47543 489.38083,385.5092 487.94573,387.57671 C 486.53492,389.64428 485.82953,392.7091 485.82954,396.77119 L 485.82954,416.14527 L 475.57697,416.14527 M 520.78317,416.87499 C 517.93724,416.87499 515.37106,416.46149 513.08462,415.63447 C 510.82247,414.78313 508.88871,413.50612 507.28334,411.80344 C 505.67794,410.07644 504.44958,407.92376 503.59825,405.34541 C 502.7469,402.74275 502.32123,399.70225 502.32123,396.2239 C 502.32123,392.4537 502.81987,389.27942 503.81716,386.70104 C 504.83877,384.12273 506.20091,382.04303 507.9036,380.46193 C 509.63059,378.85658 511.613,377.70119 513.85082,376.99576 C 516.08862,376.2904 518.44804,375.9377 520.92911,375.93766 C 524.04256,375.9377 526.69388,376.48499 528.88307,377.57953 C 531.09652,378.64983 532.90866,380.15792 534.31949,382.1038 C 535.73025,384.04976 536.76402,386.38486 537.4208,389.10912 C 538.07751,391.80911 538.40589,394.80096 538.40593,398.08469 L 538.40593,398.37657 L 513.08462,398.37657 C 513.0846,400.03062 513.23055,401.5752 513.52245,403.0103 C 513.81432,404.42111 514.28864,405.64947 514.9454,406.69539 C 515.60214,407.71701 516.45348,408.53186 517.49943,409.13996 C 518.54534,409.72374 519.81019,410.01563 521.29397,410.01562 C 523.09393,410.01563 524.56553,409.6386 525.70878,408.88455 C 526.85199,408.10619 527.66684,406.91432 528.15335,405.30892 L 537.82215,406.1481 C 537.38428,407.26701 536.76402,408.45889 535.96136,409.72373 C 535.18296,410.98859 534.13702,412.15614 532.82356,413.22639 C 531.51003,414.27233 529.86816,415.14799 527.89795,415.85339 C 525.952,416.53446 523.58041,416.87499 520.78317,416.87499 M 520.78317,382.39569 C 519.73722,382.39572 518.75209,382.57815 517.8278,382.94298 C 516.92779,383.28355 516.13726,383.843 515.45621,384.62134 C 514.79944,385.37541 514.26432,386.36054 513.85082,387.57671 C 513.4373,388.79294 513.20622,390.25238 513.15759,391.95503 L 528.48172,391.95503 C 528.2871,388.76861 527.5209,386.38486 526.1831,384.80377 C 524.84526,383.19842 523.04528,382.39572 520.78317,382.39569 M 562.37725,416.87499 C 559.53132,416.87499 556.96514,416.46149 554.67869,415.63447 C 552.41655,414.78313 550.48279,413.50612 548.87741,411.80344 C 547.27202,410.07644 546.04366,407.92376 545.19232,405.34541 C 544.34098,402.74275 543.91531,399.70225 543.91531,396.2239 C 543.91531,392.4537 544.41395,389.27942 545.41124,386.70104 C 546.43284,384.12273 547.79499,382.04303 549.49768,380.46193 C 551.22467,378.85658 553.20708,377.70119 555.4449,376.99576 C 557.68269,376.2904 560.04212,375.9377 562.52319,375.93766 C 565.63664,375.9377 568.28796,376.48499 570.47715,377.57953 C 572.6906,378.64983 574.50274,380.15792 575.91357,382.1038 C 577.32432,384.04976 578.35809,386.38486 579.01488,389.10912 C 579.67159,391.80911 579.99996,394.80096 580,398.08469 L 580,398.37657 L 554.67869,398.37657 C 554.67868,400.03062 554.82462,401.5752 555.11653,403.0103 C 555.4084,404.42111 555.88272,405.64947 556.53948,406.69539 C 557.19621,407.71701 558.04755,408.53186 559.0935,409.13996 C 560.13942,409.72374 561.40427,410.01563 562.88805,410.01562 C 564.68801,410.01563 566.15961,409.6386 567.30286,408.88455 C 568.44606,408.10619 569.26092,406.91432 569.74743,405.30892 L 579.41623,406.1481 C 578.97836,407.26701 578.35809,408.45889 577.55544,409.72373 C 576.77703,410.98859 575.7311,412.15614 574.41764,413.22639 C 573.10411,414.27233 571.46224,415.14799 569.49202,415.85339 C 567.54608,416.53446 565.17449,416.87499 562.37725,416.87499 M 562.37725,382.39569 C 561.33129,382.39572 560.34617,382.57815 559.42188,382.94298 C 558.52187,383.28355 557.73134,383.843 557.05029,384.62134 C 556.39352,385.37541 555.85839,386.36054 555.4449,387.57671 C 555.03138,388.79294 554.8003,390.25238 554.75167,391.95503 L 570.0758,391.95503 C 569.88118,388.76861 569.11497,386.38486 567.77718,384.80377 C 566.43933,383.19842 564.63936,382.39572 562.37725,382.39569"
     id="text2202" />
  <path
     style="font-size:76.13373566px;font-style:normal;font-weight:bold;fill:#262729;fill-opacity:1;stroke:none;stroke-width:1px;stroke-linecap:butt;stroke-linejoin:miter;stroke-opacity:1;font-family:Liberation Sans"
     d="M 425.83661,477.91068 C 423.90351,477.91068 422.16869,477.65046 420.63215,477.13001 C 419.12037,476.58478 417.83165,475.80412 416.76599,474.78801 C 415.70031,473.74712 414.88247,472.47079 414.31246,470.95901 C 413.74244,469.44725 413.45744,467.72483 413.45744,465.79174 C 413.45744,463.41257 413.86636,461.41753 414.6842,459.80661 C 415.52683,458.17095 416.66685,456.85744 418.10427,455.8661 C 419.54169,454.85001 421.22694,454.11891 423.16003,453.67279 C 425.0931,453.20194 427.1501,452.9541 429.33103,452.9293 L 437.99273,452.7806 L 437.99273,450.73599 C 437.9927,449.27382 437.85639,448.05944 437.5838,447.09287 C 437.33595,446.10158 436.9642,445.29613 436.46856,444.67652 C 435.97288,444.05697 435.3533,443.62327 434.60983,443.37541 C 433.8911,443.10283 433.06086,442.96652 432.11913,442.96648 C 431.2517,442.96652 430.47103,443.05326 429.77712,443.22671 C 429.10796,443.40022 428.52556,443.71001 428.02991,444.15607 C 427.53423,444.57742 427.12531,445.15982 426.80315,445.90328 C 426.50574,446.62202 426.29508,447.539 426.17118,448.65421 L 415.279,448.13376 C 415.57639,446.37419 416.12162,444.77568 416.91468,443.33823 C 417.70774,441.87606 418.79819,440.61212 420.18606,439.54641 C 421.59868,438.48078 423.32111,437.66294 425.35334,437.09289 C 427.41032,436.49813 429.81428,436.20073 432.56522,436.20069 C 435.06829,436.20073 437.29877,436.51052 439.25666,437.13006 C 441.2145,437.74968 442.87497,438.67904 444.23807,439.91816 C 445.60111,441.13257 446.642,442.63195 447.36074,444.4163 C 448.07942,446.20071 448.43877,448.2701 448.43881,450.62447 L 448.43881,465.27129 C 448.43877,466.21306 448.47595,467.05568 448.55033,467.79917 C 448.64943,468.54267 448.81052,469.17464 449.0336,469.69508 C 449.2814,470.19075 449.61597,470.57488 450.03732,470.84749 C 450.48338,471.09533 451.05339,471.21924 451.74736,471.21924 C 452.54037,471.21924 453.30865,471.14489 454.05219,470.99619 L 454.05219,476.64674 C 453.43257,476.79544 452.87495,476.93175 452.37933,477.05566 C 451.88362,477.17958 451.38796,477.27871 450.89234,477.35306 C 450.39664,477.42741 449.8638,477.48937 449.29383,477.53893 C 448.74856,477.5885 448.1042,477.61328 447.36074,477.61328 C 444.7337,477.61328 442.78823,476.96892 441.52432,475.6802 C 440.28513,474.39148 439.54164,472.49557 439.29384,469.99247 L 439.07079,469.99247 C 437.68291,472.49557 435.89853,474.44105 433.71764,475.8289 C 431.56149,477.21675 428.93448,477.91068 425.83661,477.91068 M 437.99273,458.54267 L 432.63957,458.61702 C 431.52431,458.66661 430.45864,458.76574 429.44255,458.91442 C 428.45121,459.03835 427.57141,459.32336 426.80315,459.76944 C 426.05964,460.19077 425.46485,460.81034 425.01876,461.62817 C 424.57265,462.44603 424.34961,463.56127 424.34962,464.97389 C 424.34961,466.8822 424.78331,468.30723 425.65073,469.24898 C 426.54291,470.16596 427.72011,470.62445 429.18233,470.62444 C 430.5206,470.62445 431.73497,470.33944 432.82545,469.76943 C 433.91588,469.19942 434.83285,468.45593 435.57637,467.53894 C 436.34462,466.5972 436.93942,465.51913 437.36076,464.30475 C 437.78204,463.09039 437.9927,461.85123 437.99273,460.58728 L 437.99273,458.54267 M 492.82537,465.41999 C 492.82533,467.35308 492.41641,469.0879 491.59861,470.62444 C 490.80551,472.161 489.64071,473.47451 488.10419,474.56496 C 486.5676,475.63063 484.68409,476.46087 482.45364,477.05566 C 480.22313,477.62567 477.68286,477.91068 474.83283,477.91068 C 472.28015,477.91068 469.97532,477.72481 467.91834,477.35306 C 465.86133,476.98131 464.05216,476.37413 462.49084,475.5315 C 460.95428,474.66409 459.66556,473.54885 458.62467,472.18578 C 457.58378,470.82271 456.80311,469.13746 456.28267,467.13002 L 465.46481,465.75456 C 465.7622,466.86981 466.17112,467.77439 466.69158,468.46831 C 467.21201,469.16225 467.85637,469.69508 468.62466,470.06682 C 469.39292,470.43858 470.28511,470.68641 471.30124,470.81032 C 472.34211,470.93424 473.51931,470.9962 474.83283,470.99619 C 476.0224,470.9962 477.12525,470.93424 478.14138,470.81032 C 479.18224,470.66162 480.07443,470.42618 480.81795,470.104 C 481.5862,469.75704 482.181,469.28616 482.60234,468.69136 C 483.02362,468.07179 483.23428,467.30352 483.23431,466.38653 C 483.23428,465.34565 482.92449,464.52781 482.30494,463.933 C 481.71012,463.31344 480.87988,462.81778 479.81424,462.44601 C 478.77332,462.0495 477.53417,461.71493 476.09677,461.4423 C 474.68411,461.14492 473.17234,460.81034 471.56146,460.43858 C 469.87619,460.06685 468.21572,459.62076 466.58005,459.10029 C 464.94436,458.57987 463.48215,457.87355 462.19344,456.98134 C 460.90471,456.08917 459.86382,454.96154 459.07077,453.59844 C 458.2777,452.21061 457.88117,450.4634 457.88118,448.35681 C 457.88117,446.44854 458.25292,444.7509 458.99642,443.26388 C 459.73991,441.75215 460.83036,440.47582 462.26779,439.43489 C 463.7052,438.36925 465.47719,437.5638 467.58377,437.01854 C 469.7151,436.44857 472.15624,436.16356 474.90718,436.16352 C 477.08807,436.16356 479.12028,436.37422 481.00383,436.79549 C 482.88731,437.19206 484.57256,437.83642 486.05958,438.72857 C 487.54654,439.59602 488.78569,440.71126 489.77705,442.07429 C 490.79312,443.4374 491.49944,445.08547 491.89601,447.01852 L 482.63951,447.98507 C 482.466,447.01855 482.15621,446.2255 481.71015,445.60589 C 481.26402,444.96156 480.7064,444.4535 480.03728,444.08172 C 479.3929,443.71001 478.63701,443.46218 477.76963,443.33823 C 476.9022,443.18957 475.94805,443.11522 474.90718,443.11518 C 472.42885,443.11522 470.57012,443.4374 469.33098,444.08172 C 468.09181,444.70133 467.47223,445.75462 467.47224,447.24157 C 467.47223,448.15858 467.72006,448.88968 468.21574,449.43488 C 468.73617,449.98013 469.45488,450.43862 470.37187,450.81034 C 471.31361,451.15733 472.41646,451.46712 473.68042,451.73971 C 474.96912,451.98756 476.36936,452.29735 477.88115,452.66907 C 479.73986,453.06563 481.56142,453.53651 483.34583,454.08171 C 485.15497,454.60218 486.75348,455.33328 488.14136,456.27502 C 489.55397,457.19201 490.6816,458.3816 491.52426,459.84379 C 492.39163,461.30601 492.82533,463.16474 492.82537,465.41999 M 522.41641,429.69513 L 522.41641,421.99997 L 532.8625,421.99997 L 532.8625,429.69513 L 522.41641,429.69513 M 522.41641,477.16719 L 522.41641,436.94419 L 532.8625,436.94419 L 532.8625,477.16719 L 522.41641,477.16719 M 569.59108,477.16719 L 569.59108,454.60216 C 569.59105,453.04085 569.46713,451.61582 569.21933,450.32707 C 568.97147,449.01359 568.56255,447.89835 567.99257,446.98135 C 567.42253,446.03962 566.67903,445.30852 565.76209,444.78804 C 564.84509,444.26763 563.72985,444.00741 562.41637,444.00738 C 561.1524,444.00741 559.99999,444.29241 558.95912,444.86239 C 557.94299,445.40765 557.06319,446.20071 556.31972,447.24157 C 555.57621,448.25771 554.99381,449.48447 554.57251,450.92186 C 554.17596,452.33453 553.9777,453.89586 553.97771,455.60587 L 553.97771,477.16719 L 543.53163,477.16719 L 543.53163,445.94046 C 543.53163,445.07308 543.51923,444.18089 543.49446,443.26388 C 543.49445,442.34694 543.46967,441.47953 543.42011,440.66165 C 543.39532,439.81907 543.37054,439.07557 543.34576,438.43117 C 543.32097,437.76207 543.28379,437.26641 543.23423,436.94419 L 553.19705,436.94419 C 553.2466,437.24162 553.29616,437.72489 553.34575,438.394 C 553.3953,439.0384 553.44486,439.75711 553.49444,440.55013 C 553.544,441.34323 553.58117,442.13628 553.60597,442.92931 C 553.65552,443.7224 553.6803,444.39155 553.68032,444.93674 L 553.82902,444.93674 C 555.24164,441.86367 557.01363,439.63319 559.14499,438.2453 C 561.27632,436.85749 563.81659,436.16356 566.7658,436.16352 C 569.19452,436.16356 571.23912,436.56009 572.89962,437.35311 C 574.58484,438.14621 575.94791,439.23666 576.98884,440.62448 C 578.05447,442.01237 578.82275,443.64805 579.29367,445.53154 C 579.76451,447.41508 579.99995,449.4473 579.99999,451.62818 L 579.99999,477.16719 L 569.59108,477.16719"
     id="text2210" />
  <rect
     style="opacity:1;fill:#e04613;fill-opacity:1;stroke:none;stroke-opacity:1"
     id="rect4157"
     width="339.99994"
     height="39.999969"
     x="300.00006"
     y="200" />
  <rect
     style="opacity:1;fill:#ffffff;fill-opacity:1;stroke:none;stroke-opacity:1"
     id="rect5139"
     width="340"
     height="120"
     x="640"
     y="580" />
  <g
     id="g5219"
     transform="translate(-250,140.02824)">
    <path
       id="path14153"
       d="M 1210,457.97176 L 1210,541.1296 L 1128,541.1296 L 1210,457.97176 z "
       style="fill:#e04613;fill-opacity:1;fill-rule:evenodd;stroke:none;stroke-width:1px;stroke-linecap:butt;stroke-linejoin:miter;stroke-opacity:1" />
    <path
       id="path13182"
       d="M 1210,470 L 1210,541.32647 L 1140,541.32647 L 1210,470 z "
       style="fill:#ffffff;fill-opacity:1;fill-rule:evenodd;stroke:none;stroke-width:1px;stroke-linecap:butt;stroke-linejoin:miter;stroke-opacity:1" />
    <path
       id="path15124"
       d="M 1210,480 L 1210,541.28039 L 1150,541.28039 L 1210,480 z "
       style="fill:#262729;fill-opacity:1;fill-rule:evenodd;stroke:none;stroke-width:1px;stroke-linecap:butt;stroke-linejoin:miter;stroke-opacity:1" />
  </g>
  <path
     id="text2209"
     d="M 766.48371,491.46513 C 764.46644,491.46512 762.68486,491.25774 761.13894,490.84299 C 759.61185,490.44706 758.30158,489.88148 757.20813,489.14623 C 756.13351,488.42982 755.26629,487.56259 754.60645,486.54455 C 753.96544,485.54534 753.5224,484.44246 753.27732,483.23588 L 761.22378,482.30267 C 761.50656,483.52809 762.10984,484.48959 763.03365,485.18715 C 763.97627,485.88469 765.2017,486.23347 766.70994,486.23348 C 767.65256,486.23347 768.51036,486.1015 769.28335,485.83757 C 770.07515,485.57362 770.74442,485.12115 771.29117,484.48017 C 771.85673,483.85802 772.29034,483.0285 772.59201,481.9916 C 772.91249,480.95469 773.07274,479.6727 773.07276,478.14563 C 773.07274,477.61775 773.07274,477.08044 773.07276,476.53371 C 773.07274,475.98698 773.08217,475.48739 773.10104,475.03491 C 773.11987,474.50704 773.12929,473.99802 773.12932,473.50784 L 773.07276,473.50784 C 772.14895,475.48739 770.8481,476.9202 769.17023,477.80628 C 767.51116,478.69236 765.53163,479.1354 763.2316,479.1354 C 761.28974,479.1354 759.61185,478.75834 758.1979,478.00423 C 756.80278,477.23127 755.64334,476.16609 754.71956,474.80868 C 753.79577,473.43243 753.10764,471.80167 752.65518,469.91638 C 752.22156,468.01226 752.00476,465.9196 752.00476,463.6384 C 752.00476,461.28182 752.24042,459.15145 752.71174,457.2473 C 753.18305,455.32434 753.89946,453.67472 754.86096,452.29844 C 755.84129,450.92221 757.06673,449.86646 758.53725,449.13117 C 760.02661,448.37709 761.78935,448.00003 763.82546,448 C 765.86155,448.00003 767.68084,448.43365 769.28335,449.30085 C 770.90467,450.1681 772.1678,451.57264 773.07276,453.51445 L 773.21416,453.51445 C 773.21413,453.11856 773.22356,452.6661 773.24243,452.15705 C 773.28012,451.62919 773.31782,451.1296 773.35555,450.65825 C 773.39323,450.1681 773.43094,449.73449 773.46866,449.3574 C 773.52521,448.98038 773.57233,448.72587 773.61007,448.59387 L 781.13233,448.59387 C 781.09459,449.2726 781.05689,450.22466 781.01921,451.45006 C 780.98148,452.67552 780.96262,454.08006 780.96265,455.66367 L 780.96265,478.25874 C 780.96262,480.48337 780.64213,482.41578 780.00116,484.05598 C 779.36013,485.71502 778.4175,487.09127 777.17324,488.18474 C 775.94778,489.27819 774.43013,490.09829 772.62029,490.64503 C 770.82926,491.19175 768.78373,491.46512 766.48371,491.46513 M 773.12932,463.46872 C 773.12929,461.54576 772.94076,459.94327 772.56373,458.66126 C 772.18666,457.37929 771.69648,456.35182 771.09322,455.57883 C 770.4899,454.80589 769.79236,454.25916 769.00056,453.93863 C 768.22757,453.61816 767.44518,453.45791 766.65338,453.45789 C 765.63531,453.45791 764.73038,453.65587 763.93858,454.05175 C 763.1656,454.44768 762.50575,455.0604 761.95903,455.8899 C 761.41229,456.71944 760.99753,457.7752 760.71475,459.05717 C 760.43195,460.33918 760.29055,461.86625 760.29056,463.6384 C 760.29055,466.93765 760.81843,469.42622 761.8742,471.10411 C 762.92994,472.78201 764.50414,473.62096 766.59682,473.62096 C 767.38862,473.62096 768.17101,473.47014 768.94399,473.16849 C 769.73579,472.848 770.44277,472.30127 771.06493,471.52829 C 771.68705,470.73649 772.18666,469.69016 772.56373,468.3893 C 772.94076,467.08847 773.12929,465.44828 773.12932,463.46872 M 808.90251,479.19196 L 808.90251,462.02648 C 808.90248,460.83878 808.80822,459.75474 808.61971,458.77438 C 808.43116,457.7752 808.12009,456.92683 807.6865,456.22925 C 807.25286,455.51287 806.68727,454.95671 805.98974,454.56078 C 805.29217,454.16489 804.44379,453.96694 803.44462,453.96691 C 802.4831,453.96694 801.60645,454.18375 800.81465,454.61733 C 800.04167,455.03212 799.3724,455.63541 798.80682,456.4272 C 798.24123,457.20019 797.79819,458.1334 797.47771,459.22684 C 797.17605,460.30147 797.02523,461.4892 797.02524,462.79002 L 797.02524,479.19196 L 789.07878,479.19196 L 789.07878,455.43743 C 789.07878,454.77761 789.06935,454.09891 789.0505,453.40133 C 789.0505,452.7038 789.03165,452.04395 788.99395,451.42179 C 788.97509,450.78082 788.95624,450.21524 788.93739,449.72503 C 788.91853,449.21604 788.89025,448.83898 788.85255,448.59387 L 796.43138,448.59387 C 796.46907,448.82013 796.50677,449.18776 796.54449,449.69675 C 796.58218,450.18696 796.61989,450.73369 796.65761,451.33695 C 796.6953,451.94026 796.72359,452.54355 796.74245,453.14682 C 796.78014,453.75013 796.799,454.25916 796.799,454.67389 L 796.91213,454.67389 C 797.98672,452.33617 799.3347,450.63942 800.95605,449.58364 C 802.57737,448.52791 804.50978,448.00003 806.75328,448 C 808.60084,448.00003 810.15619,448.30168 811.41935,448.90494 C 812.70132,449.50826 813.73822,450.33778 814.53006,451.39351 C 815.3407,452.44929 815.92514,453.69357 816.28337,455.12636 C 816.64154,456.5592 816.82065,458.10512 816.82068,459.76415 L 816.82068,479.19196 L 808.90251,479.19196 M 831.97832,448.59387 L 831.97832,465.75934 C 831.97831,466.94708 832.07257,468.04054 832.26111,469.03973 C 832.44963,470.02008 832.7607,470.86845 833.19433,471.58485 C 833.62793,472.28241 834.18408,472.82914 834.8628,473.22505 C 835.56034,473.62096 836.40871,473.81891 837.40793,473.81891 C 838.3694,473.81891 839.23663,473.61153 840.00962,473.19677 C 840.80142,472.76316 841.48011,472.15987 842.04572,471.3869 C 842.61128,470.59509 843.0449,469.66188 843.34656,468.58726 C 843.66703,467.49381 843.82728,466.29666 843.82731,464.9958 L 843.82731,448.59387 L 851.77376,448.59387 L 851.77376,472.34839 C 851.77373,472.98939 851.77373,473.66809 851.77376,474.38449 C 851.79258,475.08205 851.81143,475.75132 851.83032,476.39232 C 851.86799,477.01446 851.89627,477.58004 851.91516,478.08907 C 851.95282,478.57924 851.98111,478.94687 852,479.19196 L 844.42117,479.19196 C 844.40229,478.96572 844.36459,478.60752 844.30805,478.11735 C 844.27032,477.60832 844.23262,477.05217 844.19493,476.44887 C 844.17606,475.84559 844.14778,475.2423 844.1101,474.63901 C 844.09122,474.03572 844.0818,473.5267 844.08182,473.11193 L 843.94042,473.11193 C 842.88465,475.43083 841.53667,477.11815 839.8965,478.17391 C 838.27514,479.22966 836.34273,479.75754 834.09926,479.75754 C 832.27053,479.75754 830.71518,479.45589 829.4332,478.85261 C 828.1512,478.24932 827.10487,477.42922 826.2942,476.39232 C 825.50238,475.33656 824.92737,474.09228 824.56917,472.65946 C 824.21097,471.22666 824.03186,469.68073 824.03186,468.02167 L 824.03186,448.59387 L 831.97832,448.59387"
     style="font-size:72px;font-style:normal;font-weight:bold;fill:#e68924;fill-opacity:1;stroke:none;stroke-width:1px;stroke-linecap:butt;stroke-linejoin:miter;stroke-opacity:1;font-family:Liberation Sans" />
</svg>
